%TF.GenerationSoftware,KiCad,Pcbnew,7.0.9-7.0.9~ubuntu22.04.1*%
%TF.CreationDate,2024-01-17T18:16:46+01:00*%
%TF.ProjectId,driver_seperate,64726976-6572-45f7-9365-706572617465,rev?*%
%TF.SameCoordinates,Original*%
%TF.FileFunction,Legend,Top*%
%TF.FilePolarity,Positive*%
%FSLAX46Y46*%
G04 Gerber Fmt 4.6, Leading zero omitted, Abs format (unit mm)*
G04 Created by KiCad (PCBNEW 7.0.9-7.0.9~ubuntu22.04.1) date 2024-01-17 18:16:46*
%MOMM*%
%LPD*%
G01*
G04 APERTURE LIST*
%ADD10C,0.150000*%
%ADD11C,0.254000*%
%ADD12C,0.120000*%
%ADD13C,0.200000*%
%ADD14C,0.250000*%
G04 APERTURE END LIST*
D10*
X175691580Y-106491066D02*
X175739200Y-106538685D01*
X175739200Y-106538685D02*
X175786819Y-106681542D01*
X175786819Y-106681542D02*
X175786819Y-106776780D01*
X175786819Y-106776780D02*
X175739200Y-106919637D01*
X175739200Y-106919637D02*
X175643961Y-107014875D01*
X175643961Y-107014875D02*
X175548723Y-107062494D01*
X175548723Y-107062494D02*
X175358247Y-107110113D01*
X175358247Y-107110113D02*
X175215390Y-107110113D01*
X175215390Y-107110113D02*
X175024914Y-107062494D01*
X175024914Y-107062494D02*
X174929676Y-107014875D01*
X174929676Y-107014875D02*
X174834438Y-106919637D01*
X174834438Y-106919637D02*
X174786819Y-106776780D01*
X174786819Y-106776780D02*
X174786819Y-106681542D01*
X174786819Y-106681542D02*
X174834438Y-106538685D01*
X174834438Y-106538685D02*
X174882057Y-106491066D01*
X174786819Y-105633923D02*
X174786819Y-105824399D01*
X174786819Y-105824399D02*
X174834438Y-105919637D01*
X174834438Y-105919637D02*
X174882057Y-105967256D01*
X174882057Y-105967256D02*
X175024914Y-106062494D01*
X175024914Y-106062494D02*
X175215390Y-106110113D01*
X175215390Y-106110113D02*
X175596342Y-106110113D01*
X175596342Y-106110113D02*
X175691580Y-106062494D01*
X175691580Y-106062494D02*
X175739200Y-106014875D01*
X175739200Y-106014875D02*
X175786819Y-105919637D01*
X175786819Y-105919637D02*
X175786819Y-105729161D01*
X175786819Y-105729161D02*
X175739200Y-105633923D01*
X175739200Y-105633923D02*
X175691580Y-105586304D01*
X175691580Y-105586304D02*
X175596342Y-105538685D01*
X175596342Y-105538685D02*
X175358247Y-105538685D01*
X175358247Y-105538685D02*
X175263009Y-105586304D01*
X175263009Y-105586304D02*
X175215390Y-105633923D01*
X175215390Y-105633923D02*
X175167771Y-105729161D01*
X175167771Y-105729161D02*
X175167771Y-105919637D01*
X175167771Y-105919637D02*
X175215390Y-106014875D01*
X175215390Y-106014875D02*
X175263009Y-106062494D01*
X175263009Y-106062494D02*
X175358247Y-106110113D01*
D11*
X158437333Y-90877365D02*
X158376857Y-90937842D01*
X158376857Y-90937842D02*
X158195428Y-90998318D01*
X158195428Y-90998318D02*
X158074476Y-90998318D01*
X158074476Y-90998318D02*
X157893047Y-90937842D01*
X157893047Y-90937842D02*
X157772095Y-90816889D01*
X157772095Y-90816889D02*
X157711618Y-90695937D01*
X157711618Y-90695937D02*
X157651142Y-90454032D01*
X157651142Y-90454032D02*
X157651142Y-90272603D01*
X157651142Y-90272603D02*
X157711618Y-90030699D01*
X157711618Y-90030699D02*
X157772095Y-89909746D01*
X157772095Y-89909746D02*
X157893047Y-89788794D01*
X157893047Y-89788794D02*
X158074476Y-89728318D01*
X158074476Y-89728318D02*
X158195428Y-89728318D01*
X158195428Y-89728318D02*
X158376857Y-89788794D01*
X158376857Y-89788794D02*
X158437333Y-89849270D01*
X159525904Y-90151651D02*
X159525904Y-90998318D01*
X159223523Y-89667842D02*
X158921142Y-90574984D01*
X158921142Y-90574984D02*
X159707333Y-90574984D01*
X147366965Y-90889666D02*
X147427442Y-90950142D01*
X147427442Y-90950142D02*
X147487918Y-91131571D01*
X147487918Y-91131571D02*
X147487918Y-91252523D01*
X147487918Y-91252523D02*
X147427442Y-91433952D01*
X147427442Y-91433952D02*
X147306489Y-91554904D01*
X147306489Y-91554904D02*
X147185537Y-91615381D01*
X147185537Y-91615381D02*
X146943632Y-91675857D01*
X146943632Y-91675857D02*
X146762203Y-91675857D01*
X146762203Y-91675857D02*
X146520299Y-91615381D01*
X146520299Y-91615381D02*
X146399346Y-91554904D01*
X146399346Y-91554904D02*
X146278394Y-91433952D01*
X146278394Y-91433952D02*
X146217918Y-91252523D01*
X146217918Y-91252523D02*
X146217918Y-91131571D01*
X146217918Y-91131571D02*
X146278394Y-90950142D01*
X146278394Y-90950142D02*
X146338870Y-90889666D01*
X146338870Y-90405857D02*
X146278394Y-90345381D01*
X146278394Y-90345381D02*
X146217918Y-90224428D01*
X146217918Y-90224428D02*
X146217918Y-89922047D01*
X146217918Y-89922047D02*
X146278394Y-89801095D01*
X146278394Y-89801095D02*
X146338870Y-89740619D01*
X146338870Y-89740619D02*
X146459822Y-89680142D01*
X146459822Y-89680142D02*
X146580775Y-89680142D01*
X146580775Y-89680142D02*
X146762203Y-89740619D01*
X146762203Y-89740619D02*
X147487918Y-90466333D01*
X147487918Y-90466333D02*
X147487918Y-89680142D01*
D10*
X152233333Y-115008819D02*
X151900000Y-114532628D01*
X151661905Y-115008819D02*
X151661905Y-114008819D01*
X151661905Y-114008819D02*
X152042857Y-114008819D01*
X152042857Y-114008819D02*
X152138095Y-114056438D01*
X152138095Y-114056438D02*
X152185714Y-114104057D01*
X152185714Y-114104057D02*
X152233333Y-114199295D01*
X152233333Y-114199295D02*
X152233333Y-114342152D01*
X152233333Y-114342152D02*
X152185714Y-114437390D01*
X152185714Y-114437390D02*
X152138095Y-114485009D01*
X152138095Y-114485009D02*
X152042857Y-114532628D01*
X152042857Y-114532628D02*
X151661905Y-114532628D01*
X152614286Y-114104057D02*
X152661905Y-114056438D01*
X152661905Y-114056438D02*
X152757143Y-114008819D01*
X152757143Y-114008819D02*
X152995238Y-114008819D01*
X152995238Y-114008819D02*
X153090476Y-114056438D01*
X153090476Y-114056438D02*
X153138095Y-114104057D01*
X153138095Y-114104057D02*
X153185714Y-114199295D01*
X153185714Y-114199295D02*
X153185714Y-114294533D01*
X153185714Y-114294533D02*
X153138095Y-114437390D01*
X153138095Y-114437390D02*
X152566667Y-115008819D01*
X152566667Y-115008819D02*
X153185714Y-115008819D01*
X144255833Y-95671819D02*
X143922500Y-95195628D01*
X143684405Y-95671819D02*
X143684405Y-94671819D01*
X143684405Y-94671819D02*
X144065357Y-94671819D01*
X144065357Y-94671819D02*
X144160595Y-94719438D01*
X144160595Y-94719438D02*
X144208214Y-94767057D01*
X144208214Y-94767057D02*
X144255833Y-94862295D01*
X144255833Y-94862295D02*
X144255833Y-95005152D01*
X144255833Y-95005152D02*
X144208214Y-95100390D01*
X144208214Y-95100390D02*
X144160595Y-95148009D01*
X144160595Y-95148009D02*
X144065357Y-95195628D01*
X144065357Y-95195628D02*
X143684405Y-95195628D01*
X145112976Y-95005152D02*
X145112976Y-95671819D01*
X144874881Y-94624200D02*
X144636786Y-95338485D01*
X144636786Y-95338485D02*
X145255833Y-95338485D01*
D11*
X166182318Y-100490866D02*
X166182318Y-101095628D01*
X166182318Y-101095628D02*
X164912318Y-101095628D01*
X166182318Y-99402294D02*
X166182318Y-100128009D01*
X166182318Y-99765152D02*
X164912318Y-99765152D01*
X164912318Y-99765152D02*
X165093746Y-99886104D01*
X165093746Y-99886104D02*
X165214699Y-100007056D01*
X165214699Y-100007056D02*
X165275175Y-100128009D01*
D10*
X160432953Y-80464819D02*
X160432953Y-79464819D01*
X160909143Y-80464819D02*
X160909143Y-79464819D01*
X160909143Y-79464819D02*
X161480571Y-80464819D01*
X161480571Y-80464819D02*
X161480571Y-79464819D01*
X161956762Y-80083866D02*
X162718667Y-80083866D01*
X163718666Y-80464819D02*
X163147238Y-80464819D01*
X163432952Y-80464819D02*
X163432952Y-79464819D01*
X163432952Y-79464819D02*
X163337714Y-79607676D01*
X163337714Y-79607676D02*
X163242476Y-79702914D01*
X163242476Y-79702914D02*
X163147238Y-79750533D01*
D11*
X149394333Y-110435365D02*
X149333857Y-110495842D01*
X149333857Y-110495842D02*
X149152428Y-110556318D01*
X149152428Y-110556318D02*
X149031476Y-110556318D01*
X149031476Y-110556318D02*
X148850047Y-110495842D01*
X148850047Y-110495842D02*
X148729095Y-110374889D01*
X148729095Y-110374889D02*
X148668618Y-110253937D01*
X148668618Y-110253937D02*
X148608142Y-110012032D01*
X148608142Y-110012032D02*
X148608142Y-109830603D01*
X148608142Y-109830603D02*
X148668618Y-109588699D01*
X148668618Y-109588699D02*
X148729095Y-109467746D01*
X148729095Y-109467746D02*
X148850047Y-109346794D01*
X148850047Y-109346794D02*
X149031476Y-109286318D01*
X149031476Y-109286318D02*
X149152428Y-109286318D01*
X149152428Y-109286318D02*
X149333857Y-109346794D01*
X149333857Y-109346794D02*
X149394333Y-109407270D01*
X149817666Y-109286318D02*
X150664333Y-109286318D01*
X150664333Y-109286318D02*
X150120047Y-110556318D01*
D10*
X144343333Y-100656819D02*
X144010000Y-100180628D01*
X143771905Y-100656819D02*
X143771905Y-99656819D01*
X143771905Y-99656819D02*
X144152857Y-99656819D01*
X144152857Y-99656819D02*
X144248095Y-99704438D01*
X144248095Y-99704438D02*
X144295714Y-99752057D01*
X144295714Y-99752057D02*
X144343333Y-99847295D01*
X144343333Y-99847295D02*
X144343333Y-99990152D01*
X144343333Y-99990152D02*
X144295714Y-100085390D01*
X144295714Y-100085390D02*
X144248095Y-100133009D01*
X144248095Y-100133009D02*
X144152857Y-100180628D01*
X144152857Y-100180628D02*
X143771905Y-100180628D01*
X145248095Y-99656819D02*
X144771905Y-99656819D01*
X144771905Y-99656819D02*
X144724286Y-100133009D01*
X144724286Y-100133009D02*
X144771905Y-100085390D01*
X144771905Y-100085390D02*
X144867143Y-100037771D01*
X144867143Y-100037771D02*
X145105238Y-100037771D01*
X145105238Y-100037771D02*
X145200476Y-100085390D01*
X145200476Y-100085390D02*
X145248095Y-100133009D01*
X145248095Y-100133009D02*
X145295714Y-100228247D01*
X145295714Y-100228247D02*
X145295714Y-100466342D01*
X145295714Y-100466342D02*
X145248095Y-100561580D01*
X145248095Y-100561580D02*
X145200476Y-100609200D01*
X145200476Y-100609200D02*
X145105238Y-100656819D01*
X145105238Y-100656819D02*
X144867143Y-100656819D01*
X144867143Y-100656819D02*
X144771905Y-100609200D01*
X144771905Y-100609200D02*
X144724286Y-100561580D01*
D11*
X143353765Y-90737266D02*
X143414242Y-90797742D01*
X143414242Y-90797742D02*
X143474718Y-90979171D01*
X143474718Y-90979171D02*
X143474718Y-91100123D01*
X143474718Y-91100123D02*
X143414242Y-91281552D01*
X143414242Y-91281552D02*
X143293289Y-91402504D01*
X143293289Y-91402504D02*
X143172337Y-91462981D01*
X143172337Y-91462981D02*
X142930432Y-91523457D01*
X142930432Y-91523457D02*
X142749003Y-91523457D01*
X142749003Y-91523457D02*
X142507099Y-91462981D01*
X142507099Y-91462981D02*
X142386146Y-91402504D01*
X142386146Y-91402504D02*
X142265194Y-91281552D01*
X142265194Y-91281552D02*
X142204718Y-91100123D01*
X142204718Y-91100123D02*
X142204718Y-90979171D01*
X142204718Y-90979171D02*
X142265194Y-90797742D01*
X142265194Y-90797742D02*
X142325670Y-90737266D01*
X142204718Y-89588219D02*
X142204718Y-90192981D01*
X142204718Y-90192981D02*
X142809480Y-90253457D01*
X142809480Y-90253457D02*
X142749003Y-90192981D01*
X142749003Y-90192981D02*
X142688527Y-90072028D01*
X142688527Y-90072028D02*
X142688527Y-89769647D01*
X142688527Y-89769647D02*
X142749003Y-89648695D01*
X142749003Y-89648695D02*
X142809480Y-89588219D01*
X142809480Y-89588219D02*
X142930432Y-89527742D01*
X142930432Y-89527742D02*
X143232813Y-89527742D01*
X143232813Y-89527742D02*
X143353765Y-89588219D01*
X143353765Y-89588219D02*
X143414242Y-89648695D01*
X143414242Y-89648695D02*
X143474718Y-89769647D01*
X143474718Y-89769647D02*
X143474718Y-90072028D01*
X143474718Y-90072028D02*
X143414242Y-90192981D01*
X143414242Y-90192981D02*
X143353765Y-90253457D01*
D10*
X138452266Y-93060619D02*
X138452266Y-93774904D01*
X138452266Y-93774904D02*
X138404647Y-93917761D01*
X138404647Y-93917761D02*
X138309409Y-94013000D01*
X138309409Y-94013000D02*
X138166552Y-94060619D01*
X138166552Y-94060619D02*
X138071314Y-94060619D01*
X139452266Y-94060619D02*
X138880838Y-94060619D01*
X139166552Y-94060619D02*
X139166552Y-93060619D01*
X139166552Y-93060619D02*
X139071314Y-93203476D01*
X139071314Y-93203476D02*
X138976076Y-93298714D01*
X138976076Y-93298714D02*
X138880838Y-93346333D01*
X147610533Y-106931619D02*
X147277200Y-106455428D01*
X147039105Y-106931619D02*
X147039105Y-105931619D01*
X147039105Y-105931619D02*
X147420057Y-105931619D01*
X147420057Y-105931619D02*
X147515295Y-105979238D01*
X147515295Y-105979238D02*
X147562914Y-106026857D01*
X147562914Y-106026857D02*
X147610533Y-106122095D01*
X147610533Y-106122095D02*
X147610533Y-106264952D01*
X147610533Y-106264952D02*
X147562914Y-106360190D01*
X147562914Y-106360190D02*
X147515295Y-106407809D01*
X147515295Y-106407809D02*
X147420057Y-106455428D01*
X147420057Y-106455428D02*
X147039105Y-106455428D01*
X148467676Y-105931619D02*
X148277200Y-105931619D01*
X148277200Y-105931619D02*
X148181962Y-105979238D01*
X148181962Y-105979238D02*
X148134343Y-106026857D01*
X148134343Y-106026857D02*
X148039105Y-106169714D01*
X148039105Y-106169714D02*
X147991486Y-106360190D01*
X147991486Y-106360190D02*
X147991486Y-106741142D01*
X147991486Y-106741142D02*
X148039105Y-106836380D01*
X148039105Y-106836380D02*
X148086724Y-106884000D01*
X148086724Y-106884000D02*
X148181962Y-106931619D01*
X148181962Y-106931619D02*
X148372438Y-106931619D01*
X148372438Y-106931619D02*
X148467676Y-106884000D01*
X148467676Y-106884000D02*
X148515295Y-106836380D01*
X148515295Y-106836380D02*
X148562914Y-106741142D01*
X148562914Y-106741142D02*
X148562914Y-106503047D01*
X148562914Y-106503047D02*
X148515295Y-106407809D01*
X148515295Y-106407809D02*
X148467676Y-106360190D01*
X148467676Y-106360190D02*
X148372438Y-106312571D01*
X148372438Y-106312571D02*
X148181962Y-106312571D01*
X148181962Y-106312571D02*
X148086724Y-106360190D01*
X148086724Y-106360190D02*
X148039105Y-106407809D01*
X148039105Y-106407809D02*
X147991486Y-106503047D01*
D11*
X158436733Y-100884965D02*
X158376257Y-100945442D01*
X158376257Y-100945442D02*
X158194828Y-101005918D01*
X158194828Y-101005918D02*
X158073876Y-101005918D01*
X158073876Y-101005918D02*
X157892447Y-100945442D01*
X157892447Y-100945442D02*
X157771495Y-100824489D01*
X157771495Y-100824489D02*
X157711018Y-100703537D01*
X157711018Y-100703537D02*
X157650542Y-100461632D01*
X157650542Y-100461632D02*
X157650542Y-100280203D01*
X157650542Y-100280203D02*
X157711018Y-100038299D01*
X157711018Y-100038299D02*
X157771495Y-99917346D01*
X157771495Y-99917346D02*
X157892447Y-99796394D01*
X157892447Y-99796394D02*
X158073876Y-99735918D01*
X158073876Y-99735918D02*
X158194828Y-99735918D01*
X158194828Y-99735918D02*
X158376257Y-99796394D01*
X158376257Y-99796394D02*
X158436733Y-99856870D01*
X159646257Y-101005918D02*
X158920542Y-101005918D01*
X159283399Y-101005918D02*
X159283399Y-99735918D01*
X159283399Y-99735918D02*
X159162447Y-99917346D01*
X159162447Y-99917346D02*
X159041495Y-100038299D01*
X159041495Y-100038299D02*
X158920542Y-100098775D01*
D10*
X157313333Y-111579819D02*
X156980000Y-111103628D01*
X156741905Y-111579819D02*
X156741905Y-110579819D01*
X156741905Y-110579819D02*
X157122857Y-110579819D01*
X157122857Y-110579819D02*
X157218095Y-110627438D01*
X157218095Y-110627438D02*
X157265714Y-110675057D01*
X157265714Y-110675057D02*
X157313333Y-110770295D01*
X157313333Y-110770295D02*
X157313333Y-110913152D01*
X157313333Y-110913152D02*
X157265714Y-111008390D01*
X157265714Y-111008390D02*
X157218095Y-111056009D01*
X157218095Y-111056009D02*
X157122857Y-111103628D01*
X157122857Y-111103628D02*
X156741905Y-111103628D01*
X157646667Y-110579819D02*
X158265714Y-110579819D01*
X158265714Y-110579819D02*
X157932381Y-110960771D01*
X157932381Y-110960771D02*
X158075238Y-110960771D01*
X158075238Y-110960771D02*
X158170476Y-111008390D01*
X158170476Y-111008390D02*
X158218095Y-111056009D01*
X158218095Y-111056009D02*
X158265714Y-111151247D01*
X158265714Y-111151247D02*
X158265714Y-111389342D01*
X158265714Y-111389342D02*
X158218095Y-111484580D01*
X158218095Y-111484580D02*
X158170476Y-111532200D01*
X158170476Y-111532200D02*
X158075238Y-111579819D01*
X158075238Y-111579819D02*
X157789524Y-111579819D01*
X157789524Y-111579819D02*
X157694286Y-111532200D01*
X157694286Y-111532200D02*
X157646667Y-111484580D01*
X153376333Y-105610819D02*
X153043000Y-105134628D01*
X152804905Y-105610819D02*
X152804905Y-104610819D01*
X152804905Y-104610819D02*
X153185857Y-104610819D01*
X153185857Y-104610819D02*
X153281095Y-104658438D01*
X153281095Y-104658438D02*
X153328714Y-104706057D01*
X153328714Y-104706057D02*
X153376333Y-104801295D01*
X153376333Y-104801295D02*
X153376333Y-104944152D01*
X153376333Y-104944152D02*
X153328714Y-105039390D01*
X153328714Y-105039390D02*
X153281095Y-105087009D01*
X153281095Y-105087009D02*
X153185857Y-105134628D01*
X153185857Y-105134628D02*
X152804905Y-105134628D01*
X154328714Y-105610819D02*
X153757286Y-105610819D01*
X154043000Y-105610819D02*
X154043000Y-104610819D01*
X154043000Y-104610819D02*
X153947762Y-104753676D01*
X153947762Y-104753676D02*
X153852524Y-104848914D01*
X153852524Y-104848914D02*
X153757286Y-104896533D01*
X153778153Y-80464819D02*
X153778153Y-79464819D01*
X154254343Y-80464819D02*
X154254343Y-79464819D01*
X154254343Y-79464819D02*
X154825771Y-80464819D01*
X154825771Y-80464819D02*
X154825771Y-79464819D01*
X155301962Y-80083866D02*
X156063867Y-80083866D01*
X155682914Y-80464819D02*
X155682914Y-79702914D01*
X157063866Y-80464819D02*
X156492438Y-80464819D01*
X156778152Y-80464819D02*
X156778152Y-79464819D01*
X156778152Y-79464819D02*
X156682914Y-79607676D01*
X156682914Y-79607676D02*
X156587676Y-79702914D01*
X156587676Y-79702914D02*
X156492438Y-79750533D01*
X150455333Y-108531819D02*
X150122000Y-108055628D01*
X149883905Y-108531819D02*
X149883905Y-107531819D01*
X149883905Y-107531819D02*
X150264857Y-107531819D01*
X150264857Y-107531819D02*
X150360095Y-107579438D01*
X150360095Y-107579438D02*
X150407714Y-107627057D01*
X150407714Y-107627057D02*
X150455333Y-107722295D01*
X150455333Y-107722295D02*
X150455333Y-107865152D01*
X150455333Y-107865152D02*
X150407714Y-107960390D01*
X150407714Y-107960390D02*
X150360095Y-108008009D01*
X150360095Y-108008009D02*
X150264857Y-108055628D01*
X150264857Y-108055628D02*
X149883905Y-108055628D01*
X150788667Y-107531819D02*
X151455333Y-107531819D01*
X151455333Y-107531819D02*
X151026762Y-108531819D01*
X143684666Y-112992819D02*
X143684666Y-113707104D01*
X143684666Y-113707104D02*
X143637047Y-113849961D01*
X143637047Y-113849961D02*
X143541809Y-113945200D01*
X143541809Y-113945200D02*
X143398952Y-113992819D01*
X143398952Y-113992819D02*
X143303714Y-113992819D01*
X144113238Y-113088057D02*
X144160857Y-113040438D01*
X144160857Y-113040438D02*
X144256095Y-112992819D01*
X144256095Y-112992819D02*
X144494190Y-112992819D01*
X144494190Y-112992819D02*
X144589428Y-113040438D01*
X144589428Y-113040438D02*
X144637047Y-113088057D01*
X144637047Y-113088057D02*
X144684666Y-113183295D01*
X144684666Y-113183295D02*
X144684666Y-113278533D01*
X144684666Y-113278533D02*
X144637047Y-113421390D01*
X144637047Y-113421390D02*
X144065619Y-113992819D01*
X144065619Y-113992819D02*
X144684666Y-113992819D01*
D11*
X151527933Y-89099365D02*
X151467457Y-89159842D01*
X151467457Y-89159842D02*
X151286028Y-89220318D01*
X151286028Y-89220318D02*
X151165076Y-89220318D01*
X151165076Y-89220318D02*
X150983647Y-89159842D01*
X150983647Y-89159842D02*
X150862695Y-89038889D01*
X150862695Y-89038889D02*
X150802218Y-88917937D01*
X150802218Y-88917937D02*
X150741742Y-88676032D01*
X150741742Y-88676032D02*
X150741742Y-88494603D01*
X150741742Y-88494603D02*
X150802218Y-88252699D01*
X150802218Y-88252699D02*
X150862695Y-88131746D01*
X150862695Y-88131746D02*
X150983647Y-88010794D01*
X150983647Y-88010794D02*
X151165076Y-87950318D01*
X151165076Y-87950318D02*
X151286028Y-87950318D01*
X151286028Y-87950318D02*
X151467457Y-88010794D01*
X151467457Y-88010794D02*
X151527933Y-88071270D01*
X151951266Y-87950318D02*
X152737457Y-87950318D01*
X152737457Y-87950318D02*
X152314123Y-88434127D01*
X152314123Y-88434127D02*
X152495552Y-88434127D01*
X152495552Y-88434127D02*
X152616504Y-88494603D01*
X152616504Y-88494603D02*
X152676980Y-88555080D01*
X152676980Y-88555080D02*
X152737457Y-88676032D01*
X152737457Y-88676032D02*
X152737457Y-88978413D01*
X152737457Y-88978413D02*
X152676980Y-89099365D01*
X152676980Y-89099365D02*
X152616504Y-89159842D01*
X152616504Y-89159842D02*
X152495552Y-89220318D01*
X152495552Y-89220318D02*
X152132695Y-89220318D01*
X152132695Y-89220318D02*
X152011742Y-89159842D01*
X152011742Y-89159842D02*
X151951266Y-89099365D01*
X154309837Y-95316318D02*
X154309837Y-94046318D01*
X155640314Y-95195365D02*
X155579838Y-95255842D01*
X155579838Y-95255842D02*
X155398409Y-95316318D01*
X155398409Y-95316318D02*
X155277457Y-95316318D01*
X155277457Y-95316318D02*
X155096028Y-95255842D01*
X155096028Y-95255842D02*
X154975076Y-95134889D01*
X154975076Y-95134889D02*
X154914599Y-95013937D01*
X154914599Y-95013937D02*
X154854123Y-94772032D01*
X154854123Y-94772032D02*
X154854123Y-94590603D01*
X154854123Y-94590603D02*
X154914599Y-94348699D01*
X154914599Y-94348699D02*
X154975076Y-94227746D01*
X154975076Y-94227746D02*
X155096028Y-94106794D01*
X155096028Y-94106794D02*
X155277457Y-94046318D01*
X155277457Y-94046318D02*
X155398409Y-94046318D01*
X155398409Y-94046318D02*
X155579838Y-94106794D01*
X155579838Y-94106794D02*
X155640314Y-94167270D01*
X156849838Y-95316318D02*
X156124123Y-95316318D01*
X156486980Y-95316318D02*
X156486980Y-94046318D01*
X156486980Y-94046318D02*
X156366028Y-94227746D01*
X156366028Y-94227746D02*
X156245076Y-94348699D01*
X156245076Y-94348699D02*
X156124123Y-94409175D01*
D12*
%TO.C,C6*%
X174392000Y-105613148D02*
X174392000Y-107035652D01*
X172572000Y-105613148D02*
X172572000Y-107035652D01*
D13*
%TO.C,C4*%
X158649000Y-87874000D02*
X158649000Y-92974000D01*
%TO.C,C2*%
X148094400Y-90861800D02*
X149494400Y-90861800D01*
D12*
%TO.C,R2*%
X152033500Y-112013276D02*
X152033500Y-112522724D01*
X150988500Y-112013276D02*
X150988500Y-112522724D01*
%TO.C,R4*%
X144167776Y-96124500D02*
X144677224Y-96124500D01*
X144167776Y-97169500D02*
X144677224Y-97169500D01*
D13*
%TO.C,L1*%
X161958000Y-96329200D02*
X161958000Y-104229200D01*
X169258000Y-104229200D02*
X169258000Y-96329200D01*
D12*
%TO.C,R5*%
X144737064Y-99287000D02*
X144282936Y-99287000D01*
X144737064Y-97817000D02*
X144282936Y-97817000D01*
D13*
%TO.C,C5*%
X144233600Y-90906600D02*
X145633600Y-90906600D01*
D12*
%TO.C,J1*%
X137675600Y-94540800D02*
X138785600Y-94540800D01*
X137675600Y-95300800D02*
X137675600Y-94540800D01*
X137675600Y-96060800D02*
X137675600Y-104885800D01*
X137675600Y-96060800D02*
X138222129Y-96060800D01*
X137675600Y-104885800D02*
X138478070Y-104885800D01*
X139093130Y-104885800D02*
X139895600Y-104885800D01*
X139349071Y-96060800D02*
X139895600Y-96060800D01*
X139895600Y-96060800D02*
X139895600Y-104885800D01*
%TO.C,R6*%
X149605000Y-105623379D02*
X149605000Y-105958621D01*
X148845000Y-105623379D02*
X148845000Y-105958621D01*
D13*
%TO.C,C1*%
X160339000Y-97409000D02*
X158939000Y-97409000D01*
D12*
%TO.C,R3*%
X156703500Y-108712724D02*
X156703500Y-108203276D01*
X157748500Y-108712724D02*
X157748500Y-108203276D01*
%TO.C,R1*%
X153020500Y-107950724D02*
X153020500Y-107441276D01*
X154065500Y-107950724D02*
X154065500Y-107441276D01*
%TO.C,R7*%
X151002000Y-105750379D02*
X151002000Y-106085621D01*
X150242000Y-105750379D02*
X150242000Y-106085621D01*
%TO.C,J2*%
X147826000Y-110523000D02*
X147826000Y-111633000D01*
X147066000Y-110523000D02*
X147826000Y-110523000D01*
X146306000Y-110523000D02*
X141291000Y-110523000D01*
X146306000Y-110523000D02*
X146306000Y-111069529D01*
X141291000Y-110523000D02*
X141291000Y-111325470D01*
X141291000Y-111940530D02*
X141291000Y-112743000D01*
X146306000Y-112196471D02*
X146306000Y-112743000D01*
X146306000Y-112743000D02*
X141291000Y-112743000D01*
D14*
%TO.C,IC1*%
X154409000Y-103195000D02*
G75*
G03*
X154409000Y-103195000I-125000J0D01*
G01*
%TD*%
M02*
