M48
; DRILL file {KiCad 7.0.9-7.0.9~ubuntu22.04.1} date fre 22 dec 2023 20:55:00
; FORMAT={-:-/ absolute / inch / decimal}
; #@! TF.CreationDate,2023-12-22T20:55:00+01:00
; #@! TF.GenerationSoftware,Kicad,Pcbnew,7.0.9-7.0.9~ubuntu22.04.1
; #@! TF.FileFunction,Plated,1,4,PTH
FMAT,2
INCH
; #@! TA.AperFunction,Plated,PTH,ViaDrill
T1C0.0118
; #@! TA.AperFunction,Plated,PTH,ComponentDrill
T2C0.0256
; #@! TA.AperFunction,Plated,PTH,ComponentDrill
T3C0.0984
%
G90
G05
T1
X5.576Y-3.9
X5.578Y-4.1
X5.59Y-3.81
X5.592Y-3.638
X5.706Y-3.45
X5.733Y-3.947
X5.746Y-3.732
X5.784Y-3.702
X5.798Y-3.92
X5.8Y-3.85
X5.8Y-4.015
X5.81Y-4.0794
X5.841Y-4.49
X5.898Y-3.72
X5.91Y-3.972
X5.912Y-3.872
X5.912Y-3.924
X5.932Y-4.012
X5.934Y-3.83
X5.956Y-3.872
X5.956Y-3.924
X5.956Y-3.972
X5.96Y-3.72
X5.973Y-4.249
X5.978Y-3.83
X5.982Y-4.012
X6.002Y-3.924
X6.004Y-3.872
X6.004Y-3.972
X6.006Y-3.652
X6.028Y-3.726
X6.034Y-4.384
X6.042Y-4.456
X6.07Y-3.48
X6.07Y-3.53
X6.07Y-3.585
X6.07Y-3.64
X6.106Y-4.246
X6.149Y-3.858
X6.271Y-4.306
X6.286Y-4.065
X6.435Y-3.48
X6.435Y-3.53
X6.435Y-3.585
X6.435Y-3.64
X6.712Y-4.382
X6.78Y-4.381
X6.848Y-4.381
X6.916Y-4.382
T2
X5.464Y-3.752
X5.464Y-3.802
X5.464Y-3.852
X5.464Y-3.902
X5.464Y-3.952
X5.464Y-4.002
X5.464Y-4.052
X5.464Y-4.102
X5.59Y-4.395
X5.64Y-4.395
X5.69Y-4.395
X5.74Y-4.395
X5.79Y-4.395
T3
X6.118Y-3.3169
X6.38Y-3.31
T0
M30
