%TF.GenerationSoftware,KiCad,Pcbnew,7.0.9-7.0.9~ubuntu22.04.1*%
%TF.CreationDate,2023-12-22T20:55:06+01:00*%
%TF.ProjectId,driver_seperate,64726976-6572-45f7-9365-706572617465,rev?*%
%TF.SameCoordinates,Original*%
%TF.FileFunction,Copper,L3,Inr*%
%TF.FilePolarity,Positive*%
%FSLAX46Y46*%
G04 Gerber Fmt 4.6, Leading zero omitted, Abs format (unit mm)*
G04 Created by KiCad (PCBNEW 7.0.9-7.0.9~ubuntu22.04.1) date 2023-12-22 20:55:06*
%MOMM*%
%LPD*%
G01*
G04 APERTURE LIST*
%TA.AperFunction,ComponentPad*%
%ADD10C,5.000000*%
%TD*%
%TA.AperFunction,ComponentPad*%
%ADD11R,1.000000X1.000000*%
%TD*%
%TA.AperFunction,ComponentPad*%
%ADD12O,1.000000X1.000000*%
%TD*%
%TA.AperFunction,ViaPad*%
%ADD13C,0.400000*%
%TD*%
%TA.AperFunction,ViaPad*%
%ADD14C,0.600000*%
%TD*%
%TA.AperFunction,Conductor*%
%ADD15C,0.250000*%
%TD*%
G04 APERTURE END LIST*
D10*
%TO.N,GND*%
%TO.C,IN-1*%
X162052000Y-84074000D03*
%TD*%
D11*
%TO.N,/U*%
%TO.C,J1*%
X138785600Y-95300800D03*
D12*
%TO.N,/V*%
X138785600Y-96570800D03*
%TO.N,/W*%
X138785600Y-97840800D03*
%TO.N,GND*%
X138785600Y-99110800D03*
%TO.N,/H2*%
X138785600Y-100380800D03*
%TO.N,/H1*%
X138785600Y-101650800D03*
%TO.N,/H3*%
X138785600Y-102920800D03*
%TO.N,/SW_BK*%
X138785600Y-104190800D03*
%TD*%
D10*
%TO.N,/VM*%
%TO.C,IN+1*%
X155397200Y-84248800D03*
%TD*%
D11*
%TO.N,/FGOUT*%
%TO.C,J2*%
X147066000Y-111633000D03*
D12*
%TO.N,/PWM*%
X145796000Y-111633000D03*
%TO.N,/BRAKE*%
X144526000Y-111633000D03*
%TO.N,/DIR*%
X143256000Y-111633000D03*
%TO.N,/nFAULT*%
X141986000Y-111633000D03*
%TD*%
D13*
%TO.N,Net-(IC1-ILIM)*%
X151714200Y-107924600D03*
X153263600Y-111353600D03*
D14*
%TO.N,GND*%
X151841200Y-97282000D03*
D13*
X144932400Y-87630000D03*
D14*
X150164800Y-99669600D03*
D13*
X163449000Y-92456000D03*
D14*
X151282400Y-100888800D03*
D13*
X175666400Y-111302800D03*
X173939200Y-111277400D03*
X148361400Y-114046000D03*
X163449000Y-89662000D03*
D14*
X150672800Y-101904800D03*
X151942800Y-101904800D03*
D13*
X163449000Y-91059000D03*
D14*
X152450800Y-99669600D03*
D13*
X163449000Y-88392000D03*
X153466800Y-113182400D03*
D14*
X150114000Y-100888800D03*
X152501600Y-100888800D03*
D13*
X170484800Y-111302800D03*
X152552400Y-92760800D03*
D14*
X150723600Y-97282000D03*
X152501600Y-98348800D03*
X151282400Y-99669600D03*
X150164800Y-98348800D03*
D13*
X172212000Y-111277400D03*
D14*
X151282400Y-98348800D03*
D13*
%TO.N,/AVDD*%
X142036800Y-92405200D03*
X155092400Y-107848400D03*
X159283400Y-109372400D03*
X147269200Y-99568000D03*
X147320000Y-97790000D03*
X141986000Y-96774000D03*
X141630400Y-99060000D03*
X147574000Y-103615500D03*
%TO.N,/SW_BK*%
X141681200Y-104140000D03*
X159664400Y-103251000D03*
%TO.N,Net-(IC1-CP)*%
X146913600Y-94030800D03*
X156184600Y-97993200D03*
%TO.N,/VM*%
X154178000Y-91059000D03*
X154178000Y-92456000D03*
X154178000Y-88392000D03*
X154178000Y-89662000D03*
%TO.N,/W*%
X149809200Y-94488000D03*
%TO.N,/V*%
X151384000Y-94488000D03*
%TO.N,/U*%
X153111200Y-94640400D03*
%TO.N,/H3*%
X147320000Y-101981000D03*
%TO.N,/H1*%
X145618200Y-100253800D03*
%TO.N,/nFAULT*%
X145948400Y-94792800D03*
%TD*%
D15*
%TO.N,/H1*%
X145618200Y-100253800D02*
X145313400Y-99949000D01*
X145313400Y-99949000D02*
X140487400Y-99949000D01*
X140487400Y-99949000D02*
X138785600Y-101650800D01*
%TO.N,Net-(IC1-ILIM)*%
X152552400Y-108762800D02*
X152552400Y-110642400D01*
X152552400Y-110642400D02*
X153263600Y-111353600D01*
X151714200Y-107924600D02*
X152552400Y-108762800D01*
%TO.N,/SW_BK*%
X141681200Y-104140000D02*
X142036800Y-104495600D01*
X152806400Y-104495600D02*
X154051000Y-103251000D01*
X142036800Y-104495600D02*
X152806400Y-104495600D01*
X154051000Y-103251000D02*
X159664400Y-103251000D01*
%TO.N,Net-(IC1-CP)*%
X155143200Y-97993200D02*
X156184600Y-97993200D01*
X146913600Y-94030800D02*
X147421600Y-93522800D01*
X152247600Y-95097600D02*
X155143200Y-97993200D01*
X147421600Y-93522800D02*
X151384000Y-93522800D01*
X151384000Y-93522800D02*
X152247600Y-94386400D01*
X152247600Y-94386400D02*
X152247600Y-95097600D01*
%TO.N,/H3*%
X138836400Y-102870000D02*
X138785600Y-102920800D01*
X146431000Y-102870000D02*
X138836400Y-102870000D01*
X147320000Y-101981000D02*
X146431000Y-102870000D01*
%TO.N,/nFAULT*%
X143002000Y-94869000D02*
X141732000Y-93599000D01*
X137922000Y-93726000D02*
X137922000Y-107569000D01*
X137922000Y-107569000D02*
X141986000Y-111633000D01*
X141732000Y-93599000D02*
X138049000Y-93599000D01*
X145872200Y-94869000D02*
X143002000Y-94869000D01*
X145948400Y-94792800D02*
X145872200Y-94869000D01*
X138049000Y-93599000D02*
X137922000Y-93726000D01*
%TD*%
%TA.AperFunction,Conductor*%
%TO.N,/AVDD*%
G36*
X180536604Y-78581885D02*
G01*
X180582359Y-78634689D01*
X180593564Y-78686634D01*
X180471310Y-113578072D01*
X180467433Y-114684434D01*
X180447514Y-114751405D01*
X180394550Y-114796974D01*
X180343434Y-114808000D01*
X148884606Y-114808000D01*
X148817567Y-114788315D01*
X148771812Y-114735511D01*
X148761868Y-114666353D01*
X148790893Y-114602797D01*
X148802373Y-114591189D01*
X148889583Y-114513929D01*
X148986218Y-114373930D01*
X149046540Y-114214872D01*
X149067045Y-114046000D01*
X149046540Y-113877128D01*
X148986218Y-113718070D01*
X148889583Y-113578071D01*
X148762252Y-113465266D01*
X148762249Y-113465263D01*
X148611626Y-113386210D01*
X148446456Y-113345500D01*
X148276344Y-113345500D01*
X148111173Y-113386210D01*
X147960550Y-113465263D01*
X147833216Y-113578072D01*
X147736582Y-113718068D01*
X147676260Y-113877125D01*
X147676259Y-113877130D01*
X147655755Y-114046000D01*
X147676259Y-114214869D01*
X147676260Y-114214874D01*
X147736582Y-114373931D01*
X147798875Y-114464177D01*
X147833217Y-114513929D01*
X147920422Y-114591185D01*
X147957548Y-114650374D01*
X147956780Y-114720239D01*
X147918363Y-114778599D01*
X147854492Y-114806924D01*
X147838194Y-114808000D01*
X134744435Y-114808000D01*
X134677396Y-114788315D01*
X134631641Y-114735511D01*
X134620436Y-114683566D01*
X134625696Y-113182400D01*
X152761155Y-113182400D01*
X152781659Y-113351269D01*
X152781660Y-113351274D01*
X152841982Y-113510331D01*
X152888741Y-113578072D01*
X152938617Y-113650329D01*
X153015079Y-113718068D01*
X153065950Y-113763136D01*
X153216573Y-113842189D01*
X153216575Y-113842190D01*
X153381744Y-113882900D01*
X153551856Y-113882900D01*
X153717025Y-113842190D01*
X153796492Y-113800481D01*
X153867649Y-113763136D01*
X153867650Y-113763134D01*
X153867652Y-113763134D01*
X153994983Y-113650329D01*
X154091618Y-113510330D01*
X154151940Y-113351272D01*
X154172445Y-113182400D01*
X154151940Y-113013528D01*
X154091618Y-112854470D01*
X153994983Y-112714471D01*
X153867652Y-112601666D01*
X153867649Y-112601663D01*
X153717026Y-112522610D01*
X153551856Y-112481900D01*
X153381744Y-112481900D01*
X153216573Y-112522610D01*
X153065950Y-112601663D01*
X152938616Y-112714472D01*
X152841982Y-112854468D01*
X152781660Y-113013525D01*
X152781659Y-113013530D01*
X152761155Y-113182400D01*
X134625696Y-113182400D01*
X134671587Y-100084930D01*
X134693937Y-93706195D01*
X137291840Y-93706195D01*
X137296225Y-93752583D01*
X137296500Y-93758421D01*
X137296500Y-107486255D01*
X137294775Y-107501872D01*
X137295061Y-107501899D01*
X137294326Y-107509665D01*
X137296500Y-107578814D01*
X137296500Y-107608343D01*
X137296501Y-107608360D01*
X137297368Y-107615231D01*
X137297826Y-107621050D01*
X137299290Y-107667624D01*
X137299291Y-107667627D01*
X137304880Y-107686867D01*
X137308824Y-107705911D01*
X137311336Y-107725791D01*
X137328490Y-107769119D01*
X137330382Y-107774647D01*
X137343381Y-107819388D01*
X137353580Y-107836634D01*
X137362138Y-107854103D01*
X137369514Y-107872732D01*
X137396898Y-107910423D01*
X137400106Y-107915307D01*
X137423827Y-107955416D01*
X137423833Y-107955424D01*
X137437990Y-107969580D01*
X137450628Y-107984376D01*
X137462405Y-108000586D01*
X137462406Y-108000587D01*
X137498309Y-108030288D01*
X137502620Y-108034210D01*
X140096068Y-110627659D01*
X140950014Y-111481605D01*
X140983499Y-111542928D01*
X140985736Y-111581437D01*
X140980659Y-111632997D01*
X140980659Y-111632999D01*
X140999975Y-111829129D01*
X140999976Y-111829132D01*
X141055870Y-112013390D01*
X141057188Y-112017733D01*
X141150086Y-112191532D01*
X141150090Y-112191539D01*
X141275116Y-112343883D01*
X141427460Y-112468909D01*
X141427467Y-112468913D01*
X141601266Y-112561811D01*
X141601269Y-112561811D01*
X141601273Y-112561814D01*
X141789868Y-112619024D01*
X141986000Y-112638341D01*
X142182132Y-112619024D01*
X142370727Y-112561814D01*
X142544538Y-112468910D01*
X142544544Y-112468904D01*
X142549607Y-112465523D01*
X142550703Y-112467164D01*
X142606639Y-112443405D01*
X142675507Y-112455194D01*
X142692148Y-112465888D01*
X142692393Y-112465523D01*
X142697458Y-112468907D01*
X142697462Y-112468910D01*
X142842501Y-112546435D01*
X142869147Y-112560678D01*
X142871273Y-112561814D01*
X143059868Y-112619024D01*
X143256000Y-112638341D01*
X143452132Y-112619024D01*
X143640727Y-112561814D01*
X143814538Y-112468910D01*
X143814544Y-112468904D01*
X143819607Y-112465523D01*
X143820703Y-112467164D01*
X143876639Y-112443405D01*
X143945507Y-112455194D01*
X143962148Y-112465888D01*
X143962393Y-112465523D01*
X143967458Y-112468907D01*
X143967462Y-112468910D01*
X144112501Y-112546435D01*
X144139147Y-112560678D01*
X144141273Y-112561814D01*
X144329868Y-112619024D01*
X144526000Y-112638341D01*
X144722132Y-112619024D01*
X144910727Y-112561814D01*
X145084538Y-112468910D01*
X145084544Y-112468904D01*
X145089607Y-112465523D01*
X145090703Y-112467164D01*
X145146639Y-112443405D01*
X145215507Y-112455194D01*
X145232148Y-112465888D01*
X145232393Y-112465523D01*
X145237458Y-112468907D01*
X145237462Y-112468910D01*
X145382501Y-112546435D01*
X145409147Y-112560678D01*
X145411273Y-112561814D01*
X145599868Y-112619024D01*
X145796000Y-112638341D01*
X145992132Y-112619024D01*
X146180727Y-112561814D01*
X146182853Y-112560677D01*
X146184095Y-112560418D01*
X146186355Y-112559483D01*
X146186532Y-112559911D01*
X146251254Y-112546435D01*
X146315615Y-112570767D01*
X146323669Y-112576796D01*
X146323672Y-112576797D01*
X146458517Y-112627091D01*
X146458516Y-112627091D01*
X146465444Y-112627835D01*
X146518127Y-112633500D01*
X147613872Y-112633499D01*
X147673483Y-112627091D01*
X147808331Y-112576796D01*
X147923546Y-112490546D01*
X148009796Y-112375331D01*
X148060091Y-112240483D01*
X148066500Y-112180873D01*
X148066499Y-111085128D01*
X148061299Y-111036757D01*
X148060091Y-111025516D01*
X148009797Y-110890671D01*
X148009793Y-110890664D01*
X147923547Y-110775455D01*
X147923544Y-110775452D01*
X147808335Y-110689206D01*
X147808328Y-110689202D01*
X147673482Y-110638908D01*
X147673483Y-110638908D01*
X147613883Y-110632501D01*
X147613881Y-110632500D01*
X147613873Y-110632500D01*
X147613864Y-110632500D01*
X146518129Y-110632500D01*
X146518123Y-110632501D01*
X146458516Y-110638908D01*
X146323671Y-110689202D01*
X146323666Y-110689205D01*
X146315614Y-110695233D01*
X146250149Y-110719648D01*
X146186530Y-110706104D01*
X146186359Y-110706518D01*
X146184123Y-110705592D01*
X146182850Y-110705321D01*
X146180729Y-110704187D01*
X146180728Y-110704186D01*
X146180727Y-110704186D01*
X145992132Y-110646976D01*
X145992129Y-110646975D01*
X145796000Y-110627659D01*
X145599870Y-110646975D01*
X145411266Y-110704188D01*
X145237467Y-110797086D01*
X145232399Y-110800473D01*
X145231305Y-110798836D01*
X145175337Y-110822596D01*
X145106471Y-110810795D01*
X145089843Y-110800109D01*
X145089601Y-110800473D01*
X145084532Y-110797086D01*
X144910733Y-110704188D01*
X144910727Y-110704186D01*
X144784997Y-110666046D01*
X144722129Y-110646975D01*
X144526000Y-110627659D01*
X144329870Y-110646975D01*
X144141266Y-110704188D01*
X143967467Y-110797086D01*
X143962399Y-110800473D01*
X143961305Y-110798836D01*
X143905337Y-110822596D01*
X143836471Y-110810795D01*
X143819843Y-110800109D01*
X143819601Y-110800473D01*
X143814532Y-110797086D01*
X143640733Y-110704188D01*
X143640727Y-110704186D01*
X143514997Y-110666046D01*
X143452129Y-110646975D01*
X143256000Y-110627659D01*
X143059870Y-110646975D01*
X142871266Y-110704188D01*
X142697467Y-110797086D01*
X142692399Y-110800473D01*
X142691305Y-110798836D01*
X142635337Y-110822596D01*
X142566471Y-110810795D01*
X142549843Y-110800109D01*
X142549601Y-110800473D01*
X142544532Y-110797086D01*
X142370733Y-110704188D01*
X142370727Y-110704186D01*
X142244997Y-110666046D01*
X142182129Y-110646975D01*
X141986000Y-110627659D01*
X141934439Y-110632737D01*
X141865793Y-110619718D01*
X141834605Y-110597015D01*
X139162191Y-107924600D01*
X151008555Y-107924600D01*
X151029059Y-108093469D01*
X151029060Y-108093474D01*
X151089382Y-108252531D01*
X151123190Y-108301509D01*
X151186017Y-108392529D01*
X151313348Y-108505334D01*
X151463975Y-108584390D01*
X151464145Y-108584432D01*
X151464268Y-108584501D01*
X151470991Y-108587051D01*
X151470603Y-108588073D01*
X151522159Y-108617149D01*
X151890581Y-108985571D01*
X151924066Y-109046894D01*
X151926900Y-109073252D01*
X151926900Y-110559655D01*
X151925175Y-110575272D01*
X151925461Y-110575299D01*
X151924726Y-110583065D01*
X151926900Y-110652214D01*
X151926900Y-110681743D01*
X151926901Y-110681760D01*
X151927768Y-110688631D01*
X151928226Y-110694450D01*
X151929690Y-110741024D01*
X151929691Y-110741027D01*
X151935280Y-110760267D01*
X151939224Y-110779311D01*
X151941736Y-110799192D01*
X151945806Y-110809471D01*
X151958890Y-110842519D01*
X151960782Y-110848047D01*
X151973781Y-110892788D01*
X151983980Y-110910034D01*
X151992538Y-110927503D01*
X151999914Y-110946132D01*
X152027298Y-110983823D01*
X152030506Y-110988707D01*
X152054227Y-111028816D01*
X152054233Y-111028824D01*
X152068390Y-111042980D01*
X152081028Y-111057776D01*
X152092805Y-111073986D01*
X152092806Y-111073987D01*
X152128709Y-111103688D01*
X152133020Y-111107610D01*
X152379010Y-111353600D01*
X152578318Y-111552908D01*
X152606579Y-111596618D01*
X152638782Y-111681530D01*
X152638782Y-111681531D01*
X152700351Y-111770727D01*
X152735417Y-111821529D01*
X152805409Y-111883536D01*
X152862750Y-111934336D01*
X152994150Y-112003300D01*
X153013375Y-112013390D01*
X153178544Y-112054100D01*
X153348656Y-112054100D01*
X153513825Y-112013390D01*
X153610617Y-111962589D01*
X153664449Y-111934336D01*
X153664450Y-111934334D01*
X153664452Y-111934334D01*
X153791783Y-111821529D01*
X153888418Y-111681530D01*
X153948740Y-111522472D01*
X153969245Y-111353600D01*
X153963077Y-111302800D01*
X169779155Y-111302800D01*
X169799659Y-111471669D01*
X169799660Y-111471674D01*
X169859982Y-111630731D01*
X169922275Y-111720977D01*
X169956617Y-111770729D01*
X170062305Y-111864360D01*
X170083950Y-111883536D01*
X170234573Y-111962589D01*
X170234575Y-111962590D01*
X170399744Y-112003300D01*
X170569856Y-112003300D01*
X170735025Y-111962590D01*
X170814492Y-111920881D01*
X170885649Y-111883536D01*
X170885650Y-111883534D01*
X170885652Y-111883534D01*
X171012983Y-111770729D01*
X171109618Y-111630730D01*
X171169940Y-111471672D01*
X171190445Y-111302800D01*
X171187361Y-111277400D01*
X171506355Y-111277400D01*
X171526859Y-111446269D01*
X171526860Y-111446274D01*
X171587182Y-111605331D01*
X171606281Y-111633000D01*
X171683817Y-111745329D01*
X171789505Y-111838960D01*
X171811150Y-111858136D01*
X171956333Y-111934334D01*
X171961775Y-111937190D01*
X172126944Y-111977900D01*
X172297056Y-111977900D01*
X172462225Y-111937190D01*
X172564457Y-111883534D01*
X172612849Y-111858136D01*
X172612850Y-111858134D01*
X172612852Y-111858134D01*
X172740183Y-111745329D01*
X172836818Y-111605330D01*
X172897140Y-111446272D01*
X172917645Y-111277400D01*
X173233555Y-111277400D01*
X173254059Y-111446269D01*
X173254060Y-111446274D01*
X173314382Y-111605331D01*
X173333481Y-111633000D01*
X173411017Y-111745329D01*
X173516705Y-111838960D01*
X173538350Y-111858136D01*
X173683533Y-111934334D01*
X173688975Y-111937190D01*
X173854144Y-111977900D01*
X174024256Y-111977900D01*
X174189425Y-111937190D01*
X174291657Y-111883534D01*
X174340049Y-111858136D01*
X174340050Y-111858134D01*
X174340052Y-111858134D01*
X174467383Y-111745329D01*
X174564018Y-111605330D01*
X174624340Y-111446272D01*
X174641761Y-111302800D01*
X174960755Y-111302800D01*
X174981259Y-111471669D01*
X174981260Y-111471674D01*
X175041582Y-111630731D01*
X175103875Y-111720977D01*
X175138217Y-111770729D01*
X175243905Y-111864360D01*
X175265550Y-111883536D01*
X175416173Y-111962589D01*
X175416175Y-111962590D01*
X175581344Y-112003300D01*
X175751456Y-112003300D01*
X175916625Y-111962590D01*
X175996092Y-111920881D01*
X176067249Y-111883536D01*
X176067250Y-111883534D01*
X176067252Y-111883534D01*
X176194583Y-111770729D01*
X176291218Y-111630730D01*
X176351540Y-111471672D01*
X176372045Y-111302800D01*
X176351540Y-111133928D01*
X176291218Y-110974870D01*
X176271381Y-110946132D01*
X176233094Y-110890664D01*
X176194583Y-110834871D01*
X176067252Y-110722066D01*
X176067249Y-110722063D01*
X175916626Y-110643010D01*
X175751456Y-110602300D01*
X175581344Y-110602300D01*
X175416173Y-110643010D01*
X175265550Y-110722063D01*
X175138216Y-110834872D01*
X175041582Y-110974868D01*
X174981260Y-111133925D01*
X174981259Y-111133930D01*
X174960755Y-111302800D01*
X174641761Y-111302800D01*
X174644845Y-111277400D01*
X174624340Y-111108528D01*
X174622504Y-111103688D01*
X174564017Y-110949468D01*
X174494010Y-110848047D01*
X174467383Y-110809471D01*
X174351173Y-110706518D01*
X174340049Y-110696663D01*
X174189426Y-110617610D01*
X174024256Y-110576900D01*
X173854144Y-110576900D01*
X173688973Y-110617610D01*
X173538350Y-110696663D01*
X173411016Y-110809472D01*
X173314382Y-110949468D01*
X173254060Y-111108525D01*
X173254059Y-111108530D01*
X173233555Y-111277400D01*
X172917645Y-111277400D01*
X172897140Y-111108528D01*
X172895304Y-111103688D01*
X172836817Y-110949468D01*
X172766810Y-110848047D01*
X172740183Y-110809471D01*
X172623973Y-110706518D01*
X172612849Y-110696663D01*
X172462226Y-110617610D01*
X172297056Y-110576900D01*
X172126944Y-110576900D01*
X171961773Y-110617610D01*
X171811150Y-110696663D01*
X171683816Y-110809472D01*
X171587182Y-110949468D01*
X171526860Y-111108525D01*
X171526859Y-111108530D01*
X171506355Y-111277400D01*
X171187361Y-111277400D01*
X171169940Y-111133928D01*
X171109618Y-110974870D01*
X171089781Y-110946132D01*
X171051494Y-110890664D01*
X171012983Y-110834871D01*
X170885652Y-110722066D01*
X170885649Y-110722063D01*
X170735026Y-110643010D01*
X170569856Y-110602300D01*
X170399744Y-110602300D01*
X170234573Y-110643010D01*
X170083950Y-110722063D01*
X169956616Y-110834872D01*
X169859982Y-110974868D01*
X169799660Y-111133925D01*
X169799659Y-111133930D01*
X169779155Y-111302800D01*
X153963077Y-111302800D01*
X153948740Y-111184728D01*
X153888418Y-111025670D01*
X153888312Y-111025517D01*
X153853352Y-110974868D01*
X153791783Y-110885671D01*
X153671735Y-110779318D01*
X153664449Y-110772863D01*
X153513828Y-110693811D01*
X153513824Y-110693809D01*
X153513635Y-110693763D01*
X153513499Y-110693686D01*
X153506816Y-110691152D01*
X153507201Y-110690134D01*
X153455641Y-110661050D01*
X153214219Y-110419628D01*
X153180734Y-110358305D01*
X153177900Y-110331947D01*
X153177900Y-108845542D01*
X153179624Y-108829922D01*
X153179339Y-108829896D01*
X153180071Y-108822140D01*
X153180073Y-108822133D01*
X153177900Y-108752985D01*
X153177900Y-108723450D01*
X153177031Y-108716572D01*
X153176572Y-108710743D01*
X153175109Y-108664172D01*
X153169522Y-108644944D01*
X153165574Y-108625884D01*
X153163063Y-108606004D01*
X153145912Y-108562687D01*
X153144019Y-108557158D01*
X153131018Y-108512409D01*
X153131016Y-108512406D01*
X153120823Y-108495171D01*
X153112261Y-108477694D01*
X153104887Y-108459070D01*
X153104886Y-108459068D01*
X153077479Y-108421345D01*
X153074288Y-108416486D01*
X153050572Y-108376383D01*
X153050565Y-108376374D01*
X153036406Y-108362215D01*
X153023768Y-108347419D01*
X153011994Y-108331213D01*
X152976088Y-108301509D01*
X152971776Y-108297586D01*
X152399480Y-107725289D01*
X152371219Y-107681579D01*
X152347156Y-107618130D01*
X152339018Y-107596670D01*
X152242383Y-107456671D01*
X152147516Y-107372626D01*
X152115049Y-107343863D01*
X151964426Y-107264810D01*
X151799256Y-107224100D01*
X151629144Y-107224100D01*
X151463973Y-107264810D01*
X151313350Y-107343863D01*
X151186016Y-107456672D01*
X151089382Y-107596668D01*
X151029060Y-107755725D01*
X151029059Y-107755730D01*
X151008555Y-107924600D01*
X139162191Y-107924600D01*
X138583819Y-107346228D01*
X138550334Y-107284905D01*
X138547500Y-107258547D01*
X138547500Y-105309503D01*
X138567185Y-105242464D01*
X138619989Y-105196709D01*
X138683652Y-105186100D01*
X138785600Y-105196141D01*
X138981732Y-105176824D01*
X139170327Y-105119614D01*
X139172769Y-105118309D01*
X139283080Y-105059346D01*
X139344138Y-105026710D01*
X139496483Y-104901683D01*
X139621510Y-104749338D01*
X139714414Y-104575527D01*
X139771624Y-104386932D01*
X139790941Y-104190800D01*
X139771624Y-103994668D01*
X139714414Y-103806073D01*
X139645931Y-103677951D01*
X139631690Y-103609551D01*
X139656690Y-103544307D01*
X139712994Y-103502936D01*
X139755290Y-103495500D01*
X141038633Y-103495500D01*
X141105672Y-103515185D01*
X141151427Y-103567989D01*
X141161371Y-103637147D01*
X141140683Y-103689940D01*
X141056382Y-103812068D01*
X140996060Y-103971125D01*
X140996059Y-103971130D01*
X140975555Y-104140000D01*
X140996059Y-104308869D01*
X140996060Y-104308874D01*
X141056382Y-104467931D01*
X141118675Y-104558177D01*
X141153017Y-104607929D01*
X141280348Y-104720734D01*
X141430975Y-104799790D01*
X141431146Y-104799832D01*
X141431269Y-104799901D01*
X141437993Y-104802452D01*
X141437605Y-104803474D01*
X141489156Y-104832548D01*
X141535995Y-104879386D01*
X141545820Y-104891649D01*
X141546042Y-104891467D01*
X141551015Y-104897479D01*
X141601435Y-104944825D01*
X141622330Y-104965721D01*
X141627807Y-104969970D01*
X141632248Y-104973763D01*
X141666211Y-105005656D01*
X141666213Y-105005657D01*
X141666218Y-105005662D01*
X141683776Y-105015314D01*
X141700035Y-105025995D01*
X141715864Y-105038273D01*
X141758638Y-105056782D01*
X141763856Y-105059338D01*
X141804708Y-105081797D01*
X141824116Y-105086780D01*
X141842517Y-105093080D01*
X141860904Y-105101037D01*
X141904288Y-105107908D01*
X141906919Y-105108325D01*
X141912639Y-105109509D01*
X141957781Y-105121100D01*
X141977816Y-105121100D01*
X141997214Y-105122626D01*
X142016994Y-105125759D01*
X142016995Y-105125760D01*
X142016995Y-105125759D01*
X142016996Y-105125760D01*
X142063384Y-105121375D01*
X142069222Y-105121100D01*
X152723657Y-105121100D01*
X152739277Y-105122824D01*
X152739304Y-105122539D01*
X152747060Y-105123271D01*
X152747067Y-105123273D01*
X152816214Y-105121100D01*
X152845750Y-105121100D01*
X152852628Y-105120230D01*
X152858441Y-105119772D01*
X152905027Y-105118309D01*
X152924269Y-105112717D01*
X152943312Y-105108774D01*
X152963192Y-105106264D01*
X153006522Y-105089107D01*
X153012046Y-105087217D01*
X153015796Y-105086127D01*
X153056790Y-105074218D01*
X153074029Y-105064022D01*
X153091503Y-105055462D01*
X153110127Y-105048088D01*
X153110127Y-105048087D01*
X153110132Y-105048086D01*
X153147849Y-105020682D01*
X153152705Y-105017492D01*
X153192820Y-104993770D01*
X153206989Y-104979599D01*
X153221779Y-104966968D01*
X153237987Y-104955194D01*
X153267699Y-104919276D01*
X153271612Y-104914976D01*
X154273772Y-103912819D01*
X154335095Y-103879334D01*
X154361453Y-103876500D01*
X159318279Y-103876500D01*
X159375904Y-103890703D01*
X159414175Y-103910790D01*
X159579344Y-103951500D01*
X159749456Y-103951500D01*
X159914625Y-103910790D01*
X160029659Y-103850415D01*
X160065249Y-103831736D01*
X160065250Y-103831734D01*
X160065252Y-103831734D01*
X160192583Y-103718929D01*
X160289218Y-103578930D01*
X160349540Y-103419872D01*
X160370045Y-103251000D01*
X160349540Y-103082128D01*
X160289218Y-102923070D01*
X160192583Y-102783071D01*
X160068958Y-102673549D01*
X160065249Y-102670263D01*
X159914626Y-102591210D01*
X159749456Y-102550500D01*
X159579344Y-102550500D01*
X159414175Y-102591209D01*
X159389162Y-102604337D01*
X159375904Y-102611296D01*
X159318279Y-102625500D01*
X154133737Y-102625500D01*
X154118120Y-102623776D01*
X154118093Y-102624062D01*
X154110331Y-102623327D01*
X154041203Y-102625500D01*
X154011650Y-102625500D01*
X154010929Y-102625590D01*
X154004757Y-102626369D01*
X153998945Y-102626826D01*
X153952373Y-102628290D01*
X153952372Y-102628290D01*
X153933129Y-102633881D01*
X153914079Y-102637825D01*
X153894211Y-102640334D01*
X153894209Y-102640335D01*
X153850884Y-102657488D01*
X153845357Y-102659380D01*
X153800610Y-102672381D01*
X153800609Y-102672382D01*
X153783367Y-102682579D01*
X153765899Y-102691137D01*
X153747269Y-102698513D01*
X153747267Y-102698514D01*
X153709576Y-102725898D01*
X153704694Y-102729105D01*
X153664579Y-102752830D01*
X153650408Y-102767000D01*
X153635623Y-102779628D01*
X153619412Y-102791407D01*
X153589709Y-102827310D01*
X153585776Y-102831631D01*
X153070304Y-103347105D01*
X152583628Y-103833781D01*
X152522305Y-103867266D01*
X152495947Y-103870100D01*
X142411153Y-103870100D01*
X142344114Y-103850415D01*
X142309103Y-103816540D01*
X142306016Y-103812068D01*
X142221716Y-103689939D01*
X142199834Y-103623586D01*
X142217299Y-103555934D01*
X142268567Y-103508464D01*
X142323767Y-103495500D01*
X146348257Y-103495500D01*
X146363877Y-103497224D01*
X146363904Y-103496939D01*
X146371660Y-103497671D01*
X146371667Y-103497673D01*
X146440814Y-103495500D01*
X146470350Y-103495500D01*
X146477228Y-103494630D01*
X146483041Y-103494172D01*
X146529627Y-103492709D01*
X146548869Y-103487117D01*
X146567912Y-103483174D01*
X146587792Y-103480664D01*
X146631122Y-103463507D01*
X146636646Y-103461617D01*
X146640396Y-103460527D01*
X146681390Y-103448618D01*
X146698629Y-103438422D01*
X146716103Y-103429862D01*
X146734727Y-103422488D01*
X146734727Y-103422487D01*
X146734732Y-103422486D01*
X146772449Y-103395082D01*
X146777305Y-103391892D01*
X146817420Y-103368170D01*
X146831589Y-103353999D01*
X146846379Y-103341368D01*
X146862587Y-103329594D01*
X146892299Y-103293676D01*
X146896212Y-103289376D01*
X147512042Y-102673547D01*
X147563597Y-102644474D01*
X147563209Y-102643451D01*
X147569940Y-102640897D01*
X147570059Y-102640830D01*
X147570225Y-102640790D01*
X147720852Y-102561734D01*
X147848183Y-102448929D01*
X147944818Y-102308930D01*
X148005140Y-102149872D01*
X148025645Y-101981000D01*
X148005140Y-101812128D01*
X147944818Y-101653070D01*
X147848183Y-101513071D01*
X147720852Y-101400266D01*
X147720849Y-101400263D01*
X147570226Y-101321210D01*
X147405056Y-101280500D01*
X147234944Y-101280500D01*
X147069773Y-101321210D01*
X146919150Y-101400263D01*
X146791816Y-101513072D01*
X146695183Y-101653067D01*
X146662979Y-101737981D01*
X146634718Y-101781690D01*
X146208228Y-102208181D01*
X146146905Y-102241666D01*
X146120547Y-102244500D01*
X139809597Y-102244500D01*
X139742558Y-102224815D01*
X139696803Y-102172011D01*
X139686859Y-102102853D01*
X139700239Y-102062046D01*
X139714412Y-102035530D01*
X139714414Y-102035527D01*
X139771624Y-101846932D01*
X139790941Y-101650800D01*
X139785862Y-101599237D01*
X139798880Y-101530594D01*
X139821581Y-101499407D01*
X140710171Y-100610819D01*
X140771494Y-100577334D01*
X140797852Y-100574500D01*
X144923311Y-100574500D01*
X144990350Y-100594185D01*
X145025360Y-100628058D01*
X145090017Y-100721729D01*
X145191272Y-100811433D01*
X145217350Y-100834536D01*
X145367973Y-100913589D01*
X145367975Y-100913590D01*
X145533144Y-100954300D01*
X145703256Y-100954300D01*
X145868425Y-100913590D01*
X145915651Y-100888803D01*
X149308435Y-100888803D01*
X149328630Y-101068049D01*
X149328631Y-101068054D01*
X149388211Y-101238323D01*
X149414713Y-101280500D01*
X149484184Y-101391062D01*
X149611738Y-101518616D01*
X149630801Y-101530594D01*
X149764477Y-101614589D01*
X149801456Y-101627528D01*
X149858233Y-101668249D01*
X149883981Y-101733202D01*
X149883723Y-101758453D01*
X149867235Y-101904795D01*
X149867235Y-101904803D01*
X149887430Y-102084049D01*
X149887431Y-102084054D01*
X149947011Y-102254323D01*
X149981324Y-102308931D01*
X150042984Y-102407062D01*
X150170538Y-102534616D01*
X150213696Y-102561734D01*
X150319620Y-102628291D01*
X150323278Y-102630589D01*
X150442713Y-102672381D01*
X150493545Y-102690168D01*
X150493550Y-102690169D01*
X150672796Y-102710365D01*
X150672800Y-102710365D01*
X150672804Y-102710365D01*
X150852049Y-102690169D01*
X150852052Y-102690168D01*
X150852055Y-102690168D01*
X151022322Y-102630589D01*
X151175062Y-102534616D01*
X151220119Y-102489559D01*
X151281442Y-102456074D01*
X151351134Y-102461058D01*
X151395481Y-102489559D01*
X151440538Y-102534616D01*
X151483696Y-102561734D01*
X151589620Y-102628291D01*
X151593278Y-102630589D01*
X151712713Y-102672381D01*
X151763545Y-102690168D01*
X151763550Y-102690169D01*
X151942796Y-102710365D01*
X151942800Y-102710365D01*
X151942804Y-102710365D01*
X152122049Y-102690169D01*
X152122052Y-102690168D01*
X152122055Y-102690168D01*
X152292322Y-102630589D01*
X152445062Y-102534616D01*
X152572616Y-102407062D01*
X152668589Y-102254322D01*
X152728168Y-102084055D01*
X152730648Y-102062046D01*
X152748365Y-101904803D01*
X152748365Y-101904797D01*
X152731876Y-101758454D01*
X152743930Y-101689632D01*
X152791279Y-101638252D01*
X152814140Y-101627529D01*
X152851122Y-101614589D01*
X153003862Y-101518616D01*
X153131416Y-101391062D01*
X153227389Y-101238322D01*
X153286968Y-101068055D01*
X153307165Y-100888800D01*
X153286968Y-100709545D01*
X153227389Y-100539278D01*
X153131416Y-100386538D01*
X153086267Y-100341389D01*
X153052782Y-100280066D01*
X153057766Y-100210374D01*
X153077000Y-100176396D01*
X153080607Y-100171870D01*
X153080616Y-100171862D01*
X153176589Y-100019122D01*
X153236168Y-99848855D01*
X153236169Y-99848849D01*
X153256365Y-99669603D01*
X153256365Y-99669596D01*
X153236169Y-99490350D01*
X153236168Y-99490345D01*
X153213520Y-99425622D01*
X153176589Y-99320078D01*
X153080616Y-99167338D01*
X153035559Y-99122281D01*
X153002074Y-99060958D01*
X153007058Y-98991266D01*
X153035559Y-98946919D01*
X153067810Y-98914668D01*
X153131416Y-98851062D01*
X153227389Y-98698322D01*
X153286968Y-98528055D01*
X153286969Y-98528049D01*
X153307165Y-98348803D01*
X153307165Y-98348796D01*
X153286969Y-98169550D01*
X153286968Y-98169545D01*
X153284352Y-98162069D01*
X153227389Y-97999278D01*
X153131416Y-97846538D01*
X153003862Y-97718984D01*
X152918374Y-97665268D01*
X152851121Y-97623010D01*
X152780940Y-97598453D01*
X152710887Y-97573940D01*
X152654113Y-97533220D01*
X152628365Y-97468268D01*
X152628623Y-97443016D01*
X152646765Y-97282002D01*
X152646765Y-97281996D01*
X152626569Y-97102750D01*
X152626568Y-97102745D01*
X152566988Y-96932476D01*
X152471015Y-96779737D01*
X152343462Y-96652184D01*
X152190723Y-96556211D01*
X152020454Y-96496631D01*
X152020449Y-96496630D01*
X151841204Y-96476435D01*
X151841196Y-96476435D01*
X151661950Y-96496630D01*
X151661945Y-96496631D01*
X151491676Y-96556211D01*
X151348372Y-96646256D01*
X151281135Y-96665256D01*
X151216428Y-96646256D01*
X151073123Y-96556211D01*
X150902854Y-96496631D01*
X150902849Y-96496630D01*
X150723604Y-96476435D01*
X150723596Y-96476435D01*
X150544350Y-96496630D01*
X150544345Y-96496631D01*
X150374076Y-96556211D01*
X150221337Y-96652184D01*
X150093784Y-96779737D01*
X149997811Y-96932476D01*
X149938231Y-97102745D01*
X149938230Y-97102750D01*
X149918035Y-97281996D01*
X149918035Y-97282003D01*
X149938232Y-97461262D01*
X149938671Y-97463186D01*
X149938592Y-97464462D01*
X149939011Y-97468175D01*
X149938360Y-97468248D01*
X149934390Y-97532924D01*
X149893084Y-97589277D01*
X149858733Y-97607805D01*
X149815276Y-97623011D01*
X149815275Y-97623012D01*
X149662537Y-97718984D01*
X149534984Y-97846537D01*
X149439011Y-97999276D01*
X149379431Y-98169545D01*
X149379430Y-98169550D01*
X149359235Y-98348796D01*
X149359235Y-98348803D01*
X149379430Y-98528049D01*
X149379431Y-98528054D01*
X149439011Y-98698323D01*
X149534984Y-98851062D01*
X149605441Y-98921519D01*
X149638926Y-98982842D01*
X149633942Y-99052534D01*
X149605441Y-99096881D01*
X149534984Y-99167337D01*
X149439011Y-99320076D01*
X149379431Y-99490345D01*
X149379430Y-99490350D01*
X149359235Y-99669596D01*
X149359235Y-99669603D01*
X149379430Y-99848849D01*
X149379431Y-99848854D01*
X149439011Y-100019123D01*
X149480361Y-100084930D01*
X149534983Y-100171861D01*
X149534985Y-100171863D01*
X149538596Y-100176391D01*
X149565007Y-100241076D01*
X149552254Y-100309772D01*
X149529334Y-100341387D01*
X149484184Y-100386537D01*
X149388211Y-100539276D01*
X149328631Y-100709545D01*
X149328630Y-100709550D01*
X149308435Y-100888796D01*
X149308435Y-100888803D01*
X145915651Y-100888803D01*
X145947892Y-100871881D01*
X146019049Y-100834536D01*
X146019050Y-100834534D01*
X146019052Y-100834534D01*
X146146383Y-100721729D01*
X146243018Y-100581730D01*
X146303340Y-100422672D01*
X146323845Y-100253800D01*
X146303340Y-100084928D01*
X146243018Y-99925870D01*
X146220099Y-99892667D01*
X146171502Y-99822262D01*
X146146383Y-99785871D01*
X146019052Y-99673066D01*
X146019049Y-99673063D01*
X145868428Y-99594011D01*
X145861416Y-99591352D01*
X145862014Y-99589773D01*
X145809547Y-99559215D01*
X145804070Y-99553026D01*
X145799187Y-99547124D01*
X145780559Y-99529631D01*
X145748764Y-99499773D01*
X145738319Y-99489328D01*
X145727875Y-99478883D01*
X145722386Y-99474625D01*
X145717961Y-99470847D01*
X145683982Y-99438938D01*
X145683980Y-99438936D01*
X145683977Y-99438935D01*
X145666429Y-99429288D01*
X145650163Y-99418604D01*
X145634333Y-99406325D01*
X145591568Y-99387818D01*
X145586322Y-99385248D01*
X145545493Y-99362803D01*
X145545492Y-99362802D01*
X145526093Y-99357822D01*
X145507681Y-99351518D01*
X145489298Y-99343562D01*
X145489292Y-99343560D01*
X145443274Y-99336272D01*
X145437552Y-99335087D01*
X145392421Y-99323500D01*
X145392419Y-99323500D01*
X145372384Y-99323500D01*
X145352986Y-99321973D01*
X145341008Y-99320076D01*
X145333205Y-99318840D01*
X145333204Y-99318840D01*
X145286816Y-99323225D01*
X145280978Y-99323500D01*
X140570143Y-99323500D01*
X140554522Y-99321775D01*
X140554495Y-99322061D01*
X140546733Y-99321326D01*
X140477572Y-99323500D01*
X140448049Y-99323500D01*
X140441178Y-99324367D01*
X140435359Y-99324825D01*
X140388774Y-99326289D01*
X140388768Y-99326290D01*
X140369526Y-99331880D01*
X140350487Y-99335823D01*
X140330617Y-99338334D01*
X140330603Y-99338337D01*
X140287283Y-99355488D01*
X140281758Y-99357380D01*
X140237013Y-99370380D01*
X140237010Y-99370381D01*
X140219766Y-99380579D01*
X140202305Y-99389133D01*
X140183674Y-99396510D01*
X140183662Y-99396517D01*
X140145970Y-99423902D01*
X140141087Y-99427109D01*
X140100980Y-99450829D01*
X140086814Y-99464995D01*
X140072024Y-99477627D01*
X140055814Y-99489404D01*
X140055811Y-99489407D01*
X140026110Y-99525309D01*
X140022177Y-99529631D01*
X139912952Y-99638856D01*
X139851629Y-99672341D01*
X139781937Y-99667357D01*
X139726004Y-99625485D01*
X139701587Y-99560021D01*
X139713959Y-99501936D01*
X139712082Y-99501159D01*
X139714409Y-99495539D01*
X139714410Y-99495532D01*
X139714414Y-99495527D01*
X139771624Y-99306932D01*
X139790941Y-99110800D01*
X139771624Y-98914668D01*
X139714414Y-98726073D01*
X139621510Y-98552262D01*
X139621507Y-98552258D01*
X139618123Y-98547193D01*
X139619764Y-98546096D01*
X139596005Y-98490161D01*
X139607794Y-98421293D01*
X139618488Y-98404651D01*
X139618123Y-98404407D01*
X139621504Y-98399344D01*
X139621510Y-98399338D01*
X139714414Y-98225527D01*
X139771624Y-98036932D01*
X139790941Y-97840800D01*
X139771624Y-97644668D01*
X139714414Y-97456073D01*
X139621510Y-97282262D01*
X139621507Y-97282258D01*
X139618123Y-97277193D01*
X139619764Y-97276096D01*
X139596005Y-97220161D01*
X139607794Y-97151293D01*
X139618488Y-97134651D01*
X139618123Y-97134407D01*
X139621504Y-97129344D01*
X139621510Y-97129338D01*
X139714414Y-96955527D01*
X139771624Y-96766932D01*
X139790941Y-96570800D01*
X139771624Y-96374668D01*
X139714414Y-96186073D01*
X139713277Y-96183946D01*
X139713018Y-96182704D01*
X139712083Y-96180445D01*
X139712511Y-96180267D01*
X139699035Y-96115546D01*
X139723371Y-96051179D01*
X139729396Y-96043131D01*
X139779691Y-95908283D01*
X139786100Y-95848673D01*
X139786099Y-94752928D01*
X139779691Y-94693317D01*
X139779553Y-94692948D01*
X139729397Y-94558471D01*
X139729393Y-94558464D01*
X139643147Y-94443255D01*
X139636875Y-94436983D01*
X139639289Y-94434568D01*
X139607297Y-94391816D01*
X139602323Y-94322123D01*
X139635817Y-94260805D01*
X139697146Y-94227330D01*
X139723485Y-94224500D01*
X141421548Y-94224500D01*
X141488587Y-94244185D01*
X141509228Y-94260818D01*
X142014505Y-94766096D01*
X142501197Y-95252788D01*
X142511022Y-95265051D01*
X142511243Y-95264869D01*
X142516214Y-95270878D01*
X142542217Y-95295295D01*
X142566635Y-95318226D01*
X142587529Y-95339120D01*
X142593011Y-95343373D01*
X142597443Y-95347157D01*
X142631418Y-95379062D01*
X142648976Y-95388714D01*
X142665235Y-95399395D01*
X142681064Y-95411673D01*
X142723838Y-95430182D01*
X142729056Y-95432738D01*
X142769908Y-95455197D01*
X142789316Y-95460180D01*
X142807717Y-95466480D01*
X142826104Y-95474437D01*
X142869488Y-95481308D01*
X142872119Y-95481725D01*
X142877839Y-95482909D01*
X142922981Y-95494500D01*
X142943016Y-95494500D01*
X142962414Y-95496026D01*
X142982194Y-95499159D01*
X142982195Y-95499160D01*
X142982195Y-95499159D01*
X142982196Y-95499160D01*
X143028584Y-95494775D01*
X143034422Y-95494500D01*
X145789457Y-95494500D01*
X145805077Y-95496224D01*
X145805104Y-95495939D01*
X145812860Y-95496671D01*
X145812867Y-95496673D01*
X145882014Y-95494500D01*
X145911550Y-95494500D01*
X145911553Y-95494499D01*
X145911560Y-95494499D01*
X145917171Y-95493790D01*
X145924953Y-95493300D01*
X146033456Y-95493300D01*
X146198625Y-95452590D01*
X146299977Y-95399396D01*
X146349249Y-95373536D01*
X146349250Y-95373534D01*
X146349252Y-95373534D01*
X146476583Y-95260729D01*
X146573218Y-95120730D01*
X146633540Y-94961672D01*
X146649495Y-94830271D01*
X146677115Y-94766096D01*
X146735049Y-94727039D01*
X146802264Y-94724823D01*
X146811256Y-94727039D01*
X146828542Y-94731299D01*
X146828543Y-94731300D01*
X146828544Y-94731300D01*
X146998656Y-94731300D01*
X147163825Y-94690590D01*
X147259453Y-94640400D01*
X147314449Y-94611536D01*
X147314450Y-94611534D01*
X147314452Y-94611534D01*
X147441783Y-94498729D01*
X147538418Y-94358730D01*
X147570619Y-94273820D01*
X147598881Y-94230109D01*
X147644375Y-94184617D01*
X147705699Y-94151133D01*
X147732054Y-94148300D01*
X149009202Y-94148300D01*
X149076241Y-94167985D01*
X149121996Y-94220789D01*
X149131940Y-94289947D01*
X149125142Y-94316275D01*
X149124061Y-94319124D01*
X149124059Y-94319130D01*
X149103555Y-94488000D01*
X149124059Y-94656869D01*
X149124060Y-94656874D01*
X149184382Y-94815931D01*
X149246675Y-94906177D01*
X149281017Y-94955929D01*
X149386705Y-95049560D01*
X149408350Y-95068736D01*
X149558973Y-95147789D01*
X149558975Y-95147790D01*
X149724144Y-95188500D01*
X149894256Y-95188500D01*
X150059425Y-95147790D01*
X150138892Y-95106081D01*
X150210049Y-95068736D01*
X150210050Y-95068734D01*
X150210052Y-95068734D01*
X150337383Y-94955929D01*
X150434018Y-94815930D01*
X150480658Y-94692947D01*
X150522835Y-94637246D01*
X150588433Y-94613188D01*
X150656623Y-94628415D01*
X150705757Y-94678090D01*
X150712539Y-94692943D01*
X150734803Y-94751648D01*
X150759182Y-94815931D01*
X150821475Y-94906177D01*
X150855817Y-94955929D01*
X150961505Y-95049560D01*
X150983150Y-95068736D01*
X151133773Y-95147789D01*
X151133775Y-95147790D01*
X151298944Y-95188500D01*
X151469054Y-95188500D01*
X151469056Y-95188500D01*
X151493126Y-95182567D01*
X151562927Y-95185636D01*
X151619990Y-95225955D01*
X151638093Y-95257317D01*
X151654089Y-95297718D01*
X151655982Y-95303246D01*
X151668981Y-95347988D01*
X151679180Y-95365234D01*
X151687736Y-95382700D01*
X151695114Y-95401332D01*
X151717937Y-95432746D01*
X151722498Y-95439023D01*
X151725706Y-95443907D01*
X151749427Y-95484016D01*
X151749433Y-95484024D01*
X151763590Y-95498180D01*
X151776228Y-95512976D01*
X151788005Y-95529186D01*
X151788006Y-95529187D01*
X151823909Y-95558888D01*
X151828220Y-95562810D01*
X153368155Y-97102745D01*
X154642394Y-98376984D01*
X154652219Y-98389248D01*
X154652440Y-98389066D01*
X154657410Y-98395073D01*
X154657413Y-98395076D01*
X154657414Y-98395077D01*
X154707851Y-98442441D01*
X154726537Y-98461127D01*
X154728729Y-98463319D01*
X154734204Y-98467566D01*
X154738646Y-98471360D01*
X154772615Y-98503260D01*
X154772617Y-98503261D01*
X154772618Y-98503262D01*
X154790176Y-98512914D01*
X154806437Y-98523596D01*
X154822264Y-98535873D01*
X154865023Y-98554376D01*
X154870273Y-98556948D01*
X154911104Y-98579395D01*
X154911108Y-98579397D01*
X154911112Y-98579398D01*
X154930511Y-98584379D01*
X154948922Y-98590683D01*
X154967297Y-98598635D01*
X154967300Y-98598635D01*
X154967305Y-98598638D01*
X155013349Y-98605929D01*
X155019032Y-98607106D01*
X155064181Y-98618700D01*
X155084216Y-98618700D01*
X155103613Y-98620226D01*
X155123396Y-98623360D01*
X155169784Y-98618975D01*
X155175622Y-98618700D01*
X155838479Y-98618700D01*
X155896104Y-98632903D01*
X155934375Y-98652990D01*
X156099544Y-98693700D01*
X156269656Y-98693700D01*
X156434825Y-98652990D01*
X156560929Y-98586805D01*
X156585449Y-98573936D01*
X156585450Y-98573934D01*
X156585452Y-98573934D01*
X156712783Y-98461129D01*
X156809418Y-98321130D01*
X156869740Y-98162072D01*
X156890245Y-97993200D01*
X156869740Y-97824328D01*
X156809418Y-97665270D01*
X156795197Y-97644668D01*
X156775076Y-97615518D01*
X156712783Y-97525271D01*
X156585452Y-97412466D01*
X156585449Y-97412463D01*
X156434826Y-97333410D01*
X156269656Y-97292700D01*
X156099544Y-97292700D01*
X155934375Y-97333409D01*
X155909362Y-97346537D01*
X155896104Y-97353496D01*
X155838479Y-97367700D01*
X155453652Y-97367700D01*
X155386613Y-97348015D01*
X155365971Y-97331381D01*
X153463113Y-95428522D01*
X153429628Y-95367199D01*
X153434612Y-95297507D01*
X153476484Y-95241574D01*
X153493159Y-95231049D01*
X153512052Y-95221134D01*
X153639383Y-95108329D01*
X153736018Y-94968330D01*
X153796340Y-94809272D01*
X153816845Y-94640400D01*
X153796340Y-94471528D01*
X153736018Y-94312470D01*
X153732041Y-94306709D01*
X153700356Y-94260805D01*
X153639383Y-94172471D01*
X153512052Y-94059666D01*
X153512049Y-94059663D01*
X153361426Y-93980610D01*
X153196256Y-93939900D01*
X153026144Y-93939900D01*
X152860973Y-93980610D01*
X152860968Y-93980612D01*
X152857661Y-93982348D01*
X152854973Y-93982886D01*
X152853964Y-93983269D01*
X152853900Y-93983101D01*
X152789152Y-93996068D01*
X152724101Y-93970570D01*
X152709653Y-93957431D01*
X152707194Y-93954812D01*
X152671288Y-93925109D01*
X152666976Y-93921186D01*
X152418770Y-93672980D01*
X152385286Y-93611658D01*
X152390270Y-93541966D01*
X152432142Y-93486033D01*
X152497606Y-93461616D01*
X152506452Y-93461300D01*
X152637456Y-93461300D01*
X152802625Y-93420590D01*
X152904097Y-93367333D01*
X152953249Y-93341536D01*
X152953250Y-93341534D01*
X152953252Y-93341534D01*
X153080583Y-93228729D01*
X153177218Y-93088730D01*
X153237540Y-92929672D01*
X153258045Y-92760800D01*
X153237540Y-92591928D01*
X153185990Y-92456000D01*
X153472355Y-92456000D01*
X153492859Y-92624869D01*
X153492860Y-92624874D01*
X153553182Y-92783931D01*
X153593583Y-92842461D01*
X153649817Y-92923929D01*
X153743095Y-93006566D01*
X153777150Y-93036736D01*
X153904227Y-93103431D01*
X153927775Y-93115790D01*
X154092944Y-93156500D01*
X154263056Y-93156500D01*
X154428225Y-93115790D01*
X154508662Y-93073573D01*
X154578849Y-93036736D01*
X154578850Y-93036734D01*
X154578852Y-93036734D01*
X154706183Y-92923929D01*
X154802818Y-92783930D01*
X154863140Y-92624872D01*
X154883645Y-92456000D01*
X162743355Y-92456000D01*
X162763859Y-92624869D01*
X162763860Y-92624874D01*
X162824182Y-92783931D01*
X162864583Y-92842461D01*
X162920817Y-92923929D01*
X163014095Y-93006566D01*
X163048150Y-93036736D01*
X163175227Y-93103431D01*
X163198775Y-93115790D01*
X163363944Y-93156500D01*
X163534056Y-93156500D01*
X163699225Y-93115790D01*
X163779662Y-93073573D01*
X163849849Y-93036736D01*
X163849850Y-93036734D01*
X163849852Y-93036734D01*
X163977183Y-92923929D01*
X164073818Y-92783930D01*
X164134140Y-92624872D01*
X164154645Y-92456000D01*
X164134140Y-92287128D01*
X164073818Y-92128070D01*
X163977183Y-91988071D01*
X163849852Y-91875266D01*
X163834667Y-91867296D01*
X163784455Y-91818713D01*
X163768480Y-91750694D01*
X163791815Y-91684836D01*
X163834667Y-91647703D01*
X163849852Y-91639734D01*
X163977183Y-91526929D01*
X164073818Y-91386930D01*
X164134140Y-91227872D01*
X164154645Y-91059000D01*
X164134140Y-90890128D01*
X164073818Y-90731070D01*
X163977183Y-90591071D01*
X163849852Y-90478266D01*
X163834667Y-90470296D01*
X163784455Y-90421713D01*
X163768480Y-90353694D01*
X163791815Y-90287836D01*
X163834667Y-90250703D01*
X163849852Y-90242734D01*
X163977183Y-90129929D01*
X164073818Y-89989930D01*
X164134140Y-89830872D01*
X164154645Y-89662000D01*
X164134140Y-89493128D01*
X164073818Y-89334070D01*
X163977183Y-89194071D01*
X163893363Y-89119813D01*
X163856238Y-89060626D01*
X163857006Y-88990761D01*
X163893363Y-88934186D01*
X163977183Y-88859929D01*
X164073818Y-88719930D01*
X164134140Y-88560872D01*
X164154645Y-88392000D01*
X164134140Y-88223128D01*
X164129440Y-88210736D01*
X164073817Y-88064068D01*
X164000554Y-87957930D01*
X163977183Y-87924071D01*
X163849852Y-87811266D01*
X163849849Y-87811263D01*
X163699226Y-87732210D01*
X163534056Y-87691500D01*
X163363944Y-87691500D01*
X163198773Y-87732210D01*
X163048150Y-87811263D01*
X162920816Y-87924072D01*
X162824182Y-88064068D01*
X162763860Y-88223125D01*
X162763859Y-88223130D01*
X162743355Y-88392000D01*
X162763859Y-88560869D01*
X162763860Y-88560874D01*
X162824182Y-88719931D01*
X162920818Y-88859930D01*
X163004634Y-88934185D01*
X163041761Y-88993374D01*
X163040993Y-89063240D01*
X163004634Y-89119815D01*
X162920818Y-89194069D01*
X162824182Y-89334068D01*
X162763860Y-89493125D01*
X162763859Y-89493130D01*
X162743355Y-89662000D01*
X162763859Y-89830869D01*
X162763860Y-89830874D01*
X162824182Y-89989931D01*
X162886475Y-90080177D01*
X162920817Y-90129929D01*
X163048148Y-90242734D01*
X163058974Y-90248416D01*
X163063333Y-90250704D01*
X163113545Y-90299289D01*
X163129519Y-90367309D01*
X163106183Y-90433166D01*
X163063333Y-90470296D01*
X163048149Y-90478265D01*
X162920816Y-90591072D01*
X162824182Y-90731068D01*
X162763860Y-90890125D01*
X162763859Y-90890130D01*
X162743355Y-91059000D01*
X162763859Y-91227869D01*
X162763860Y-91227874D01*
X162824182Y-91386931D01*
X162886475Y-91477177D01*
X162920817Y-91526929D01*
X163048148Y-91639734D01*
X163058974Y-91645416D01*
X163063333Y-91647704D01*
X163113545Y-91696289D01*
X163129519Y-91764309D01*
X163106183Y-91830166D01*
X163063333Y-91867296D01*
X163048149Y-91875265D01*
X162920816Y-91988072D01*
X162824182Y-92128068D01*
X162763860Y-92287125D01*
X162763859Y-92287130D01*
X162743355Y-92456000D01*
X154883645Y-92456000D01*
X154863140Y-92287128D01*
X154802818Y-92128070D01*
X154706183Y-91988071D01*
X154578852Y-91875266D01*
X154563667Y-91867296D01*
X154513455Y-91818713D01*
X154497480Y-91750694D01*
X154520815Y-91684836D01*
X154563667Y-91647703D01*
X154578852Y-91639734D01*
X154706183Y-91526929D01*
X154802818Y-91386930D01*
X154863140Y-91227872D01*
X154883645Y-91059000D01*
X154863140Y-90890128D01*
X154802818Y-90731070D01*
X154706183Y-90591071D01*
X154578852Y-90478266D01*
X154563667Y-90470296D01*
X154513455Y-90421713D01*
X154497480Y-90353694D01*
X154520815Y-90287836D01*
X154563667Y-90250703D01*
X154578852Y-90242734D01*
X154706183Y-90129929D01*
X154802818Y-89989930D01*
X154863140Y-89830872D01*
X154883645Y-89662000D01*
X154863140Y-89493128D01*
X154802818Y-89334070D01*
X154706183Y-89194071D01*
X154622363Y-89119813D01*
X154585238Y-89060626D01*
X154586006Y-88990761D01*
X154622363Y-88934186D01*
X154706183Y-88859929D01*
X154802818Y-88719930D01*
X154863140Y-88560872D01*
X154883645Y-88392000D01*
X154863140Y-88223128D01*
X154858440Y-88210736D01*
X154802817Y-88064068D01*
X154729554Y-87957930D01*
X154706183Y-87924071D01*
X154578852Y-87811266D01*
X154578849Y-87811263D01*
X154428226Y-87732210D01*
X154263056Y-87691500D01*
X154092944Y-87691500D01*
X153927773Y-87732210D01*
X153777150Y-87811263D01*
X153649816Y-87924072D01*
X153553182Y-88064068D01*
X153492860Y-88223125D01*
X153492859Y-88223130D01*
X153472355Y-88392000D01*
X153492859Y-88560869D01*
X153492860Y-88560874D01*
X153553182Y-88719931D01*
X153649818Y-88859930D01*
X153733634Y-88934185D01*
X153770761Y-88993374D01*
X153769993Y-89063240D01*
X153733634Y-89119815D01*
X153649818Y-89194069D01*
X153553182Y-89334068D01*
X153492860Y-89493125D01*
X153492859Y-89493130D01*
X153472355Y-89662000D01*
X153492859Y-89830869D01*
X153492860Y-89830874D01*
X153553182Y-89989931D01*
X153615475Y-90080177D01*
X153649817Y-90129929D01*
X153777148Y-90242734D01*
X153787974Y-90248416D01*
X153792333Y-90250704D01*
X153842545Y-90299289D01*
X153858519Y-90367309D01*
X153835183Y-90433166D01*
X153792333Y-90470296D01*
X153777149Y-90478265D01*
X153649816Y-90591072D01*
X153553182Y-90731068D01*
X153492860Y-90890125D01*
X153492859Y-90890130D01*
X153472355Y-91059000D01*
X153492859Y-91227869D01*
X153492860Y-91227874D01*
X153553182Y-91386931D01*
X153615475Y-91477177D01*
X153649817Y-91526929D01*
X153777148Y-91639734D01*
X153787974Y-91645416D01*
X153792333Y-91647704D01*
X153842545Y-91696289D01*
X153858519Y-91764309D01*
X153835183Y-91830166D01*
X153792333Y-91867296D01*
X153777149Y-91875265D01*
X153649816Y-91988072D01*
X153553182Y-92128068D01*
X153492860Y-92287125D01*
X153492859Y-92287130D01*
X153472355Y-92456000D01*
X153185990Y-92456000D01*
X153177218Y-92432870D01*
X153080583Y-92292871D01*
X152953252Y-92180066D01*
X152953249Y-92180063D01*
X152802626Y-92101010D01*
X152637456Y-92060300D01*
X152467344Y-92060300D01*
X152302173Y-92101010D01*
X152151550Y-92180063D01*
X152024216Y-92292872D01*
X151927582Y-92432868D01*
X151867260Y-92591925D01*
X151867259Y-92591930D01*
X151846755Y-92760800D01*
X151856670Y-92842461D01*
X151845209Y-92911384D01*
X151798305Y-92963170D01*
X151730849Y-92981377D01*
X151684323Y-92971206D01*
X151662167Y-92961618D01*
X151656922Y-92959048D01*
X151616093Y-92936603D01*
X151616092Y-92936602D01*
X151596693Y-92931622D01*
X151578281Y-92925318D01*
X151559898Y-92917362D01*
X151559892Y-92917360D01*
X151513874Y-92910072D01*
X151508152Y-92908887D01*
X151463021Y-92897300D01*
X151463019Y-92897300D01*
X151442984Y-92897300D01*
X151423586Y-92895773D01*
X151416162Y-92894597D01*
X151403805Y-92892640D01*
X151403804Y-92892640D01*
X151357416Y-92897025D01*
X151351578Y-92897300D01*
X147504337Y-92897300D01*
X147488720Y-92895576D01*
X147488693Y-92895862D01*
X147480931Y-92895127D01*
X147411803Y-92897300D01*
X147382250Y-92897300D01*
X147381529Y-92897390D01*
X147375357Y-92898169D01*
X147369545Y-92898626D01*
X147322972Y-92900090D01*
X147322969Y-92900091D01*
X147303726Y-92905681D01*
X147284683Y-92909625D01*
X147264804Y-92912136D01*
X147264803Y-92912137D01*
X147221478Y-92929290D01*
X147215952Y-92931182D01*
X147171208Y-92944183D01*
X147171204Y-92944185D01*
X147153965Y-92954380D01*
X147136498Y-92962937D01*
X147117869Y-92970312D01*
X147117867Y-92970313D01*
X147080164Y-92997706D01*
X147075282Y-93000912D01*
X147035180Y-93024628D01*
X147021008Y-93038800D01*
X147006223Y-93051428D01*
X146990012Y-93063207D01*
X146960309Y-93099110D01*
X146956377Y-93103431D01*
X146721557Y-93338250D01*
X146669999Y-93367333D01*
X146670386Y-93368351D01*
X146663701Y-93370886D01*
X146663567Y-93370962D01*
X146663379Y-93371008D01*
X146663372Y-93371011D01*
X146512750Y-93450063D01*
X146385416Y-93562872D01*
X146288782Y-93702868D01*
X146228460Y-93861925D01*
X146228459Y-93861931D01*
X146212505Y-93993326D01*
X146184883Y-94057504D01*
X146126949Y-94096560D01*
X146059737Y-94098777D01*
X146041064Y-94094175D01*
X146033456Y-94092300D01*
X145863344Y-94092300D01*
X145698173Y-94133010D01*
X145547549Y-94212064D01*
X145547547Y-94212066D01*
X145547263Y-94212318D01*
X145547010Y-94212436D01*
X145541376Y-94216326D01*
X145540729Y-94215388D01*
X145484029Y-94242037D01*
X145465039Y-94243500D01*
X143312453Y-94243500D01*
X143245414Y-94223815D01*
X143224772Y-94207181D01*
X142232803Y-93215212D01*
X142222980Y-93202950D01*
X142222759Y-93203134D01*
X142217786Y-93197123D01*
X142199159Y-93179631D01*
X142167364Y-93149773D01*
X142156919Y-93139328D01*
X142146475Y-93128883D01*
X142140986Y-93124625D01*
X142136561Y-93120847D01*
X142102582Y-93088938D01*
X142102580Y-93088936D01*
X142102577Y-93088935D01*
X142085029Y-93079288D01*
X142068763Y-93068604D01*
X142052936Y-93056327D01*
X142052935Y-93056326D01*
X142052933Y-93056325D01*
X142010168Y-93037818D01*
X142004922Y-93035248D01*
X141964093Y-93012803D01*
X141964092Y-93012802D01*
X141944693Y-93007822D01*
X141926281Y-93001518D01*
X141907898Y-92993562D01*
X141907892Y-92993560D01*
X141861874Y-92986272D01*
X141856152Y-92985087D01*
X141811021Y-92973500D01*
X141811019Y-92973500D01*
X141790984Y-92973500D01*
X141771586Y-92971973D01*
X141761111Y-92970314D01*
X141751805Y-92968840D01*
X141751804Y-92968840D01*
X141705416Y-92973225D01*
X141699578Y-92973500D01*
X138131738Y-92973500D01*
X138116121Y-92971776D01*
X138116094Y-92972062D01*
X138108332Y-92971327D01*
X138039204Y-92973500D01*
X138009650Y-92973500D01*
X138008929Y-92973590D01*
X138002757Y-92974369D01*
X137996945Y-92974826D01*
X137950373Y-92976290D01*
X137950372Y-92976290D01*
X137931129Y-92981881D01*
X137912079Y-92985825D01*
X137892211Y-92988334D01*
X137892209Y-92988335D01*
X137848884Y-93005488D01*
X137843357Y-93007380D01*
X137798610Y-93020381D01*
X137798609Y-93020382D01*
X137781367Y-93030579D01*
X137763899Y-93039137D01*
X137745269Y-93046513D01*
X137745267Y-93046514D01*
X137707576Y-93073898D01*
X137702694Y-93077105D01*
X137662579Y-93100830D01*
X137648408Y-93115000D01*
X137633623Y-93127628D01*
X137617412Y-93139407D01*
X137587709Y-93175310D01*
X137583777Y-93179631D01*
X137538208Y-93225199D01*
X137525951Y-93235020D01*
X137526134Y-93235241D01*
X137520123Y-93240213D01*
X137472772Y-93290636D01*
X137451889Y-93311519D01*
X137451877Y-93311532D01*
X137447621Y-93317017D01*
X137443837Y-93321447D01*
X137411937Y-93355418D01*
X137411936Y-93355420D01*
X137402284Y-93372976D01*
X137391610Y-93389226D01*
X137379329Y-93405061D01*
X137379324Y-93405068D01*
X137360815Y-93447838D01*
X137358245Y-93453084D01*
X137335803Y-93493906D01*
X137330822Y-93513307D01*
X137324521Y-93531710D01*
X137316562Y-93550102D01*
X137316561Y-93550105D01*
X137309271Y-93596127D01*
X137308087Y-93601846D01*
X137296501Y-93646972D01*
X137296500Y-93646982D01*
X137296500Y-93667016D01*
X137294973Y-93686415D01*
X137291840Y-93706194D01*
X137291840Y-93706195D01*
X134693937Y-93706195D01*
X134715227Y-87630000D01*
X144226755Y-87630000D01*
X144247259Y-87798869D01*
X144247260Y-87798874D01*
X144307582Y-87957931D01*
X144369875Y-88048177D01*
X144404217Y-88097929D01*
X144509905Y-88191560D01*
X144531550Y-88210736D01*
X144682173Y-88289789D01*
X144682175Y-88289790D01*
X144847344Y-88330500D01*
X145017456Y-88330500D01*
X145182625Y-88289790D01*
X145309634Y-88223130D01*
X145333249Y-88210736D01*
X145333250Y-88210734D01*
X145333252Y-88210734D01*
X145460583Y-88097929D01*
X145557218Y-87957930D01*
X145617540Y-87798872D01*
X145638045Y-87630000D01*
X145617540Y-87461128D01*
X145557218Y-87302070D01*
X145460583Y-87162071D01*
X145333252Y-87049266D01*
X145333249Y-87049263D01*
X145182626Y-86970210D01*
X145017456Y-86929500D01*
X144847344Y-86929500D01*
X144682173Y-86970210D01*
X144531550Y-87049263D01*
X144404216Y-87162072D01*
X144307582Y-87302068D01*
X144247260Y-87461125D01*
X144247259Y-87461130D01*
X144226755Y-87630000D01*
X134715227Y-87630000D01*
X134727074Y-84248803D01*
X152391615Y-84248803D01*
X152411938Y-84597727D01*
X152411939Y-84597738D01*
X152472628Y-84941927D01*
X152472630Y-84941934D01*
X152572874Y-85276772D01*
X152711307Y-85597695D01*
X152711313Y-85597708D01*
X152886070Y-85900397D01*
X153094784Y-86180749D01*
X153094789Y-86180755D01*
X153169726Y-86260183D01*
X153334642Y-86434983D01*
X153511103Y-86583051D01*
X153602386Y-86659647D01*
X153602394Y-86659653D01*
X153894403Y-86851711D01*
X153894407Y-86851713D01*
X154206749Y-87008577D01*
X154535189Y-87128119D01*
X154875286Y-87208723D01*
X155222441Y-87249300D01*
X155222448Y-87249300D01*
X155571952Y-87249300D01*
X155571959Y-87249300D01*
X155919114Y-87208723D01*
X156259211Y-87128119D01*
X156587651Y-87008577D01*
X156899993Y-86851713D01*
X156997332Y-86787691D01*
X157192005Y-86659653D01*
X157192005Y-86659652D01*
X157192011Y-86659649D01*
X157459758Y-86434983D01*
X157699612Y-86180753D01*
X157908330Y-85900396D01*
X158083089Y-85597704D01*
X158221526Y-85276771D01*
X158321769Y-84941936D01*
X158352593Y-84767127D01*
X158382460Y-84597738D01*
X158382459Y-84597738D01*
X158382462Y-84597727D01*
X158402785Y-84248800D01*
X158392604Y-84074003D01*
X159046415Y-84074003D01*
X159066738Y-84422927D01*
X159066739Y-84422938D01*
X159127428Y-84767127D01*
X159127430Y-84767134D01*
X159227674Y-85101972D01*
X159366107Y-85422895D01*
X159366113Y-85422908D01*
X159540870Y-85725597D01*
X159749584Y-86005949D01*
X159749589Y-86005955D01*
X159873463Y-86137253D01*
X159989442Y-86260183D01*
X160165903Y-86408251D01*
X160257186Y-86484847D01*
X160257194Y-86484853D01*
X160549203Y-86676911D01*
X160549207Y-86676913D01*
X160861549Y-86833777D01*
X161189989Y-86953319D01*
X161530086Y-87033923D01*
X161877241Y-87074500D01*
X161877248Y-87074500D01*
X162226752Y-87074500D01*
X162226759Y-87074500D01*
X162573914Y-87033923D01*
X162914011Y-86953319D01*
X163242451Y-86833777D01*
X163554793Y-86676913D01*
X163846811Y-86484849D01*
X164114558Y-86260183D01*
X164354412Y-86005953D01*
X164563130Y-85725596D01*
X164737889Y-85422904D01*
X164876326Y-85101971D01*
X164976569Y-84767136D01*
X165037262Y-84422927D01*
X165057585Y-84074000D01*
X165037262Y-83725073D01*
X165037260Y-83725061D01*
X164976571Y-83380872D01*
X164976569Y-83380865D01*
X164976569Y-83380864D01*
X164876326Y-83046029D01*
X164737889Y-82725096D01*
X164563130Y-82422404D01*
X164563129Y-82422402D01*
X164354415Y-82142050D01*
X164354410Y-82142044D01*
X164238433Y-82019117D01*
X164114558Y-81887817D01*
X163966488Y-81763572D01*
X163846813Y-81663152D01*
X163846805Y-81663146D01*
X163554796Y-81471088D01*
X163242458Y-81314226D01*
X163242452Y-81314223D01*
X162914012Y-81194681D01*
X162914009Y-81194680D01*
X162573915Y-81114077D01*
X162530519Y-81109004D01*
X162226759Y-81073500D01*
X161877241Y-81073500D01*
X161573480Y-81109004D01*
X161530085Y-81114077D01*
X161530083Y-81114077D01*
X161189990Y-81194680D01*
X161189987Y-81194681D01*
X160861547Y-81314223D01*
X160861541Y-81314226D01*
X160549203Y-81471088D01*
X160257194Y-81663146D01*
X160257186Y-81663152D01*
X159989442Y-81887817D01*
X159989440Y-81887819D01*
X159749589Y-82142044D01*
X159749584Y-82142050D01*
X159540870Y-82422402D01*
X159366113Y-82725091D01*
X159366107Y-82725104D01*
X159227674Y-83046027D01*
X159127430Y-83380865D01*
X159127428Y-83380872D01*
X159066739Y-83725061D01*
X159066738Y-83725072D01*
X159046415Y-84073996D01*
X159046415Y-84074003D01*
X158392604Y-84074003D01*
X158382462Y-83899873D01*
X158382460Y-83899861D01*
X158321771Y-83555672D01*
X158321769Y-83555665D01*
X158321769Y-83555664D01*
X158221526Y-83220829D01*
X158083089Y-82899896D01*
X157982168Y-82725096D01*
X157908329Y-82597202D01*
X157699615Y-82316850D01*
X157699610Y-82316844D01*
X157534696Y-82142047D01*
X157459758Y-82062617D01*
X157311688Y-81938372D01*
X157192013Y-81837952D01*
X157192005Y-81837946D01*
X156899996Y-81645888D01*
X156587658Y-81489026D01*
X156587652Y-81489023D01*
X156259212Y-81369481D01*
X156259209Y-81369480D01*
X155919115Y-81288877D01*
X155875719Y-81283804D01*
X155571959Y-81248300D01*
X155222441Y-81248300D01*
X154918680Y-81283804D01*
X154875285Y-81288877D01*
X154875283Y-81288877D01*
X154535190Y-81369480D01*
X154535187Y-81369481D01*
X154206747Y-81489023D01*
X154206741Y-81489026D01*
X153894403Y-81645888D01*
X153602394Y-81837946D01*
X153602386Y-81837952D01*
X153334642Y-82062617D01*
X153334640Y-82062619D01*
X153094789Y-82316844D01*
X153094784Y-82316850D01*
X152886070Y-82597202D01*
X152711313Y-82899891D01*
X152711307Y-82899904D01*
X152572874Y-83220827D01*
X152472630Y-83555665D01*
X152472628Y-83555672D01*
X152411939Y-83899861D01*
X152411938Y-83899872D01*
X152391615Y-84248796D01*
X152391615Y-84248803D01*
X134727074Y-84248803D01*
X134746567Y-78685765D01*
X134766486Y-78618795D01*
X134819450Y-78573226D01*
X134870566Y-78562200D01*
X180469565Y-78562200D01*
X180536604Y-78581885D01*
G37*
%TD.AperFunction*%
%TD*%
M02*
