%TF.GenerationSoftware,KiCad,Pcbnew,7.0.9-7.0.9~ubuntu22.04.1*%
%TF.CreationDate,2024-01-17T18:16:46+01:00*%
%TF.ProjectId,driver_seperate,64726976-6572-45f7-9365-706572617465,rev?*%
%TF.SameCoordinates,Original*%
%TF.FileFunction,Copper,L4,Bot*%
%TF.FilePolarity,Positive*%
%FSLAX46Y46*%
G04 Gerber Fmt 4.6, Leading zero omitted, Abs format (unit mm)*
G04 Created by KiCad (PCBNEW 7.0.9-7.0.9~ubuntu22.04.1) date 2024-01-17 18:16:46*
%MOMM*%
%LPD*%
G01*
G04 APERTURE LIST*
%TA.AperFunction,ComponentPad*%
%ADD10C,5.000000*%
%TD*%
%TA.AperFunction,ComponentPad*%
%ADD11R,1.000000X1.000000*%
%TD*%
%TA.AperFunction,ComponentPad*%
%ADD12O,1.000000X1.000000*%
%TD*%
%TA.AperFunction,ViaPad*%
%ADD13C,0.400000*%
%TD*%
%TA.AperFunction,ViaPad*%
%ADD14C,0.600000*%
%TD*%
G04 APERTURE END LIST*
D10*
%TO.P,IN-1,1,1*%
%TO.N,GND*%
X162052000Y-84074000D03*
%TD*%
D11*
%TO.P,J1,1,Pin_1*%
%TO.N,/U*%
X138785600Y-95300800D03*
D12*
%TO.P,J1,2,Pin_2*%
%TO.N,/V*%
X138785600Y-96570800D03*
%TO.P,J1,3,Pin_3*%
%TO.N,/W*%
X138785600Y-97840800D03*
%TO.P,J1,4,Pin_4*%
%TO.N,GND*%
X138785600Y-99110800D03*
%TO.P,J1,5,Pin_5*%
%TO.N,/H2*%
X138785600Y-100380800D03*
%TO.P,J1,6,Pin_6*%
%TO.N,/H1*%
X138785600Y-101650800D03*
%TO.P,J1,7,Pin_7*%
%TO.N,/H3*%
X138785600Y-102920800D03*
%TO.P,J1,8,Pin_8*%
%TO.N,/SW_BK*%
X138785600Y-104190800D03*
%TD*%
D10*
%TO.P,IN+1,1,1*%
%TO.N,/VM*%
X155397200Y-84248800D03*
%TD*%
D11*
%TO.P,J2,1,Pin_1*%
%TO.N,/FGOUT*%
X147066000Y-111633000D03*
D12*
%TO.P,J2,2,Pin_2*%
%TO.N,/PWM*%
X145796000Y-111633000D03*
%TO.P,J2,3,Pin_3*%
%TO.N,/BRAKE*%
X144526000Y-111633000D03*
%TO.P,J2,4,Pin_4*%
%TO.N,/DIR*%
X143256000Y-111633000D03*
%TO.P,J2,5,Pin_5*%
%TO.N,/nFAULT*%
X141986000Y-111633000D03*
%TD*%
D13*
%TO.N,Net-(IC1-ILIM)*%
X151714200Y-107924600D03*
X153263600Y-111353600D03*
D14*
%TO.N,GND*%
X151841200Y-97282000D03*
D13*
X144932400Y-87630000D03*
D14*
X150164800Y-99669600D03*
D13*
X163449000Y-92456000D03*
D14*
X151282400Y-100888800D03*
D13*
X175666400Y-111302800D03*
X173939200Y-111277400D03*
X148361400Y-114046000D03*
X163449000Y-89662000D03*
D14*
X150672800Y-101904800D03*
X151942800Y-101904800D03*
D13*
X163449000Y-91059000D03*
D14*
X152450800Y-99669600D03*
D13*
X163449000Y-88392000D03*
X153466800Y-113182400D03*
D14*
X150114000Y-100888800D03*
X152501600Y-100888800D03*
D13*
X170484800Y-111302800D03*
X152552400Y-92760800D03*
D14*
X150723600Y-97282000D03*
X152501600Y-98348800D03*
X151282400Y-99669600D03*
X150164800Y-98348800D03*
D13*
X172212000Y-111277400D03*
D14*
X151282400Y-98348800D03*
D13*
%TO.N,/AVDD*%
X142036800Y-92405200D03*
X155092400Y-107848400D03*
X159283400Y-109372400D03*
X147269200Y-99568000D03*
X147320000Y-97790000D03*
X141986000Y-96774000D03*
X141630400Y-99060000D03*
X147574000Y-103615500D03*
%TO.N,/SW_BK*%
X141681200Y-104140000D03*
X159664400Y-103251000D03*
%TO.N,Net-(IC1-CP)*%
X146913600Y-94030800D03*
X156184600Y-97993200D03*
%TO.N,/VM*%
X154178000Y-91059000D03*
X154178000Y-92456000D03*
X154178000Y-88392000D03*
X154178000Y-89662000D03*
%TO.N,/W*%
X149809200Y-94488000D03*
%TO.N,/V*%
X151384000Y-94488000D03*
%TO.N,/U*%
X153111200Y-94640400D03*
%TO.N,/H3*%
X147320000Y-101981000D03*
%TO.N,/H1*%
X145618200Y-100253800D03*
%TO.N,/nFAULT*%
X145948400Y-94792800D03*
%TD*%
%TA.AperFunction,Conductor*%
%TO.N,GND*%
G36*
X180511290Y-78581885D02*
G01*
X180557045Y-78634689D01*
X180568251Y-78686548D01*
X180516493Y-97151293D01*
X180473096Y-112633499D01*
X180467347Y-114684348D01*
X180447474Y-114751332D01*
X180394542Y-114796938D01*
X180343347Y-114808000D01*
X134744349Y-114808000D01*
X134677310Y-114788315D01*
X134631555Y-114735511D01*
X134620349Y-114683652D01*
X134628900Y-111633000D01*
X140980659Y-111633000D01*
X140999975Y-111829129D01*
X140999976Y-111829132D01*
X141055870Y-112013390D01*
X141057188Y-112017733D01*
X141150086Y-112191532D01*
X141150090Y-112191539D01*
X141275116Y-112343883D01*
X141427460Y-112468909D01*
X141427467Y-112468913D01*
X141601266Y-112561811D01*
X141601269Y-112561811D01*
X141601273Y-112561814D01*
X141789868Y-112619024D01*
X141986000Y-112638341D01*
X142182132Y-112619024D01*
X142370727Y-112561814D01*
X142544538Y-112468910D01*
X142544544Y-112468904D01*
X142549607Y-112465523D01*
X142550703Y-112467164D01*
X142606639Y-112443405D01*
X142675507Y-112455194D01*
X142692148Y-112465888D01*
X142692393Y-112465523D01*
X142697458Y-112468907D01*
X142697462Y-112468910D01*
X142842501Y-112546435D01*
X142869147Y-112560678D01*
X142871273Y-112561814D01*
X143059868Y-112619024D01*
X143256000Y-112638341D01*
X143452132Y-112619024D01*
X143640727Y-112561814D01*
X143814538Y-112468910D01*
X143814544Y-112468904D01*
X143819607Y-112465523D01*
X143820703Y-112467164D01*
X143876639Y-112443405D01*
X143945507Y-112455194D01*
X143962148Y-112465888D01*
X143962393Y-112465523D01*
X143967458Y-112468907D01*
X143967462Y-112468910D01*
X144112501Y-112546435D01*
X144139147Y-112560678D01*
X144141273Y-112561814D01*
X144329868Y-112619024D01*
X144526000Y-112638341D01*
X144722132Y-112619024D01*
X144910727Y-112561814D01*
X145084538Y-112468910D01*
X145084544Y-112468904D01*
X145089607Y-112465523D01*
X145090703Y-112467164D01*
X145146639Y-112443405D01*
X145215507Y-112455194D01*
X145232148Y-112465888D01*
X145232393Y-112465523D01*
X145237458Y-112468907D01*
X145237462Y-112468910D01*
X145382501Y-112546435D01*
X145409147Y-112560678D01*
X145411273Y-112561814D01*
X145599868Y-112619024D01*
X145796000Y-112638341D01*
X145992132Y-112619024D01*
X146180727Y-112561814D01*
X146182853Y-112560677D01*
X146184095Y-112560418D01*
X146186355Y-112559483D01*
X146186532Y-112559911D01*
X146251254Y-112546435D01*
X146315615Y-112570767D01*
X146323669Y-112576796D01*
X146323672Y-112576797D01*
X146458517Y-112627091D01*
X146458516Y-112627091D01*
X146465444Y-112627835D01*
X146518127Y-112633500D01*
X147613872Y-112633499D01*
X147673483Y-112627091D01*
X147808331Y-112576796D01*
X147923546Y-112490546D01*
X148009796Y-112375331D01*
X148060091Y-112240483D01*
X148066500Y-112180873D01*
X148066499Y-111353600D01*
X152557955Y-111353600D01*
X152578459Y-111522469D01*
X152578460Y-111522474D01*
X152638782Y-111681531D01*
X152701075Y-111771777D01*
X152735417Y-111821529D01*
X152841105Y-111915160D01*
X152862750Y-111934336D01*
X153013373Y-112013389D01*
X153013375Y-112013390D01*
X153178544Y-112054100D01*
X153348656Y-112054100D01*
X153513825Y-112013390D01*
X153593292Y-111971681D01*
X153664449Y-111934336D01*
X153664450Y-111934334D01*
X153664452Y-111934334D01*
X153791783Y-111821529D01*
X153888418Y-111681530D01*
X153948740Y-111522472D01*
X153969245Y-111353600D01*
X153948740Y-111184728D01*
X153888418Y-111025670D01*
X153888312Y-111025517D01*
X153795234Y-110890671D01*
X153791783Y-110885671D01*
X153691791Y-110797086D01*
X153664449Y-110772863D01*
X153513826Y-110693810D01*
X153348656Y-110653100D01*
X153178544Y-110653100D01*
X153013373Y-110693810D01*
X152862750Y-110772863D01*
X152735416Y-110885672D01*
X152638782Y-111025668D01*
X152578460Y-111184725D01*
X152578459Y-111184730D01*
X152557955Y-111353600D01*
X148066499Y-111353600D01*
X148066499Y-111085128D01*
X148061299Y-111036757D01*
X148060091Y-111025516D01*
X148009797Y-110890671D01*
X148009793Y-110890664D01*
X147923547Y-110775455D01*
X147923544Y-110775452D01*
X147808335Y-110689206D01*
X147808328Y-110689202D01*
X147673482Y-110638908D01*
X147673483Y-110638908D01*
X147613883Y-110632501D01*
X147613881Y-110632500D01*
X147613873Y-110632500D01*
X147613864Y-110632500D01*
X146518129Y-110632500D01*
X146518123Y-110632501D01*
X146458516Y-110638908D01*
X146323671Y-110689202D01*
X146323666Y-110689205D01*
X146315614Y-110695233D01*
X146250149Y-110719648D01*
X146186530Y-110706104D01*
X146186359Y-110706518D01*
X146184123Y-110705592D01*
X146182850Y-110705321D01*
X146180729Y-110704187D01*
X146180728Y-110704186D01*
X146180727Y-110704186D01*
X145992132Y-110646976D01*
X145992129Y-110646975D01*
X145796000Y-110627659D01*
X145599870Y-110646975D01*
X145411266Y-110704188D01*
X145237467Y-110797086D01*
X145232399Y-110800473D01*
X145231305Y-110798836D01*
X145175337Y-110822596D01*
X145106471Y-110810795D01*
X145089843Y-110800109D01*
X145089601Y-110800473D01*
X145084532Y-110797086D01*
X144910733Y-110704188D01*
X144910727Y-110704186D01*
X144722132Y-110646976D01*
X144722129Y-110646975D01*
X144526000Y-110627659D01*
X144329870Y-110646975D01*
X144141266Y-110704188D01*
X143967467Y-110797086D01*
X143962399Y-110800473D01*
X143961305Y-110798836D01*
X143905337Y-110822596D01*
X143836471Y-110810795D01*
X143819843Y-110800109D01*
X143819601Y-110800473D01*
X143814532Y-110797086D01*
X143640733Y-110704188D01*
X143640727Y-110704186D01*
X143452132Y-110646976D01*
X143452129Y-110646975D01*
X143256000Y-110627659D01*
X143059870Y-110646975D01*
X142871266Y-110704188D01*
X142697467Y-110797086D01*
X142692399Y-110800473D01*
X142691305Y-110798836D01*
X142635337Y-110822596D01*
X142566471Y-110810795D01*
X142549843Y-110800109D01*
X142549601Y-110800473D01*
X142544532Y-110797086D01*
X142370733Y-110704188D01*
X142370727Y-110704186D01*
X142182132Y-110646976D01*
X142182129Y-110646975D01*
X141986000Y-110627659D01*
X141789870Y-110646975D01*
X141601266Y-110704188D01*
X141427467Y-110797086D01*
X141427460Y-110797090D01*
X141275116Y-110922116D01*
X141150090Y-111074460D01*
X141150086Y-111074467D01*
X141057188Y-111248266D01*
X140999975Y-111436870D01*
X140980659Y-111633000D01*
X134628900Y-111633000D01*
X134635237Y-109372400D01*
X158577755Y-109372400D01*
X158598259Y-109541269D01*
X158598260Y-109541274D01*
X158658582Y-109700331D01*
X158720875Y-109790577D01*
X158755217Y-109840329D01*
X158860905Y-109933960D01*
X158882550Y-109953136D01*
X159033173Y-110032189D01*
X159033175Y-110032190D01*
X159198344Y-110072900D01*
X159368456Y-110072900D01*
X159533625Y-110032190D01*
X159613092Y-109990481D01*
X159684249Y-109953136D01*
X159684250Y-109953134D01*
X159684252Y-109953134D01*
X159811583Y-109840329D01*
X159908218Y-109700330D01*
X159968540Y-109541272D01*
X159989045Y-109372400D01*
X159968540Y-109203528D01*
X159908218Y-109044470D01*
X159811583Y-108904471D01*
X159684252Y-108791666D01*
X159684249Y-108791663D01*
X159533626Y-108712610D01*
X159368456Y-108671900D01*
X159198344Y-108671900D01*
X159033173Y-108712610D01*
X158882550Y-108791663D01*
X158755216Y-108904472D01*
X158658582Y-109044468D01*
X158598260Y-109203525D01*
X158598259Y-109203530D01*
X158577755Y-109372400D01*
X134635237Y-109372400D01*
X134639295Y-107924600D01*
X151008555Y-107924600D01*
X151029059Y-108093469D01*
X151029060Y-108093474D01*
X151089382Y-108252531D01*
X151151675Y-108342777D01*
X151186017Y-108392529D01*
X151291705Y-108486160D01*
X151313350Y-108505336D01*
X151463973Y-108584389D01*
X151463975Y-108584390D01*
X151629144Y-108625100D01*
X151799256Y-108625100D01*
X151964425Y-108584390D01*
X152043892Y-108542681D01*
X152115049Y-108505336D01*
X152115050Y-108505334D01*
X152115052Y-108505334D01*
X152242383Y-108392529D01*
X152339018Y-108252530D01*
X152399340Y-108093472D01*
X152419845Y-107924600D01*
X152410593Y-107848400D01*
X154386755Y-107848400D01*
X154407259Y-108017269D01*
X154407260Y-108017274D01*
X154467582Y-108176331D01*
X154520179Y-108252530D01*
X154564217Y-108316329D01*
X154669905Y-108409960D01*
X154691550Y-108429136D01*
X154836733Y-108505334D01*
X154842175Y-108508190D01*
X155007344Y-108548900D01*
X155177456Y-108548900D01*
X155342625Y-108508190D01*
X155422092Y-108466481D01*
X155493249Y-108429136D01*
X155493250Y-108429134D01*
X155493252Y-108429134D01*
X155620583Y-108316329D01*
X155717218Y-108176330D01*
X155777540Y-108017272D01*
X155798045Y-107848400D01*
X155777540Y-107679528D01*
X155717218Y-107520470D01*
X155620583Y-107380471D01*
X155493252Y-107267666D01*
X155493249Y-107267663D01*
X155342626Y-107188610D01*
X155177456Y-107147900D01*
X155007344Y-107147900D01*
X154842173Y-107188610D01*
X154691550Y-107267663D01*
X154564216Y-107380472D01*
X154467582Y-107520468D01*
X154407260Y-107679525D01*
X154407259Y-107679530D01*
X154386755Y-107848400D01*
X152410593Y-107848400D01*
X152399340Y-107755728D01*
X152339018Y-107596670D01*
X152242383Y-107456671D01*
X152115052Y-107343866D01*
X152115049Y-107343863D01*
X151964426Y-107264810D01*
X151799256Y-107224100D01*
X151629144Y-107224100D01*
X151463973Y-107264810D01*
X151313350Y-107343863D01*
X151186016Y-107456672D01*
X151089382Y-107596668D01*
X151029060Y-107755725D01*
X151029059Y-107755730D01*
X151008555Y-107924600D01*
X134639295Y-107924600D01*
X134649761Y-104190800D01*
X137780259Y-104190800D01*
X137799575Y-104386929D01*
X137856788Y-104575533D01*
X137949686Y-104749332D01*
X137949690Y-104749339D01*
X138074716Y-104901683D01*
X138227060Y-105026709D01*
X138227067Y-105026713D01*
X138400866Y-105119611D01*
X138400869Y-105119611D01*
X138400873Y-105119614D01*
X138589468Y-105176824D01*
X138785600Y-105196141D01*
X138981732Y-105176824D01*
X139170327Y-105119614D01*
X139344138Y-105026710D01*
X139496483Y-104901683D01*
X139621510Y-104749338D01*
X139714414Y-104575527D01*
X139771624Y-104386932D01*
X139790941Y-104190800D01*
X139785938Y-104140000D01*
X140975555Y-104140000D01*
X140996059Y-104308869D01*
X140996060Y-104308874D01*
X141056382Y-104467931D01*
X141118675Y-104558177D01*
X141153017Y-104607929D01*
X141258705Y-104701560D01*
X141280350Y-104720736D01*
X141430973Y-104799789D01*
X141430975Y-104799790D01*
X141596144Y-104840500D01*
X141766256Y-104840500D01*
X141931425Y-104799790D01*
X142010892Y-104758081D01*
X142082049Y-104720736D01*
X142082050Y-104720734D01*
X142082052Y-104720734D01*
X142209383Y-104607929D01*
X142306018Y-104467930D01*
X142366340Y-104308872D01*
X142386845Y-104140000D01*
X142366340Y-103971128D01*
X142306018Y-103812070D01*
X142209383Y-103672071D01*
X142145527Y-103615500D01*
X146868355Y-103615500D01*
X146888859Y-103784369D01*
X146888860Y-103784374D01*
X146949182Y-103943431D01*
X147011475Y-104033677D01*
X147045817Y-104083429D01*
X147109673Y-104140000D01*
X147173150Y-104196236D01*
X147323773Y-104275289D01*
X147323775Y-104275290D01*
X147488944Y-104316000D01*
X147659056Y-104316000D01*
X147824225Y-104275290D01*
X147903692Y-104233581D01*
X147974849Y-104196236D01*
X147974850Y-104196234D01*
X147974852Y-104196234D01*
X148102183Y-104083429D01*
X148198818Y-103943430D01*
X148259140Y-103784372D01*
X148279645Y-103615500D01*
X148259140Y-103446628D01*
X148198818Y-103287570D01*
X148173575Y-103251000D01*
X158958755Y-103251000D01*
X158979259Y-103419869D01*
X158979260Y-103419874D01*
X159039582Y-103578931D01*
X159076398Y-103632267D01*
X159136217Y-103718929D01*
X159234575Y-103806066D01*
X159263550Y-103831736D01*
X159414173Y-103910789D01*
X159414175Y-103910790D01*
X159579344Y-103951500D01*
X159749456Y-103951500D01*
X159914625Y-103910790D01*
X159994092Y-103869081D01*
X160065249Y-103831736D01*
X160065250Y-103831734D01*
X160065252Y-103831734D01*
X160192583Y-103718929D01*
X160289218Y-103578930D01*
X160349540Y-103419872D01*
X160370045Y-103251000D01*
X160349540Y-103082128D01*
X160289218Y-102923070D01*
X160286266Y-102918794D01*
X160254876Y-102873318D01*
X160192583Y-102783071D01*
X160073637Y-102677694D01*
X160065249Y-102670263D01*
X159914626Y-102591210D01*
X159749456Y-102550500D01*
X159579344Y-102550500D01*
X159414173Y-102591210D01*
X159263550Y-102670263D01*
X159136216Y-102783072D01*
X159039582Y-102923068D01*
X158979260Y-103082125D01*
X158979259Y-103082130D01*
X158958755Y-103251000D01*
X148173575Y-103251000D01*
X148102183Y-103147571D01*
X147974852Y-103034766D01*
X147974849Y-103034763D01*
X147824226Y-102955710D01*
X147659056Y-102915000D01*
X147488944Y-102915000D01*
X147481443Y-102915000D01*
X147481443Y-102913030D01*
X147474805Y-102911926D01*
X147466521Y-102918794D01*
X147447160Y-102925298D01*
X147323773Y-102955710D01*
X147173150Y-103034763D01*
X147045816Y-103147572D01*
X146949182Y-103287568D01*
X146888860Y-103446625D01*
X146888859Y-103446630D01*
X146868355Y-103615500D01*
X142145527Y-103615500D01*
X142082052Y-103559266D01*
X142082049Y-103559263D01*
X141931426Y-103480210D01*
X141766256Y-103439500D01*
X141596144Y-103439500D01*
X141430973Y-103480210D01*
X141280350Y-103559263D01*
X141153016Y-103672072D01*
X141056382Y-103812068D01*
X140996060Y-103971125D01*
X140996059Y-103971130D01*
X140975555Y-104140000D01*
X139785938Y-104140000D01*
X139771624Y-103994668D01*
X139714414Y-103806073D01*
X139621510Y-103632262D01*
X139621507Y-103632258D01*
X139618123Y-103627193D01*
X139619764Y-103626096D01*
X139596005Y-103570161D01*
X139607794Y-103501293D01*
X139618488Y-103484651D01*
X139618123Y-103484407D01*
X139621504Y-103479344D01*
X139621510Y-103479338D01*
X139714414Y-103305527D01*
X139771624Y-103116932D01*
X139790941Y-102920800D01*
X139771624Y-102724668D01*
X139714414Y-102536073D01*
X139621510Y-102362262D01*
X139621507Y-102362258D01*
X139618123Y-102357193D01*
X139619764Y-102356096D01*
X139596005Y-102300161D01*
X139607794Y-102231293D01*
X139618488Y-102214651D01*
X139618123Y-102214407D01*
X139621504Y-102209344D01*
X139621510Y-102209338D01*
X139714414Y-102035527D01*
X139730955Y-101981000D01*
X146614355Y-101981000D01*
X146634859Y-102149869D01*
X146634860Y-102149874D01*
X146695182Y-102308931D01*
X146731998Y-102362267D01*
X146791817Y-102448929D01*
X146890175Y-102536066D01*
X146919150Y-102561736D01*
X147069773Y-102640789D01*
X147069775Y-102640790D01*
X147234944Y-102681500D01*
X147412557Y-102681500D01*
X147412557Y-102683474D01*
X147419196Y-102684577D01*
X147427504Y-102677694D01*
X147446836Y-102671202D01*
X147570225Y-102640790D01*
X147664691Y-102591210D01*
X147720849Y-102561736D01*
X147720850Y-102561734D01*
X147720852Y-102561734D01*
X147848183Y-102448929D01*
X147944818Y-102308930D01*
X148005140Y-102149872D01*
X148025645Y-101981000D01*
X148005140Y-101812128D01*
X147944818Y-101653070D01*
X147848183Y-101513071D01*
X147720852Y-101400266D01*
X147720849Y-101400263D01*
X147570226Y-101321210D01*
X147405056Y-101280500D01*
X147234944Y-101280500D01*
X147069773Y-101321210D01*
X146919150Y-101400263D01*
X146791816Y-101513072D01*
X146695182Y-101653068D01*
X146634860Y-101812125D01*
X146634859Y-101812130D01*
X146614355Y-101981000D01*
X139730955Y-101981000D01*
X139771624Y-101846932D01*
X139790941Y-101650800D01*
X139771624Y-101454668D01*
X139714414Y-101266073D01*
X139621510Y-101092262D01*
X139621507Y-101092258D01*
X139618123Y-101087193D01*
X139619764Y-101086096D01*
X139596005Y-101030161D01*
X139607794Y-100961293D01*
X139618488Y-100944651D01*
X139618123Y-100944407D01*
X139621504Y-100939344D01*
X139621510Y-100939338D01*
X139714414Y-100765527D01*
X139771624Y-100576932D01*
X139790941Y-100380800D01*
X139778433Y-100253800D01*
X144912555Y-100253800D01*
X144933059Y-100422669D01*
X144933060Y-100422674D01*
X144993382Y-100581731D01*
X145055675Y-100671977D01*
X145090017Y-100721729D01*
X145139462Y-100765533D01*
X145217350Y-100834536D01*
X145367973Y-100913589D01*
X145367975Y-100913590D01*
X145533144Y-100954300D01*
X145703256Y-100954300D01*
X145868425Y-100913590D01*
X145947892Y-100871881D01*
X146019049Y-100834536D01*
X146019050Y-100834534D01*
X146019052Y-100834534D01*
X146146383Y-100721729D01*
X146243018Y-100581730D01*
X146303340Y-100422672D01*
X146323845Y-100253800D01*
X146303340Y-100084928D01*
X146243018Y-99925870D01*
X146222352Y-99895931D01*
X146208676Y-99876118D01*
X146146383Y-99785871D01*
X146021506Y-99675240D01*
X146019049Y-99673063D01*
X145868426Y-99594010D01*
X145762897Y-99568000D01*
X146563555Y-99568000D01*
X146584059Y-99736869D01*
X146584060Y-99736874D01*
X146644382Y-99895931D01*
X146665048Y-99925870D01*
X146741017Y-100035929D01*
X146846705Y-100129560D01*
X146868350Y-100148736D01*
X147018973Y-100227789D01*
X147018975Y-100227790D01*
X147184144Y-100268500D01*
X147354256Y-100268500D01*
X147519425Y-100227790D01*
X147601586Y-100184668D01*
X147670049Y-100148736D01*
X147670050Y-100148734D01*
X147670052Y-100148734D01*
X147797383Y-100035929D01*
X147894018Y-99895930D01*
X147954340Y-99736872D01*
X147974845Y-99568000D01*
X147954340Y-99399128D01*
X147894018Y-99240070D01*
X147886286Y-99228869D01*
X147844344Y-99168106D01*
X147797383Y-99100071D01*
X147670052Y-98987266D01*
X147670049Y-98987263D01*
X147519426Y-98908210D01*
X147354256Y-98867500D01*
X147184144Y-98867500D01*
X147018973Y-98908210D01*
X146868350Y-98987263D01*
X146741016Y-99100072D01*
X146644382Y-99240068D01*
X146584060Y-99399125D01*
X146584059Y-99399130D01*
X146563555Y-99568000D01*
X145762897Y-99568000D01*
X145703256Y-99553300D01*
X145533144Y-99553300D01*
X145367973Y-99594010D01*
X145217350Y-99673063D01*
X145090016Y-99785872D01*
X144993382Y-99925868D01*
X144933060Y-100084925D01*
X144933059Y-100084930D01*
X144912555Y-100253800D01*
X139778433Y-100253800D01*
X139771624Y-100184668D01*
X139714414Y-99996073D01*
X139621510Y-99822262D01*
X139621506Y-99822257D01*
X139618126Y-99817199D01*
X139619644Y-99816184D01*
X139595681Y-99759762D01*
X139607472Y-99690894D01*
X139618092Y-99674374D01*
X139617711Y-99674120D01*
X139621097Y-99669052D01*
X139713947Y-99495341D01*
X139754760Y-99360800D01*
X139000083Y-99360800D01*
X139071401Y-99275807D01*
X139110600Y-99168106D01*
X139110600Y-99060000D01*
X140924755Y-99060000D01*
X140945259Y-99228869D01*
X140945260Y-99228874D01*
X141005582Y-99387931D01*
X141049797Y-99451986D01*
X141102217Y-99527929D01*
X141207905Y-99621560D01*
X141229550Y-99640736D01*
X141380173Y-99719789D01*
X141380175Y-99719790D01*
X141545344Y-99760500D01*
X141715456Y-99760500D01*
X141880625Y-99719790D01*
X141977297Y-99669052D01*
X142031249Y-99640736D01*
X142031250Y-99640734D01*
X142031252Y-99640734D01*
X142158583Y-99527929D01*
X142255218Y-99387930D01*
X142315540Y-99228872D01*
X142336045Y-99060000D01*
X142315540Y-98891128D01*
X142302974Y-98857995D01*
X142255217Y-98732068D01*
X142217005Y-98676710D01*
X142158583Y-98592071D01*
X142031252Y-98479266D01*
X142031249Y-98479263D01*
X141880626Y-98400210D01*
X141715456Y-98359500D01*
X141545344Y-98359500D01*
X141380173Y-98400210D01*
X141229550Y-98479263D01*
X141102216Y-98592072D01*
X141005582Y-98732068D01*
X140945260Y-98891125D01*
X140945259Y-98891130D01*
X140924755Y-99060000D01*
X139110600Y-99060000D01*
X139110600Y-99053494D01*
X139071401Y-98945793D01*
X139000083Y-98860800D01*
X139754760Y-98860800D01*
X139754760Y-98860799D01*
X139713947Y-98726258D01*
X139621096Y-98552546D01*
X139617710Y-98547478D01*
X139619384Y-98546359D01*
X139595681Y-98490546D01*
X139607474Y-98421679D01*
X139618439Y-98404618D01*
X139618123Y-98404407D01*
X139621504Y-98399344D01*
X139621510Y-98399338D01*
X139714414Y-98225527D01*
X139771624Y-98036932D01*
X139790941Y-97840800D01*
X139785938Y-97790000D01*
X146614355Y-97790000D01*
X146634859Y-97958869D01*
X146634860Y-97958874D01*
X146695182Y-98117931D01*
X146757475Y-98208177D01*
X146791817Y-98257929D01*
X146863158Y-98321131D01*
X146919150Y-98370736D01*
X147069773Y-98449789D01*
X147069775Y-98449790D01*
X147234944Y-98490500D01*
X147405056Y-98490500D01*
X147570225Y-98449790D01*
X147666364Y-98399332D01*
X147720849Y-98370736D01*
X147720850Y-98370734D01*
X147720852Y-98370734D01*
X147848183Y-98257929D01*
X147944818Y-98117930D01*
X147992121Y-97993200D01*
X155478955Y-97993200D01*
X155499459Y-98162069D01*
X155499460Y-98162074D01*
X155559782Y-98321131D01*
X155614367Y-98400210D01*
X155656417Y-98461129D01*
X155734957Y-98530709D01*
X155783750Y-98573936D01*
X155934373Y-98652989D01*
X155934375Y-98652990D01*
X156099544Y-98693700D01*
X156269656Y-98693700D01*
X156434825Y-98652990D01*
X156514292Y-98611281D01*
X156585449Y-98573936D01*
X156585450Y-98573934D01*
X156585452Y-98573934D01*
X156712783Y-98461129D01*
X156809418Y-98321130D01*
X156869740Y-98162072D01*
X156890245Y-97993200D01*
X156869740Y-97824328D01*
X156809418Y-97665270D01*
X156795197Y-97644668D01*
X156775076Y-97615518D01*
X156712783Y-97525271D01*
X156585452Y-97412466D01*
X156585449Y-97412463D01*
X156434826Y-97333410D01*
X156269656Y-97292700D01*
X156099544Y-97292700D01*
X155934373Y-97333410D01*
X155783750Y-97412463D01*
X155656416Y-97525272D01*
X155559782Y-97665268D01*
X155499460Y-97824325D01*
X155499459Y-97824330D01*
X155478955Y-97993200D01*
X147992121Y-97993200D01*
X148005140Y-97958872D01*
X148025645Y-97790000D01*
X148005140Y-97621128D01*
X147944818Y-97462070D01*
X147848183Y-97322071D01*
X147720852Y-97209266D01*
X147720849Y-97209263D01*
X147570226Y-97130210D01*
X147405056Y-97089500D01*
X147234944Y-97089500D01*
X147069773Y-97130210D01*
X146919150Y-97209263D01*
X146791816Y-97322072D01*
X146695182Y-97462068D01*
X146634860Y-97621125D01*
X146634859Y-97621130D01*
X146614355Y-97790000D01*
X139785938Y-97790000D01*
X139771624Y-97644668D01*
X139714414Y-97456073D01*
X139621510Y-97282262D01*
X139621507Y-97282258D01*
X139618123Y-97277193D01*
X139619764Y-97276096D01*
X139596005Y-97220161D01*
X139607794Y-97151293D01*
X139618488Y-97134651D01*
X139618123Y-97134407D01*
X139621504Y-97129344D01*
X139621510Y-97129338D01*
X139714414Y-96955527D01*
X139769480Y-96774000D01*
X141280355Y-96774000D01*
X141300859Y-96942869D01*
X141300860Y-96942874D01*
X141361182Y-97101931D01*
X141395255Y-97151293D01*
X141457817Y-97241929D01*
X141515126Y-97292700D01*
X141585150Y-97354736D01*
X141735773Y-97433789D01*
X141735775Y-97433790D01*
X141900944Y-97474500D01*
X142071056Y-97474500D01*
X142236225Y-97433790D01*
X142315692Y-97392081D01*
X142386849Y-97354736D01*
X142386850Y-97354734D01*
X142386852Y-97354734D01*
X142514183Y-97241929D01*
X142610818Y-97101930D01*
X142671140Y-96942872D01*
X142691645Y-96774000D01*
X142671140Y-96605128D01*
X142610818Y-96446070D01*
X142514183Y-96306071D01*
X142386852Y-96193266D01*
X142386849Y-96193263D01*
X142236226Y-96114210D01*
X142071056Y-96073500D01*
X141900944Y-96073500D01*
X141735773Y-96114210D01*
X141585150Y-96193263D01*
X141457816Y-96306072D01*
X141361182Y-96446068D01*
X141300860Y-96605125D01*
X141300859Y-96605130D01*
X141280355Y-96774000D01*
X139769480Y-96774000D01*
X139771624Y-96766932D01*
X139790941Y-96570800D01*
X139771624Y-96374668D01*
X139714414Y-96186073D01*
X139713277Y-96183946D01*
X139713018Y-96182704D01*
X139712083Y-96180445D01*
X139712511Y-96180267D01*
X139699035Y-96115546D01*
X139723371Y-96051179D01*
X139729396Y-96043131D01*
X139779691Y-95908283D01*
X139786100Y-95848673D01*
X139786099Y-94792800D01*
X145242755Y-94792800D01*
X145263259Y-94961669D01*
X145263260Y-94961674D01*
X145323582Y-95120731D01*
X145385875Y-95210977D01*
X145420217Y-95260729D01*
X145510712Y-95340900D01*
X145547550Y-95373536D01*
X145698173Y-95452589D01*
X145698175Y-95452590D01*
X145863344Y-95493300D01*
X146033456Y-95493300D01*
X146198625Y-95452590D01*
X146278092Y-95410881D01*
X146349249Y-95373536D01*
X146349250Y-95373534D01*
X146349252Y-95373534D01*
X146476583Y-95260729D01*
X146573218Y-95120730D01*
X146633540Y-94961672D01*
X146649495Y-94830271D01*
X146677115Y-94766096D01*
X146735049Y-94727039D01*
X146802264Y-94724823D01*
X146811256Y-94727039D01*
X146828542Y-94731299D01*
X146828543Y-94731300D01*
X146828544Y-94731300D01*
X146998656Y-94731300D01*
X147163825Y-94690590D01*
X147259453Y-94640400D01*
X147314449Y-94611536D01*
X147314450Y-94611534D01*
X147314452Y-94611534D01*
X147441783Y-94498729D01*
X147449189Y-94488000D01*
X149103555Y-94488000D01*
X149124059Y-94656869D01*
X149124060Y-94656874D01*
X149184382Y-94815931D01*
X149246675Y-94906177D01*
X149281017Y-94955929D01*
X149386705Y-95049560D01*
X149408350Y-95068736D01*
X149558973Y-95147789D01*
X149558975Y-95147790D01*
X149724144Y-95188500D01*
X149894256Y-95188500D01*
X150059425Y-95147790D01*
X150138892Y-95106081D01*
X150210049Y-95068736D01*
X150210050Y-95068734D01*
X150210052Y-95068734D01*
X150337383Y-94955929D01*
X150434018Y-94815930D01*
X150480658Y-94692947D01*
X150522835Y-94637246D01*
X150588433Y-94613188D01*
X150656623Y-94628415D01*
X150705757Y-94678090D01*
X150712539Y-94692943D01*
X150734803Y-94751648D01*
X150759182Y-94815931D01*
X150821475Y-94906177D01*
X150855817Y-94955929D01*
X150961505Y-95049560D01*
X150983150Y-95068736D01*
X151133773Y-95147789D01*
X151133775Y-95147790D01*
X151298944Y-95188500D01*
X151469056Y-95188500D01*
X151634225Y-95147790D01*
X151713692Y-95106081D01*
X151784849Y-95068736D01*
X151784850Y-95068734D01*
X151784852Y-95068734D01*
X151912183Y-94955929D01*
X152008818Y-94815930D01*
X152069140Y-94656872D01*
X152071140Y-94640400D01*
X152405555Y-94640400D01*
X152426059Y-94809269D01*
X152426060Y-94809274D01*
X152486382Y-94968331D01*
X152548675Y-95058577D01*
X152583017Y-95108329D01*
X152673512Y-95188500D01*
X152710350Y-95221136D01*
X152860973Y-95300189D01*
X152860975Y-95300190D01*
X153026144Y-95340900D01*
X153196256Y-95340900D01*
X153361425Y-95300190D01*
X153440892Y-95258481D01*
X153512049Y-95221136D01*
X153512050Y-95221134D01*
X153512052Y-95221134D01*
X153639383Y-95108329D01*
X153736018Y-94968330D01*
X153796340Y-94809272D01*
X153816845Y-94640400D01*
X153796340Y-94471528D01*
X153785616Y-94443252D01*
X153774431Y-94413758D01*
X153736018Y-94312470D01*
X153732041Y-94306709D01*
X153701676Y-94262718D01*
X153639383Y-94172471D01*
X153512052Y-94059666D01*
X153512049Y-94059663D01*
X153361426Y-93980610D01*
X153196256Y-93939900D01*
X153026144Y-93939900D01*
X152860973Y-93980610D01*
X152710350Y-94059663D01*
X152583016Y-94172472D01*
X152486382Y-94312468D01*
X152426060Y-94471525D01*
X152426059Y-94471530D01*
X152405555Y-94640400D01*
X152071140Y-94640400D01*
X152089645Y-94488000D01*
X152069140Y-94319128D01*
X152061092Y-94297908D01*
X152028536Y-94212063D01*
X152008818Y-94160070D01*
X151912183Y-94020071D01*
X151784852Y-93907266D01*
X151784849Y-93907263D01*
X151634226Y-93828210D01*
X151469056Y-93787500D01*
X151298944Y-93787500D01*
X151133773Y-93828210D01*
X150983150Y-93907263D01*
X150855816Y-94020072D01*
X150759182Y-94160068D01*
X150759182Y-94160069D01*
X150712542Y-94283051D01*
X150670364Y-94338754D01*
X150604767Y-94362811D01*
X150536576Y-94347584D01*
X150487443Y-94297908D01*
X150480658Y-94283051D01*
X150453736Y-94212063D01*
X150434018Y-94160070D01*
X150337383Y-94020071D01*
X150210052Y-93907266D01*
X150210049Y-93907263D01*
X150059426Y-93828210D01*
X149894256Y-93787500D01*
X149724144Y-93787500D01*
X149558973Y-93828210D01*
X149408350Y-93907263D01*
X149281016Y-94020072D01*
X149184382Y-94160068D01*
X149124060Y-94319125D01*
X149124059Y-94319130D01*
X149103555Y-94488000D01*
X147449189Y-94488000D01*
X147538418Y-94358730D01*
X147598740Y-94199672D01*
X147619245Y-94030800D01*
X147598740Y-93861928D01*
X147538418Y-93702870D01*
X147441783Y-93562871D01*
X147314452Y-93450066D01*
X147314449Y-93450063D01*
X147163826Y-93371010D01*
X146998656Y-93330300D01*
X146828544Y-93330300D01*
X146663373Y-93371010D01*
X146512750Y-93450063D01*
X146385416Y-93562872D01*
X146288782Y-93702868D01*
X146228460Y-93861925D01*
X146228459Y-93861931D01*
X146212505Y-93993326D01*
X146184883Y-94057504D01*
X146126949Y-94096560D01*
X146059737Y-94098777D01*
X146041064Y-94094175D01*
X146033456Y-94092300D01*
X145863344Y-94092300D01*
X145698173Y-94133010D01*
X145547550Y-94212063D01*
X145420216Y-94324872D01*
X145323582Y-94464868D01*
X145263260Y-94623925D01*
X145263259Y-94623930D01*
X145242755Y-94792800D01*
X139786099Y-94792800D01*
X139786099Y-94752928D01*
X139779691Y-94693317D01*
X139779553Y-94692948D01*
X139729397Y-94558471D01*
X139729393Y-94558464D01*
X139643147Y-94443255D01*
X139643144Y-94443252D01*
X139527935Y-94357006D01*
X139527928Y-94357002D01*
X139393082Y-94306708D01*
X139393083Y-94306708D01*
X139333483Y-94300301D01*
X139333481Y-94300300D01*
X139333473Y-94300300D01*
X139333464Y-94300300D01*
X138237729Y-94300300D01*
X138237723Y-94300301D01*
X138178116Y-94306708D01*
X138043271Y-94357002D01*
X138043264Y-94357006D01*
X137928055Y-94443252D01*
X137928052Y-94443255D01*
X137841806Y-94558464D01*
X137841802Y-94558471D01*
X137791508Y-94693317D01*
X137787883Y-94727039D01*
X137785101Y-94752923D01*
X137785100Y-94752935D01*
X137785100Y-95848670D01*
X137785101Y-95848676D01*
X137791508Y-95908283D01*
X137841802Y-96043128D01*
X137841804Y-96043131D01*
X137847831Y-96051182D01*
X137872248Y-96116646D01*
X137858705Y-96180270D01*
X137859118Y-96180441D01*
X137858195Y-96182669D01*
X137857924Y-96183943D01*
X137856788Y-96186067D01*
X137799575Y-96374670D01*
X137780259Y-96570800D01*
X137799575Y-96766929D01*
X137856788Y-96955533D01*
X137949686Y-97129332D01*
X137953073Y-97134401D01*
X137951436Y-97135494D01*
X137975196Y-97191463D01*
X137963395Y-97260329D01*
X137952709Y-97276956D01*
X137953073Y-97277199D01*
X137949686Y-97282267D01*
X137856788Y-97456066D01*
X137799575Y-97644670D01*
X137780259Y-97840800D01*
X137799575Y-98036929D01*
X137856788Y-98225533D01*
X137949686Y-98399332D01*
X137953073Y-98404401D01*
X137951555Y-98405415D01*
X137975518Y-98461842D01*
X137963724Y-98530709D01*
X137953115Y-98547220D01*
X137953493Y-98547473D01*
X137950105Y-98552542D01*
X137857252Y-98726258D01*
X137816439Y-98860799D01*
X137816440Y-98860800D01*
X138571117Y-98860800D01*
X138499799Y-98945793D01*
X138460600Y-99053494D01*
X138460600Y-99168106D01*
X138499799Y-99275807D01*
X138571117Y-99360800D01*
X137816440Y-99360800D01*
X137857252Y-99495341D01*
X137950103Y-99669053D01*
X137953490Y-99674122D01*
X137951815Y-99675240D01*
X137975518Y-99731059D01*
X137963723Y-99799925D01*
X137952758Y-99816988D01*
X137953073Y-99817199D01*
X137949686Y-99822267D01*
X137856788Y-99996066D01*
X137799575Y-100184670D01*
X137780259Y-100380800D01*
X137799575Y-100576929D01*
X137856788Y-100765533D01*
X137949686Y-100939332D01*
X137953073Y-100944401D01*
X137951436Y-100945494D01*
X137975196Y-101001463D01*
X137963395Y-101070329D01*
X137952709Y-101086956D01*
X137953073Y-101087199D01*
X137949686Y-101092267D01*
X137856788Y-101266066D01*
X137799575Y-101454670D01*
X137780259Y-101650800D01*
X137799575Y-101846929D01*
X137856788Y-102035533D01*
X137949686Y-102209332D01*
X137953073Y-102214401D01*
X137951436Y-102215494D01*
X137975196Y-102271463D01*
X137963395Y-102340329D01*
X137952709Y-102356956D01*
X137953073Y-102357199D01*
X137949686Y-102362267D01*
X137856788Y-102536066D01*
X137799575Y-102724670D01*
X137780259Y-102920800D01*
X137799575Y-103116929D01*
X137856788Y-103305533D01*
X137949686Y-103479332D01*
X137953073Y-103484401D01*
X137951436Y-103485494D01*
X137975196Y-103541463D01*
X137963395Y-103610329D01*
X137952709Y-103626956D01*
X137953073Y-103627199D01*
X137949686Y-103632267D01*
X137856788Y-103806066D01*
X137799575Y-103994670D01*
X137780259Y-104190800D01*
X134649761Y-104190800D01*
X134678495Y-93939900D01*
X134682797Y-92405200D01*
X141331155Y-92405200D01*
X141351659Y-92574069D01*
X141351660Y-92574074D01*
X141411982Y-92733131D01*
X141474275Y-92823377D01*
X141508617Y-92873129D01*
X141565959Y-92923929D01*
X141635950Y-92985936D01*
X141786573Y-93064989D01*
X141786575Y-93064990D01*
X141951744Y-93105700D01*
X142121856Y-93105700D01*
X142287025Y-93064990D01*
X142366492Y-93023281D01*
X142437649Y-92985936D01*
X142437650Y-92985934D01*
X142437652Y-92985934D01*
X142564983Y-92873129D01*
X142661618Y-92733130D01*
X142721940Y-92574072D01*
X142736277Y-92456000D01*
X153472355Y-92456000D01*
X153492859Y-92624869D01*
X153492860Y-92624874D01*
X153553182Y-92783931D01*
X153614751Y-92873127D01*
X153649817Y-92923929D01*
X153719809Y-92985936D01*
X153777150Y-93036736D01*
X153908550Y-93105700D01*
X153927775Y-93115790D01*
X154092944Y-93156500D01*
X154263056Y-93156500D01*
X154428225Y-93115790D01*
X154525017Y-93064989D01*
X154578849Y-93036736D01*
X154578850Y-93036734D01*
X154578852Y-93036734D01*
X154706183Y-92923929D01*
X154802818Y-92783930D01*
X154863140Y-92624872D01*
X154883645Y-92456000D01*
X154863140Y-92287128D01*
X154802818Y-92128070D01*
X154706183Y-91988071D01*
X154578852Y-91875266D01*
X154563667Y-91867296D01*
X154513455Y-91818713D01*
X154497480Y-91750694D01*
X154520815Y-91684836D01*
X154563667Y-91647703D01*
X154578852Y-91639734D01*
X154706183Y-91526929D01*
X154802818Y-91386930D01*
X154863140Y-91227872D01*
X154883645Y-91059000D01*
X154863140Y-90890128D01*
X154802818Y-90731070D01*
X154706183Y-90591071D01*
X154578852Y-90478266D01*
X154563667Y-90470296D01*
X154513455Y-90421713D01*
X154497480Y-90353694D01*
X154520815Y-90287836D01*
X154563667Y-90250703D01*
X154578852Y-90242734D01*
X154706183Y-90129929D01*
X154802818Y-89989930D01*
X154863140Y-89830872D01*
X154883645Y-89662000D01*
X154863140Y-89493128D01*
X154802818Y-89334070D01*
X154706183Y-89194071D01*
X154622363Y-89119813D01*
X154585238Y-89060626D01*
X154586006Y-88990761D01*
X154622363Y-88934186D01*
X154706183Y-88859929D01*
X154802818Y-88719930D01*
X154863140Y-88560872D01*
X154883645Y-88392000D01*
X154863140Y-88223128D01*
X154802818Y-88064070D01*
X154706183Y-87924071D01*
X154578852Y-87811266D01*
X154578849Y-87811263D01*
X154428226Y-87732210D01*
X154263056Y-87691500D01*
X154092944Y-87691500D01*
X153927773Y-87732210D01*
X153777150Y-87811263D01*
X153649816Y-87924072D01*
X153553182Y-88064068D01*
X153492860Y-88223125D01*
X153492859Y-88223130D01*
X153472355Y-88392000D01*
X153492859Y-88560869D01*
X153492860Y-88560874D01*
X153553182Y-88719931D01*
X153649818Y-88859930D01*
X153733634Y-88934185D01*
X153770761Y-88993374D01*
X153769993Y-89063240D01*
X153733634Y-89119815D01*
X153649818Y-89194069D01*
X153553182Y-89334068D01*
X153492860Y-89493125D01*
X153492859Y-89493130D01*
X153472355Y-89662000D01*
X153492859Y-89830869D01*
X153492860Y-89830874D01*
X153553182Y-89989931D01*
X153615475Y-90080177D01*
X153649817Y-90129929D01*
X153777148Y-90242734D01*
X153787974Y-90248416D01*
X153792333Y-90250704D01*
X153842545Y-90299289D01*
X153858519Y-90367309D01*
X153835183Y-90433166D01*
X153792333Y-90470296D01*
X153777149Y-90478265D01*
X153649816Y-90591072D01*
X153553182Y-90731068D01*
X153492860Y-90890125D01*
X153492859Y-90890130D01*
X153472355Y-91059000D01*
X153492859Y-91227869D01*
X153492860Y-91227874D01*
X153553182Y-91386931D01*
X153615475Y-91477177D01*
X153649817Y-91526929D01*
X153777148Y-91639734D01*
X153787974Y-91645416D01*
X153792333Y-91647704D01*
X153842545Y-91696289D01*
X153858519Y-91764309D01*
X153835183Y-91830166D01*
X153792333Y-91867296D01*
X153777149Y-91875265D01*
X153649816Y-91988072D01*
X153553182Y-92128068D01*
X153492860Y-92287125D01*
X153492859Y-92287130D01*
X153472355Y-92456000D01*
X142736277Y-92456000D01*
X142742445Y-92405200D01*
X142721940Y-92236328D01*
X142661618Y-92077270D01*
X142564983Y-91937271D01*
X142437652Y-91824466D01*
X142437649Y-91824463D01*
X142287026Y-91745410D01*
X142121856Y-91704700D01*
X141951744Y-91704700D01*
X141786573Y-91745410D01*
X141635950Y-91824463D01*
X141508616Y-91937272D01*
X141411982Y-92077268D01*
X141351660Y-92236325D01*
X141351659Y-92236330D01*
X141331155Y-92405200D01*
X134682797Y-92405200D01*
X134705660Y-84248803D01*
X152391615Y-84248803D01*
X152411938Y-84597727D01*
X152411939Y-84597738D01*
X152472628Y-84941927D01*
X152472630Y-84941934D01*
X152572874Y-85276772D01*
X152711307Y-85597695D01*
X152711313Y-85597708D01*
X152886070Y-85900397D01*
X153094784Y-86180749D01*
X153094789Y-86180755D01*
X153218663Y-86312053D01*
X153334642Y-86434983D01*
X153393589Y-86484445D01*
X153602386Y-86659647D01*
X153602394Y-86659653D01*
X153894403Y-86851711D01*
X153894407Y-86851713D01*
X154206749Y-87008577D01*
X154535189Y-87128119D01*
X154875286Y-87208723D01*
X155222441Y-87249300D01*
X155222448Y-87249300D01*
X155571952Y-87249300D01*
X155571959Y-87249300D01*
X155919114Y-87208723D01*
X156259211Y-87128119D01*
X156587651Y-87008577D01*
X156899993Y-86851713D01*
X157192011Y-86659649D01*
X157459758Y-86434983D01*
X157699612Y-86180753D01*
X157908330Y-85900396D01*
X158083089Y-85597704D01*
X158221526Y-85276771D01*
X158321769Y-84941936D01*
X158336832Y-84856512D01*
X158382460Y-84597738D01*
X158382459Y-84597738D01*
X158382462Y-84597727D01*
X158402785Y-84248800D01*
X158402416Y-84242470D01*
X158398754Y-84179596D01*
X158392604Y-84074003D01*
X159046916Y-84074003D01*
X159067235Y-84422869D01*
X159067236Y-84422880D01*
X159127914Y-84767002D01*
X159127916Y-84767011D01*
X159228145Y-85101800D01*
X159366555Y-85422670D01*
X159366561Y-85422683D01*
X159541289Y-85725322D01*
X159749972Y-86005631D01*
X159749976Y-86005636D01*
X159758147Y-86014297D01*
X159758148Y-86014298D01*
X161005665Y-84766781D01*
X161144855Y-84941320D01*
X161314299Y-85089358D01*
X161361808Y-85117743D01*
X160114817Y-86364733D01*
X160114818Y-86364734D01*
X160257480Y-86484442D01*
X160549461Y-86676480D01*
X160861739Y-86833314D01*
X160861745Y-86833316D01*
X161190130Y-86952838D01*
X161190133Y-86952839D01*
X161530171Y-87033429D01*
X161877276Y-87073999D01*
X161877277Y-87074000D01*
X162226723Y-87074000D01*
X162226723Y-87073999D01*
X162573827Y-87033429D01*
X162573829Y-87033429D01*
X162913866Y-86952839D01*
X162913869Y-86952838D01*
X163242254Y-86833316D01*
X163242260Y-86833314D01*
X163554538Y-86676480D01*
X163846515Y-86484445D01*
X163989180Y-86364734D01*
X163989181Y-86364733D01*
X162742125Y-85117678D01*
X162877747Y-85019144D01*
X163033239Y-84856512D01*
X163094801Y-84763248D01*
X164345850Y-86014297D01*
X164354032Y-86005625D01*
X164562710Y-85725322D01*
X164737438Y-85422683D01*
X164737444Y-85422670D01*
X164875854Y-85101800D01*
X164976083Y-84767011D01*
X164976085Y-84767002D01*
X165036763Y-84422880D01*
X165036764Y-84422869D01*
X165057084Y-84074003D01*
X165057084Y-84073996D01*
X165036764Y-83725130D01*
X165036763Y-83725119D01*
X164976085Y-83380997D01*
X164976083Y-83380988D01*
X164875854Y-83046199D01*
X164737444Y-82725329D01*
X164737438Y-82725316D01*
X164562710Y-82422677D01*
X164354029Y-82142371D01*
X164345850Y-82133701D01*
X164345850Y-82133700D01*
X163098333Y-83381217D01*
X162959145Y-83206680D01*
X162789701Y-83058642D01*
X162742191Y-83030256D01*
X163989181Y-81783265D01*
X163989180Y-81783264D01*
X163846519Y-81663557D01*
X163554538Y-81471519D01*
X163242260Y-81314685D01*
X163242254Y-81314683D01*
X162913869Y-81195161D01*
X162913866Y-81195160D01*
X162573828Y-81114570D01*
X162226723Y-81074000D01*
X161877277Y-81074000D01*
X161530172Y-81114570D01*
X161530170Y-81114570D01*
X161190133Y-81195160D01*
X161190130Y-81195161D01*
X160861745Y-81314683D01*
X160861739Y-81314685D01*
X160549461Y-81471519D01*
X160257485Y-81663554D01*
X160114817Y-81783264D01*
X161361874Y-83030321D01*
X161226253Y-83128856D01*
X161070761Y-83291488D01*
X161009198Y-83384751D01*
X159758148Y-82133701D01*
X159758146Y-82133701D01*
X159749973Y-82142366D01*
X159541289Y-82422677D01*
X159366561Y-82725316D01*
X159366555Y-82725329D01*
X159228145Y-83046199D01*
X159127916Y-83380988D01*
X159127914Y-83380997D01*
X159067236Y-83725119D01*
X159067235Y-83725130D01*
X159046916Y-84073996D01*
X159046916Y-84074003D01*
X158392604Y-84074003D01*
X158382462Y-83899873D01*
X158363922Y-83794725D01*
X158321771Y-83555672D01*
X158321769Y-83555665D01*
X158298898Y-83479270D01*
X158221526Y-83220829D01*
X158083089Y-82899896D01*
X157908330Y-82597204D01*
X157908329Y-82597202D01*
X157699615Y-82316850D01*
X157699610Y-82316844D01*
X157526821Y-82133700D01*
X157459758Y-82062617D01*
X157311688Y-81938372D01*
X157192013Y-81837952D01*
X157192005Y-81837946D01*
X156899996Y-81645888D01*
X156587658Y-81489026D01*
X156587652Y-81489023D01*
X156259212Y-81369481D01*
X156259209Y-81369480D01*
X155919115Y-81288877D01*
X155875719Y-81283804D01*
X155571959Y-81248300D01*
X155222441Y-81248300D01*
X154918680Y-81283804D01*
X154875285Y-81288877D01*
X154875283Y-81288877D01*
X154535190Y-81369480D01*
X154535187Y-81369481D01*
X154206747Y-81489023D01*
X154206741Y-81489026D01*
X153894403Y-81645888D01*
X153602394Y-81837946D01*
X153602386Y-81837952D01*
X153334642Y-82062617D01*
X153334640Y-82062619D01*
X153094789Y-82316844D01*
X153094784Y-82316850D01*
X152886070Y-82597202D01*
X152711313Y-82899891D01*
X152711307Y-82899904D01*
X152572874Y-83220827D01*
X152472630Y-83555665D01*
X152472628Y-83555672D01*
X152411939Y-83899861D01*
X152411938Y-83899872D01*
X152391615Y-84248796D01*
X152391615Y-84248803D01*
X134705660Y-84248803D01*
X134721253Y-78685850D01*
X134741126Y-78618868D01*
X134794058Y-78573262D01*
X134845253Y-78562200D01*
X180444251Y-78562200D01*
X180511290Y-78581885D01*
G37*
%TD.AperFunction*%
%TD*%
M02*
