%TF.GenerationSoftware,KiCad,Pcbnew,7.0.9*%
%TF.CreationDate,2023-12-22T17:16:56+01:00*%
%TF.ProjectId,driver_seperate,64726976-6572-45f7-9365-706572617465,rev?*%
%TF.SameCoordinates,Original*%
%TF.FileFunction,Copper,L1,Top*%
%TF.FilePolarity,Positive*%
%FSLAX46Y46*%
G04 Gerber Fmt 4.6, Leading zero omitted, Abs format (unit mm)*
G04 Created by KiCad (PCBNEW 7.0.9) date 2023-12-22 17:16:56*
%MOMM*%
%LPD*%
G01*
G04 APERTURE LIST*
G04 Aperture macros list*
%AMRoundRect*
0 Rectangle with rounded corners*
0 $1 Rounding radius*
0 $2 $3 $4 $5 $6 $7 $8 $9 X,Y pos of 4 corners*
0 Add a 4 corners polygon primitive as box body*
4,1,4,$2,$3,$4,$5,$6,$7,$8,$9,$2,$3,0*
0 Add four circle primitives for the rounded corners*
1,1,$1+$1,$2,$3*
1,1,$1+$1,$4,$5*
1,1,$1+$1,$6,$7*
1,1,$1+$1,$8,$9*
0 Add four rect primitives between the rounded corners*
20,1,$1+$1,$2,$3,$4,$5,0*
20,1,$1+$1,$4,$5,$6,$7,0*
20,1,$1+$1,$6,$7,$8,$9,0*
20,1,$1+$1,$8,$9,$2,$3,0*%
G04 Aperture macros list end*
%TA.AperFunction,NonConductor*%
%ADD10C,0.200000*%
%TD*%
%TA.AperFunction,ComponentPad*%
%ADD11R,1.000000X1.000000*%
%TD*%
%TA.AperFunction,ComponentPad*%
%ADD12O,1.000000X1.000000*%
%TD*%
%TA.AperFunction,SMDPad,CuDef*%
%ADD13RoundRect,0.237500X-0.237500X0.250000X-0.237500X-0.250000X0.237500X-0.250000X0.237500X0.250000X0*%
%TD*%
%TA.AperFunction,SMDPad,CuDef*%
%ADD14R,0.980000X0.780000*%
%TD*%
%TA.AperFunction,SMDPad,CuDef*%
%ADD15R,1.820000X1.020000*%
%TD*%
%TA.AperFunction,SMDPad,CuDef*%
%ADD16RoundRect,0.237500X-0.250000X-0.237500X0.250000X-0.237500X0.250000X0.237500X-0.250000X0.237500X0*%
%TD*%
%TA.AperFunction,SMDPad,CuDef*%
%ADD17R,3.100000X3.050000*%
%TD*%
%TA.AperFunction,ComponentPad*%
%ADD18C,5.000000*%
%TD*%
%TA.AperFunction,SMDPad,CuDef*%
%ADD19RoundRect,0.250000X0.350000X0.450000X-0.350000X0.450000X-0.350000X-0.450000X0.350000X-0.450000X0*%
%TD*%
%TA.AperFunction,SMDPad,CuDef*%
%ADD20RoundRect,0.160000X-0.160000X0.197500X-0.160000X-0.197500X0.160000X-0.197500X0.160000X0.197500X0*%
%TD*%
%TA.AperFunction,SMDPad,CuDef*%
%ADD21R,1.820000X1.070000*%
%TD*%
%TA.AperFunction,SMDPad,CuDef*%
%ADD22RoundRect,0.237500X0.237500X-0.250000X0.237500X0.250000X-0.237500X0.250000X-0.237500X-0.250000X0*%
%TD*%
%TA.AperFunction,SMDPad,CuDef*%
%ADD23R,2.390000X5.510000*%
%TD*%
%TA.AperFunction,SMDPad,CuDef*%
%ADD24R,0.800000X0.300000*%
%TD*%
%TA.AperFunction,SMDPad,CuDef*%
%ADD25R,0.300000X0.800000*%
%TD*%
%TA.AperFunction,SMDPad,CuDef*%
%ADD26R,3.800000X5.800000*%
%TD*%
%TA.AperFunction,SMDPad,CuDef*%
%ADD27R,5.510000X2.390000*%
%TD*%
%TA.AperFunction,ViaPad*%
%ADD28C,0.400000*%
%TD*%
%TA.AperFunction,Conductor*%
%ADD29C,0.250000*%
%TD*%
%TA.AperFunction,Conductor*%
%ADD30C,0.350000*%
%TD*%
%TA.AperFunction,Conductor*%
%ADD31C,0.500000*%
%TD*%
G04 APERTURE END LIST*
D10*
X134620000Y-78562200D02*
X180594000Y-78562200D01*
X180594000Y-115189000D01*
X134620000Y-115189000D01*
X134620000Y-78562200D01*
D11*
%TO.P,J2,1,Pin_1*%
%TO.N,/FGOUT*%
X147066000Y-111633000D03*
D12*
%TO.P,J2,2,Pin_2*%
%TO.N,/PWM*%
X145796000Y-111633000D03*
%TO.P,J2,3,Pin_3*%
%TO.N,/BRAKE*%
X144526000Y-111633000D03*
%TO.P,J2,4,Pin_4*%
%TO.N,/DIR*%
X143256000Y-111633000D03*
%TO.P,J2,5,Pin_5*%
%TO.N,/nFAULT*%
X141986000Y-111633000D03*
%TD*%
D13*
%TO.P,R2,1*%
%TO.N,Net-(IC1-ILIM)*%
X151511000Y-111355500D03*
%TO.P,R2,2*%
%TO.N,GND*%
X151511000Y-113180500D03*
%TD*%
D14*
%TO.P,C7,1*%
%TO.N,Net-(IC1-ILIM)*%
X149987000Y-111526500D03*
%TO.P,C7,2*%
%TO.N,GND*%
X149987000Y-112926500D03*
%TD*%
D11*
%TO.P,J1,1,Pin_1*%
%TO.N,/U*%
X138785600Y-95300800D03*
D12*
%TO.P,J1,2,Pin_2*%
%TO.N,/V*%
X138785600Y-96570800D03*
%TO.P,J1,3,Pin_3*%
%TO.N,/W*%
X138785600Y-97840800D03*
%TO.P,J1,4,Pin_4*%
%TO.N,GND*%
X138785600Y-99110800D03*
%TO.P,J1,5,Pin_5*%
%TO.N,/H2*%
X138785600Y-100380800D03*
%TO.P,J1,6,Pin_6*%
%TO.N,/H1*%
X138785600Y-101650800D03*
%TO.P,J1,7,Pin_7*%
%TO.N,/H3*%
X138785600Y-102920800D03*
%TO.P,J1,8,Pin_8*%
%TO.N,/SW_BK*%
X138785600Y-104190800D03*
%TD*%
D15*
%TO.P,C2,2*%
%TO.N,/VM*%
X148794400Y-89461800D03*
%TO.P,C2,1*%
%TO.N,Net-(IC1-CP)*%
X148794400Y-92261800D03*
%TD*%
D16*
%TO.P,R4,2*%
%TO.N,/nFAULT*%
X145335000Y-96647000D03*
%TO.P,R4,1*%
%TO.N,/AVDD*%
X143510000Y-96647000D03*
%TD*%
D17*
%TO.P,L1,2*%
%TO.N,/SW_BK*%
X165608000Y-103329200D03*
%TO.P,L1,1*%
%TO.N,Net-(IC1-SW_BK)*%
X165608000Y-97229200D03*
%TD*%
D18*
%TO.P,IN-1,1,1*%
%TO.N,GND*%
X162052000Y-84074000D03*
%TD*%
D19*
%TO.P,R5,1*%
%TO.N,Net-(IC1-VSEL_BK)*%
X145510000Y-98552000D03*
%TO.P,R5,2*%
%TO.N,/AVDD*%
X143510000Y-98552000D03*
%TD*%
D15*
%TO.P,C5,1*%
%TO.N,/AVDD*%
X144933600Y-92306600D03*
%TO.P,C5,2*%
%TO.N,GND*%
X144933600Y-89506600D03*
%TD*%
D20*
%TO.P,R6,1*%
%TO.N,Net-(IC1-SLEW)*%
X149225000Y-105193500D03*
%TO.P,R6,2*%
%TO.N,/AVDD*%
X149225000Y-106388500D03*
%TD*%
D21*
%TO.P,C1,1*%
%TO.N,Net-(IC1-CPH)*%
X159639000Y-96029000D03*
%TO.P,C1,2*%
%TO.N,Net-(IC1-CPL)*%
X159639000Y-98789000D03*
%TD*%
D22*
%TO.P,R3,1*%
%TO.N,/AVDD*%
X157226000Y-109370500D03*
%TO.P,R3,2*%
%TO.N,/FGOUT*%
X157226000Y-107545500D03*
%TD*%
%TO.P,R1,2*%
%TO.N,Net-(IC1-ILIM)*%
X153543000Y-106783500D03*
%TO.P,R1,1*%
%TO.N,/AVDD*%
X153543000Y-108608500D03*
%TD*%
D18*
%TO.P,IN+1,1,1*%
%TO.N,/VM*%
X155397200Y-84248800D03*
%TD*%
D20*
%TO.P,R7,1*%
%TO.N,Net-(IC1-ADVANCE)*%
X150622000Y-105320500D03*
%TO.P,R7,2*%
%TO.N,/AVDD*%
X150622000Y-106515500D03*
%TD*%
D14*
%TO.P,C3,1*%
%TO.N,/VM*%
X151537600Y-90144600D03*
%TO.P,C3,2*%
%TO.N,GND*%
X151537600Y-91544600D03*
%TD*%
D23*
%TO.P,C4,1*%
%TO.N,/VM*%
X156389000Y-90424000D03*
%TO.P,C4,2*%
%TO.N,GND*%
X160909000Y-90424000D03*
%TD*%
D24*
%TO.P,IC1,1,NC*%
%TO.N,unconnected-(IC1-NC-Pad1)*%
X153884000Y-102445000D03*
%TO.P,IC1,2,AGND_1*%
%TO.N,GND*%
X153884000Y-101945000D03*
%TO.P,IC1,3,FB_BK*%
%TO.N,/SW_BK*%
X153884000Y-101445000D03*
%TO.P,IC1,4,GND_BK*%
%TO.N,GND*%
X153884000Y-100945000D03*
%TO.P,IC1,5,SW_BK*%
%TO.N,Net-(IC1-SW_BK)*%
X153884000Y-100445000D03*
%TO.P,IC1,6,CPL*%
%TO.N,Net-(IC1-CPL)*%
X153884000Y-99945000D03*
%TO.P,IC1,7,CPH*%
%TO.N,Net-(IC1-CPH)*%
X153884000Y-99445000D03*
%TO.P,IC1,8,CP*%
%TO.N,Net-(IC1-CP)*%
X153884000Y-98945000D03*
%TO.P,IC1,9,VM_1*%
%TO.N,/VM*%
X153884000Y-98445000D03*
%TO.P,IC1,10,VM_2*%
X153884000Y-97945000D03*
%TO.P,IC1,11,VM_3*%
X153884000Y-97445000D03*
%TO.P,IC1,12,PGND_1*%
%TO.N,GND*%
X153884000Y-96945000D03*
D25*
%TO.P,IC1,13,OUTA_1*%
%TO.N,/U*%
X153134000Y-96195000D03*
%TO.P,IC1,14,OUTA_2*%
X152634000Y-96195000D03*
%TO.P,IC1,15,PGND_2*%
%TO.N,GND*%
X152134000Y-96195000D03*
%TO.P,IC1,16,OUTB_1*%
%TO.N,/V*%
X151634000Y-96195000D03*
%TO.P,IC1,17,OUTB_2*%
X151134000Y-96195000D03*
%TO.P,IC1,18,PGND_3*%
%TO.N,GND*%
X150634000Y-96195000D03*
%TO.P,IC1,19,OUTC_1*%
%TO.N,/W*%
X150134000Y-96195000D03*
%TO.P,IC1,20,OUTC_2*%
X149634000Y-96195000D03*
D24*
%TO.P,IC1,21,DRVOFF*%
%TO.N,GND*%
X148884000Y-96945000D03*
%TO.P,IC1,22,NFAULT*%
%TO.N,/nFAULT*%
X148884000Y-97445000D03*
%TO.P,IC1,23,NSLEEP*%
%TO.N,/AVDD*%
X148884000Y-97945000D03*
%TO.P,IC1,24,VSEL_BK*%
%TO.N,Net-(IC1-VSEL_BK)*%
X148884000Y-98445000D03*
%TO.P,IC1,25,AVDD*%
%TO.N,/AVDD*%
X148884000Y-98945000D03*
%TO.P,IC1,26,AGND_2*%
%TO.N,GND*%
X148884000Y-99445000D03*
%TO.P,IC1,27,HPA*%
%TO.N,/H1*%
X148884000Y-99945000D03*
%TO.P,IC1,28,HNA*%
%TO.N,unconnected-(IC1-HNA-Pad28)*%
X148884000Y-100445000D03*
%TO.P,IC1,29,HPB*%
%TO.N,/H2*%
X148884000Y-100945000D03*
%TO.P,IC1,30,HNB*%
%TO.N,unconnected-(IC1-HNB-Pad30)*%
X148884000Y-101445000D03*
%TO.P,IC1,31,HPC*%
%TO.N,/H3*%
X148884000Y-101945000D03*
%TO.P,IC1,32,HNC*%
%TO.N,unconnected-(IC1-HNC-Pad32)*%
X148884000Y-102445000D03*
D25*
%TO.P,IC1,33,MODE*%
%TO.N,/AVDD*%
X149634000Y-103195000D03*
%TO.P,IC1,34,SLEW*%
%TO.N,Net-(IC1-SLEW)*%
X150134000Y-103195000D03*
%TO.P,IC1,35,ADVANCE*%
%TO.N,Net-(IC1-ADVANCE)*%
X150634000Y-103195000D03*
%TO.P,IC1,36,DIR*%
%TO.N,/DIR*%
X151134000Y-103195000D03*
%TO.P,IC1,37,ILIM*%
%TO.N,Net-(IC1-ILIM)*%
X151634000Y-103195000D03*
%TO.P,IC1,38,BRAKE*%
%TO.N,/BRAKE*%
X152134000Y-103195000D03*
%TO.P,IC1,39,PWM*%
%TO.N,/PWM*%
X152634000Y-103195000D03*
%TO.P,IC1,40,FGOUT*%
%TO.N,/FGOUT*%
X153134000Y-103195000D03*
D26*
%TO.P,IC1,41,EP*%
%TO.N,GND*%
X151384000Y-99695000D03*
%TD*%
D27*
%TO.P,C6,2*%
%TO.N,GND*%
X173482000Y-108584400D03*
%TO.P,C6,1*%
%TO.N,/SW_BK*%
X173482000Y-104064400D03*
%TD*%
D28*
%TO.N,/AVDD*%
X147472400Y-97942400D03*
X147269200Y-99568000D03*
X159283400Y-109372400D03*
%TO.N,Net-(IC1-ILIM)*%
X151714200Y-107924600D03*
X153263600Y-111353600D03*
%TO.N,Net-(IC1-CP)*%
X156184600Y-97993200D03*
%TO.N,GND*%
X148361400Y-114046000D03*
X153466800Y-113182400D03*
%TO.N,/SW_BK*%
X159664400Y-103251000D03*
%TO.N,/H3*%
X147320000Y-101981000D03*
%TO.N,/H1*%
X145491200Y-100126800D03*
%TO.N,/SW_BK*%
X141681200Y-104140000D03*
%TO.N,Net-(IC1-CP)*%
X146913600Y-94030800D03*
%TO.N,/V*%
X151384000Y-94488000D03*
%TO.N,/W*%
X149809200Y-94488000D03*
%TO.N,/U*%
X153111200Y-94640400D03*
%TO.N,/AVDD*%
X155092400Y-107848400D03*
%TO.N,/nFAULT*%
X145948400Y-94792800D03*
%TO.N,/AVDD*%
X147574000Y-103615500D03*
%TO.N,GND*%
X144932400Y-87630000D03*
X152552400Y-92760800D03*
%TO.N,/AVDD*%
X142036800Y-92405200D03*
X141986000Y-96774000D03*
X141630400Y-99060000D03*
%TO.N,/VM*%
X154178000Y-91059000D03*
X154178000Y-92456000D03*
X154178000Y-89662000D03*
X154178000Y-88392000D03*
%TO.N,GND*%
X163449000Y-88392000D03*
X163449000Y-91059000D03*
X163449000Y-92456000D03*
X163449000Y-89662000D03*
X170484800Y-111302800D03*
X172212000Y-111277400D03*
X173939200Y-111277400D03*
X175666400Y-111302800D03*
X151942800Y-101904800D03*
X150672800Y-101904800D03*
X152501600Y-100888800D03*
X150114000Y-100888800D03*
X151282400Y-100888800D03*
X152450800Y-99669600D03*
X150164800Y-99669600D03*
X151282400Y-99669600D03*
X152501600Y-98348800D03*
X150164800Y-98348800D03*
X151282400Y-98348800D03*
X151841200Y-97282000D03*
X150723600Y-97282000D03*
%TD*%
D29*
%TO.N,GND*%
X172186600Y-111302800D02*
X170484800Y-111302800D01*
X172212000Y-111277400D02*
X172212000Y-109778800D01*
X172212000Y-109778800D02*
X173406400Y-108584400D01*
X172212000Y-111277400D02*
X172186600Y-111302800D01*
X172212000Y-111277400D02*
X173939200Y-111277400D01*
X173406400Y-108584400D02*
X173482000Y-108584400D01*
X175641000Y-111277400D02*
X175666400Y-111302800D01*
X173939200Y-111277400D02*
X175641000Y-111277400D01*
%TO.N,/V*%
X151134000Y-94738000D02*
X151134000Y-96195000D01*
X151384000Y-94488000D02*
X151134000Y-94738000D01*
X151634000Y-94738000D02*
X151634000Y-96195000D01*
X151384000Y-94488000D02*
X151634000Y-94738000D01*
%TO.N,/W*%
X149634000Y-94663200D02*
X149634000Y-96195000D01*
X149809200Y-94488000D02*
X149634000Y-94663200D01*
X150134000Y-94812800D02*
X150134000Y-96195000D01*
X149809200Y-94488000D02*
X150134000Y-94812800D01*
%TO.N,/nFAULT*%
X147767000Y-97028000D02*
X148184000Y-97445000D01*
X145716000Y-97028000D02*
X147767000Y-97028000D01*
X145335000Y-96647000D02*
X145716000Y-97028000D01*
X148184000Y-97445000D02*
X148884000Y-97445000D01*
%TO.N,Net-(IC1-VSEL_BK)*%
X148087400Y-98445000D02*
X148884000Y-98445000D01*
X147705804Y-98495000D02*
X148037400Y-98495000D01*
X148037400Y-98495000D02*
X148087400Y-98445000D01*
X145662400Y-98704400D02*
X147496404Y-98704400D01*
X145510000Y-98552000D02*
X145662400Y-98704400D01*
X147496404Y-98704400D02*
X147705804Y-98495000D01*
%TO.N,/AVDD*%
X147892200Y-98945000D02*
X148884000Y-98945000D01*
X147269200Y-99568000D02*
X147892200Y-98945000D01*
%TO.N,/H1*%
X148184000Y-99945000D02*
X148884000Y-99945000D01*
X147634000Y-100495000D02*
X148184000Y-99945000D01*
X145859400Y-100495000D02*
X147634000Y-100495000D01*
X145491200Y-100126800D02*
X145859400Y-100495000D01*
%TO.N,/AVDD*%
X147475000Y-97945000D02*
X147472400Y-97942400D01*
X148884000Y-97945000D02*
X147475000Y-97945000D01*
X159281500Y-109370500D02*
X159283400Y-109372400D01*
X157226000Y-109370500D02*
X159281500Y-109370500D01*
D30*
%TO.N,Net-(IC1-SW_BK)*%
X164285200Y-98552000D02*
X164084000Y-98552000D01*
D29*
%TO.N,/SW_BK*%
X163751800Y-101473000D02*
X155829000Y-101473000D01*
X165608000Y-103329200D02*
X163751800Y-101473000D01*
X166444200Y-104165400D02*
X173381000Y-104165400D01*
X165608000Y-103329200D02*
X166444200Y-104165400D01*
X173381000Y-104165400D02*
X173482000Y-104064400D01*
D30*
%TO.N,Net-(IC1-SW_BK)*%
X165608000Y-97229200D02*
X164285200Y-98552000D01*
D29*
%TO.N,/AVDD*%
X142138400Y-98552000D02*
X143510000Y-98552000D01*
X141630400Y-99060000D02*
X142138400Y-98552000D01*
%TO.N,/SW_BK*%
X138836400Y-104140000D02*
X138785600Y-104190800D01*
X141681200Y-104140000D02*
X138836400Y-104140000D01*
%TO.N,/H2*%
X139349800Y-100945000D02*
X138785600Y-100380800D01*
D31*
%TO.N,GND*%
X136702800Y-88239600D02*
X136779000Y-88163400D01*
X136702800Y-97891600D02*
X136702800Y-88239600D01*
X137922000Y-99110800D02*
X136702800Y-97891600D01*
D29*
%TO.N,/H2*%
X148884000Y-100945000D02*
X139349800Y-100945000D01*
D31*
%TO.N,GND*%
X138785600Y-99110800D02*
X137922000Y-99110800D01*
D29*
%TO.N,/DIR*%
X151536400Y-105032296D02*
X151134000Y-104629896D01*
X151134000Y-104629896D02*
X151134000Y-103195000D01*
X151536400Y-106832400D02*
X151536400Y-105032296D01*
X146841494Y-107340400D02*
X151028400Y-107340400D01*
X143256000Y-110925894D02*
X146841494Y-107340400D01*
X143256000Y-111633000D02*
X143256000Y-110925894D01*
X151028400Y-107340400D02*
X151536400Y-106832400D01*
%TO.N,Net-(IC1-ILIM)*%
X152855300Y-106783500D02*
X153543000Y-106783500D01*
X151714200Y-107924600D02*
X152855300Y-106783500D01*
%TO.N,/AVDD*%
X147994500Y-103195000D02*
X149634000Y-103195000D01*
X147574000Y-103615500D02*
X147994500Y-103195000D01*
X148580000Y-105743500D02*
X149225000Y-106388500D01*
X147574000Y-103615500D02*
X148580000Y-104621500D01*
X148580000Y-104621500D02*
X148580000Y-105743500D01*
%TO.N,GND*%
X151537600Y-91746000D02*
X151537600Y-91544600D01*
X152552400Y-92760800D02*
X151537600Y-91746000D01*
%TO.N,/AVDD*%
X144835000Y-92405200D02*
X144933600Y-92306600D01*
X142036800Y-92405200D02*
X144835000Y-92405200D01*
%TO.N,GND*%
X144933600Y-87631200D02*
X144933600Y-89506600D01*
X144932400Y-87630000D02*
X144933600Y-87631200D01*
%TO.N,/SW_BK*%
X157886400Y-101473000D02*
X155829000Y-101473000D01*
X159664400Y-103251000D02*
X157886400Y-101473000D01*
%TO.N,Net-(IC1-CP)*%
X147025400Y-94030800D02*
X148794400Y-92261800D01*
X146913600Y-94030800D02*
X147025400Y-94030800D01*
%TO.N,/nFAULT*%
X145335000Y-95406200D02*
X145335000Y-96647000D01*
X145948400Y-94792800D02*
X145335000Y-95406200D01*
%TO.N,/U*%
X153134000Y-94663200D02*
X153134000Y-96195000D01*
X153111200Y-94640400D02*
X153134000Y-94663200D01*
X152634000Y-95117600D02*
X152634000Y-96195000D01*
X153111200Y-94640400D02*
X152634000Y-95117600D01*
%TO.N,GND*%
X149480900Y-112926500D02*
X149987000Y-112926500D01*
X148361400Y-114046000D02*
X149480900Y-112926500D01*
%TO.N,/AVDD*%
X154332300Y-108608500D02*
X153543000Y-108608500D01*
X155092400Y-107848400D02*
X154332300Y-108608500D01*
%TO.N,Net-(IC1-CP)*%
X155232800Y-98945000D02*
X153884000Y-98945000D01*
X156184600Y-97993200D02*
X155232800Y-98945000D01*
%TO.N,Net-(IC1-ILIM)*%
X153261700Y-111355500D02*
X151511000Y-111355500D01*
X153263600Y-111353600D02*
X153261700Y-111355500D01*
%TO.N,GND*%
X153464900Y-113180500D02*
X151511000Y-113180500D01*
X153466800Y-113182400D02*
X153464900Y-113180500D01*
%TO.N,Net-(IC1-ILIM)*%
X151340000Y-111526500D02*
X151511000Y-111355500D01*
X149987000Y-111526500D02*
X151340000Y-111526500D01*
D30*
%TO.N,Net-(IC1-SW_BK)*%
X155829000Y-100584000D02*
X155690000Y-100445000D01*
D31*
X162052000Y-100584000D02*
X155829000Y-100584000D01*
D30*
X155690000Y-100445000D02*
X154470000Y-100445000D01*
D31*
X164084000Y-98552000D02*
X162052000Y-100584000D01*
D29*
X154470000Y-100445000D02*
X153884000Y-100445000D01*
%TO.N,Net-(IC1-CPL)*%
X157227396Y-98806000D02*
X156088396Y-99945000D01*
X156088396Y-99945000D02*
X153884000Y-99945000D01*
X159639000Y-98789000D02*
X159622000Y-98806000D01*
X159622000Y-98806000D02*
X157227396Y-98806000D01*
%TO.N,Net-(IC1-CPH)*%
X155952000Y-99445000D02*
X153884000Y-99445000D01*
X159639000Y-96029000D02*
X159368000Y-96029000D01*
X159368000Y-96029000D02*
X155952000Y-99445000D01*
%TO.N,GND*%
X154940000Y-102489000D02*
X154940000Y-103378000D01*
X154396000Y-101945000D02*
X154940000Y-102489000D01*
X153884000Y-101945000D02*
X154396000Y-101945000D01*
%TO.N,/SW_BK*%
X155801000Y-101445000D02*
X155829000Y-101473000D01*
X153884000Y-101445000D02*
X155801000Y-101445000D01*
%TO.N,/H3*%
X147356000Y-101945000D02*
X147320000Y-101981000D01*
X148884000Y-101945000D02*
X147356000Y-101945000D01*
%TO.N,/VM*%
X153695400Y-90144600D02*
X154178000Y-89662000D01*
X151537600Y-90144600D02*
X153695400Y-90144600D01*
X150854800Y-89461800D02*
X151537600Y-90144600D01*
X148794400Y-89461800D02*
X150854800Y-89461800D01*
%TO.N,/AVDD*%
X149352000Y-106515500D02*
X149225000Y-106388500D01*
X150622000Y-106515500D02*
X149352000Y-106515500D01*
%TO.N,Net-(IC1-SLEW)*%
X150134000Y-103758604D02*
X150134000Y-103195000D01*
X149933302Y-104485198D02*
X149933302Y-103959302D01*
X149225000Y-105193500D02*
X149933302Y-104485198D01*
X149933302Y-103959302D02*
X150134000Y-103758604D01*
%TO.N,Net-(IC1-ADVANCE)*%
X150634000Y-105308500D02*
X150634000Y-103195000D01*
X150622000Y-105320500D02*
X150634000Y-105308500D01*
%TO.N,/BRAKE*%
X152134000Y-103875396D02*
X152134000Y-103195000D01*
X154813000Y-106554396D02*
X152134000Y-103875396D01*
X154813000Y-106807000D02*
X154813000Y-106554396D01*
X154024000Y-107596000D02*
X154813000Y-106807000D01*
X153262000Y-107596000D02*
X154024000Y-107596000D01*
X152009000Y-108849000D02*
X153262000Y-107596000D01*
X146602894Y-108849000D02*
X152009000Y-108849000D01*
X144526000Y-110925894D02*
X146602894Y-108849000D01*
X144526000Y-111633000D02*
X144526000Y-110925894D01*
%TO.N,Net-(IC1-ILIM)*%
X151634000Y-104493500D02*
X151634000Y-103195000D01*
X153543000Y-106402500D02*
X151634000Y-104493500D01*
X153543000Y-106783500D02*
X153543000Y-106402500D01*
%TO.N,/PWM*%
X156337000Y-107442000D02*
X152634000Y-103739000D01*
X155760000Y-109786000D02*
X155760000Y-108375104D01*
X146935894Y-109786000D02*
X155760000Y-109786000D01*
X145796000Y-111633000D02*
X145796000Y-110925894D01*
X145796000Y-110925894D02*
X146935894Y-109786000D01*
X155760000Y-108375104D02*
X156337000Y-107798104D01*
X156337000Y-107798104D02*
X156337000Y-107442000D01*
X152634000Y-103739000D02*
X152634000Y-103195000D01*
%TO.N,/FGOUT*%
X156210000Y-108561500D02*
X157226000Y-107545500D01*
X156210000Y-110236000D02*
X156210000Y-108561500D01*
X148463000Y-110236000D02*
X156210000Y-110236000D01*
X147066000Y-111633000D02*
X148463000Y-110236000D01*
X153162000Y-103223000D02*
X153134000Y-103195000D01*
X157226000Y-107545500D02*
X153162000Y-103481500D01*
X153162000Y-103481500D02*
X153162000Y-103223000D01*
%TO.N,GND*%
X162814000Y-90424000D02*
X160909000Y-90424000D01*
X163449000Y-91059000D02*
X162814000Y-90424000D01*
X163449000Y-89662000D02*
X163449000Y-91059000D01*
X163449000Y-88392000D02*
X163449000Y-89662000D01*
X163449000Y-92456000D02*
X163449000Y-91059000D01*
%TO.N,/VM*%
X155754000Y-91059000D02*
X156389000Y-90424000D01*
X154178000Y-91059000D02*
X155754000Y-91059000D01*
X154178000Y-88392000D02*
X154178000Y-89662000D01*
X154178000Y-91059000D02*
X154178000Y-89662000D01*
X154178000Y-92456000D02*
X154178000Y-91059000D01*
X156389000Y-95640000D02*
X156389000Y-90424000D01*
X154584000Y-97445000D02*
X156389000Y-95640000D01*
X153884000Y-97445000D02*
X154584000Y-97445000D01*
X153884000Y-97945000D02*
X153884000Y-97445000D01*
X153884000Y-98445000D02*
X153884000Y-97945000D01*
%TO.N,GND*%
X153884000Y-96945000D02*
X152178200Y-96945000D01*
X152178200Y-96945000D02*
X151841200Y-97282000D01*
X152134000Y-96989200D02*
X151841200Y-97282000D01*
X152134000Y-96195000D02*
X152134000Y-96989200D01*
X150634000Y-97192400D02*
X150723600Y-97282000D01*
X150634000Y-96195000D02*
X150634000Y-97192400D01*
X150386600Y-96945000D02*
X150723600Y-97282000D01*
X148884000Y-96945000D02*
X150386600Y-96945000D01*
X149940200Y-99445000D02*
X150164800Y-99669600D01*
X148884000Y-99445000D02*
X149940200Y-99445000D01*
X151983000Y-101945000D02*
X151942800Y-101904800D01*
X153884000Y-101945000D02*
X151983000Y-101945000D01*
X153884000Y-100945000D02*
X152557800Y-100945000D01*
X152557800Y-100945000D02*
X152501600Y-100888800D01*
%TO.N,/AVDD*%
X141986000Y-96774000D02*
X143383000Y-96774000D01*
X143383000Y-96774000D02*
X143510000Y-96647000D01*
%TD*%
%TA.AperFunction,Conductor*%
%TO.N,GND*%
G36*
X179936539Y-79182385D02*
G01*
X179982294Y-79235189D01*
X179993500Y-79286700D01*
X179993500Y-93476440D01*
X179973815Y-93543479D01*
X179921011Y-93589234D01*
X179870327Y-93600437D01*
X162575325Y-93715737D01*
X162508155Y-93696500D01*
X162462050Y-93644002D01*
X162451645Y-93574912D01*
X162475232Y-93517428D01*
X162547352Y-93421089D01*
X162547354Y-93421086D01*
X162597596Y-93286379D01*
X162597598Y-93286372D01*
X162603999Y-93226844D01*
X162604000Y-93226827D01*
X162604000Y-90674000D01*
X160783000Y-90674000D01*
X160715961Y-90654315D01*
X160670206Y-90601511D01*
X160659000Y-90550000D01*
X160659000Y-87169000D01*
X159666155Y-87169000D01*
X159606627Y-87175401D01*
X159606620Y-87175403D01*
X159471913Y-87225645D01*
X159471907Y-87225649D01*
X159456310Y-87237325D01*
X159390846Y-87261742D01*
X159322573Y-87246890D01*
X159273168Y-87197485D01*
X159258000Y-87138058D01*
X159258000Y-85697424D01*
X159277685Y-85630385D01*
X159330489Y-85584630D01*
X159399647Y-85574686D01*
X159463203Y-85603711D01*
X159489387Y-85635424D01*
X159541289Y-85725322D01*
X159749972Y-86005631D01*
X159749976Y-86005636D01*
X159758147Y-86014297D01*
X159758148Y-86014298D01*
X161005665Y-84766781D01*
X161144855Y-84941320D01*
X161314299Y-85089358D01*
X161361808Y-85117743D01*
X160114817Y-86364733D01*
X160114818Y-86364734D01*
X160257480Y-86484442D01*
X160549461Y-86676480D01*
X160861739Y-86833314D01*
X160861745Y-86833316D01*
X161142883Y-86935642D01*
X161199147Y-86977068D01*
X161224083Y-87042337D01*
X161209773Y-87110725D01*
X161188155Y-87139845D01*
X161159000Y-87169000D01*
X161159000Y-90174000D01*
X162604000Y-90174000D01*
X162604000Y-87621172D01*
X162603999Y-87621155D01*
X162597598Y-87561627D01*
X162597596Y-87561620D01*
X162547354Y-87426913D01*
X162547350Y-87426906D01*
X162461190Y-87311812D01*
X162461187Y-87311809D01*
X162403660Y-87268744D01*
X162361789Y-87212810D01*
X162356805Y-87143119D01*
X162390291Y-87081796D01*
X162451614Y-87048312D01*
X162463576Y-87046316D01*
X162573827Y-87033429D01*
X162573829Y-87033429D01*
X162913866Y-86952839D01*
X162913869Y-86952838D01*
X163242254Y-86833316D01*
X163242260Y-86833314D01*
X163554538Y-86676480D01*
X163846515Y-86484445D01*
X163989180Y-86364734D01*
X163989181Y-86364733D01*
X162742125Y-85117678D01*
X162877747Y-85019144D01*
X163033239Y-84856512D01*
X163094801Y-84763248D01*
X164345850Y-86014297D01*
X164354032Y-86005625D01*
X164562710Y-85725322D01*
X164737438Y-85422683D01*
X164737444Y-85422670D01*
X164875854Y-85101800D01*
X164976083Y-84767011D01*
X164976085Y-84767002D01*
X165036763Y-84422880D01*
X165036764Y-84422869D01*
X165057084Y-84074003D01*
X165057084Y-84073996D01*
X165036764Y-83725130D01*
X165036763Y-83725119D01*
X164976085Y-83380997D01*
X164976083Y-83380988D01*
X164875854Y-83046199D01*
X164737444Y-82725329D01*
X164737438Y-82725316D01*
X164562710Y-82422677D01*
X164354029Y-82142371D01*
X164345850Y-82133701D01*
X164345850Y-82133700D01*
X163098333Y-83381217D01*
X162959145Y-83206680D01*
X162789701Y-83058642D01*
X162742191Y-83030256D01*
X163989181Y-81783265D01*
X163989180Y-81783264D01*
X163846519Y-81663557D01*
X163554538Y-81471519D01*
X163242260Y-81314685D01*
X163242254Y-81314683D01*
X162913869Y-81195161D01*
X162913866Y-81195160D01*
X162573828Y-81114570D01*
X162226723Y-81074000D01*
X161877277Y-81074000D01*
X161530172Y-81114570D01*
X161530170Y-81114570D01*
X161190133Y-81195160D01*
X161190130Y-81195161D01*
X160861745Y-81314683D01*
X160861739Y-81314685D01*
X160549461Y-81471519D01*
X160257485Y-81663554D01*
X160114817Y-81783264D01*
X161361874Y-83030321D01*
X161226253Y-83128856D01*
X161070761Y-83291488D01*
X161009198Y-83384751D01*
X159758148Y-82133701D01*
X159758146Y-82133701D01*
X159749973Y-82142366D01*
X159541289Y-82422677D01*
X159489387Y-82512575D01*
X159438820Y-82560791D01*
X159370213Y-82574013D01*
X159305348Y-82548045D01*
X159264820Y-82491131D01*
X159258000Y-82450575D01*
X159258000Y-80645000D01*
X159040938Y-80645000D01*
X158973899Y-80625315D01*
X158973699Y-80625165D01*
X158966332Y-80620430D01*
X158835465Y-80560664D01*
X158835460Y-80560662D01*
X158835459Y-80560662D01*
X158812858Y-80554025D01*
X158768425Y-80540978D01*
X158768419Y-80540976D01*
X158682966Y-80528690D01*
X158626000Y-80520500D01*
X155784053Y-80520500D01*
X155762677Y-80521405D01*
X155731131Y-80524082D01*
X155688725Y-80529493D01*
X155688722Y-80529494D01*
X155551789Y-80573666D01*
X155551786Y-80573667D01*
X155551781Y-80573669D01*
X155489027Y-80604357D01*
X155489024Y-80604359D01*
X155472304Y-80615740D01*
X155405807Y-80637188D01*
X155348965Y-80622115D01*
X155348051Y-80624117D01*
X155339985Y-80620433D01*
X155237589Y-80573669D01*
X155209111Y-80560663D01*
X155142074Y-80540978D01*
X155142068Y-80540976D01*
X155056615Y-80528690D01*
X154999649Y-80520500D01*
X147190000Y-80520500D01*
X147189991Y-80520500D01*
X147189990Y-80520501D01*
X147082549Y-80532052D01*
X147082537Y-80532054D01*
X147031027Y-80543260D01*
X146928502Y-80577383D01*
X146928496Y-80577386D01*
X146853919Y-80625315D01*
X146786879Y-80645000D01*
X146304000Y-80645000D01*
X146304000Y-88468952D01*
X146284315Y-88535991D01*
X146231511Y-88581746D01*
X146162353Y-88591690D01*
X146105689Y-88568219D01*
X146085689Y-88553247D01*
X146085686Y-88553245D01*
X145950979Y-88503003D01*
X145950972Y-88503001D01*
X145891444Y-88496600D01*
X145183600Y-88496600D01*
X145183600Y-90516600D01*
X145891428Y-90516600D01*
X145891444Y-90516599D01*
X145950972Y-90510198D01*
X145950979Y-90510196D01*
X146085686Y-90459954D01*
X146085690Y-90459952D01*
X146105687Y-90444982D01*
X146171150Y-90420563D01*
X146239424Y-90435413D01*
X146288831Y-90484817D01*
X146304000Y-90544247D01*
X146304000Y-90681562D01*
X146284315Y-90748601D01*
X146231511Y-90794356D01*
X146180564Y-90805561D01*
X135345064Y-90854812D01*
X135277935Y-90835432D01*
X135231941Y-90782837D01*
X135220500Y-90730813D01*
X135220500Y-89756600D01*
X143523600Y-89756600D01*
X143523600Y-90064444D01*
X143530001Y-90123972D01*
X143530003Y-90123979D01*
X143580245Y-90258686D01*
X143580249Y-90258693D01*
X143666409Y-90373787D01*
X143666412Y-90373790D01*
X143781506Y-90459950D01*
X143781513Y-90459954D01*
X143916220Y-90510196D01*
X143916227Y-90510198D01*
X143975755Y-90516599D01*
X143975772Y-90516600D01*
X144683600Y-90516600D01*
X144683600Y-89756600D01*
X143523600Y-89756600D01*
X135220500Y-89756600D01*
X135220500Y-89256600D01*
X143523600Y-89256600D01*
X144683600Y-89256600D01*
X144683600Y-88496600D01*
X143975755Y-88496600D01*
X143916227Y-88503001D01*
X143916220Y-88503003D01*
X143781513Y-88553245D01*
X143781506Y-88553249D01*
X143666412Y-88639409D01*
X143666409Y-88639412D01*
X143580249Y-88754506D01*
X143580245Y-88754513D01*
X143530003Y-88889220D01*
X143530001Y-88889227D01*
X143523600Y-88948755D01*
X143523600Y-89256600D01*
X135220500Y-89256600D01*
X135220500Y-86721050D01*
X135256725Y-85101800D01*
X135379317Y-79621922D01*
X135400496Y-79555340D01*
X135454310Y-79510778D01*
X135501942Y-79500703D01*
X166776179Y-79162700D01*
X179869500Y-79162700D01*
X179936539Y-79182385D01*
G37*
%TD.AperFunction*%
%TD*%
%TA.AperFunction,Conductor*%
%TO.N,/VM*%
G36*
X155066688Y-81045685D02*
G01*
X155112443Y-81098489D01*
X155122387Y-81167647D01*
X155093362Y-81231203D01*
X155034584Y-81268977D01*
X155014044Y-81273162D01*
X154875372Y-81289370D01*
X154875370Y-81289370D01*
X154535333Y-81369960D01*
X154535330Y-81369961D01*
X154206945Y-81489483D01*
X154206939Y-81489485D01*
X153894661Y-81646319D01*
X153602685Y-81838354D01*
X153460017Y-81958064D01*
X154707074Y-83205121D01*
X154571453Y-83303656D01*
X154415961Y-83466288D01*
X154354398Y-83559551D01*
X153103348Y-82308501D01*
X153103346Y-82308501D01*
X153095173Y-82317166D01*
X152886489Y-82597477D01*
X152711761Y-82900116D01*
X152711755Y-82900129D01*
X152573345Y-83220999D01*
X152473116Y-83555788D01*
X152473114Y-83555797D01*
X152412436Y-83899919D01*
X152412435Y-83899930D01*
X152392116Y-84248796D01*
X152392116Y-84248803D01*
X152412435Y-84597669D01*
X152412436Y-84597680D01*
X152473114Y-84941802D01*
X152473116Y-84941811D01*
X152573345Y-85276600D01*
X152711755Y-85597470D01*
X152711761Y-85597483D01*
X152886489Y-85900122D01*
X153095172Y-86180431D01*
X153095176Y-86180436D01*
X153103347Y-86189097D01*
X153103348Y-86189098D01*
X154350865Y-84941581D01*
X154490055Y-85116120D01*
X154659499Y-85264158D01*
X154707008Y-85292543D01*
X153460017Y-86539533D01*
X153460018Y-86539534D01*
X153602680Y-86659242D01*
X153894661Y-86851280D01*
X154206939Y-87008114D01*
X154206945Y-87008116D01*
X154535330Y-87127638D01*
X154535332Y-87127639D01*
X154724496Y-87172471D01*
X154785189Y-87207085D01*
X154817533Y-87269018D01*
X154811260Y-87338605D01*
X154795167Y-87367440D01*
X154750647Y-87426911D01*
X154750645Y-87426913D01*
X154700403Y-87561620D01*
X154700401Y-87561627D01*
X154694000Y-87621155D01*
X154694000Y-90174000D01*
X158084000Y-90174000D01*
X158084000Y-87621172D01*
X158083999Y-87621155D01*
X158077598Y-87561627D01*
X158077596Y-87561620D01*
X158027354Y-87426913D01*
X158027350Y-87426906D01*
X157941190Y-87311812D01*
X157941187Y-87311809D01*
X157826093Y-87225649D01*
X157826086Y-87225645D01*
X157691379Y-87175403D01*
X157691372Y-87175401D01*
X157631844Y-87169000D01*
X156790305Y-87169000D01*
X156723266Y-87149315D01*
X156677511Y-87096511D01*
X156667567Y-87027353D01*
X156696592Y-86963797D01*
X156734654Y-86934190D01*
X156899738Y-86851280D01*
X157191715Y-86659245D01*
X157334380Y-86539534D01*
X157334381Y-86539533D01*
X156087325Y-85292478D01*
X156222947Y-85193944D01*
X156378439Y-85031312D01*
X156440001Y-84938048D01*
X157691050Y-86189097D01*
X157699232Y-86180425D01*
X157907910Y-85900122D01*
X158082638Y-85597483D01*
X158082644Y-85597470D01*
X158221054Y-85276600D01*
X158321283Y-84941811D01*
X158321285Y-84941802D01*
X158381963Y-84597680D01*
X158381964Y-84597669D01*
X158402284Y-84248803D01*
X158402284Y-84248796D01*
X158381964Y-83899930D01*
X158381963Y-83899919D01*
X158321285Y-83555797D01*
X158321283Y-83555788D01*
X158221054Y-83220999D01*
X158082644Y-82900129D01*
X158082638Y-82900116D01*
X157907910Y-82597477D01*
X157699229Y-82317171D01*
X157691050Y-82308501D01*
X157691050Y-82308500D01*
X156443533Y-83556017D01*
X156304345Y-83381480D01*
X156134901Y-83233442D01*
X156087391Y-83205056D01*
X157334381Y-81958065D01*
X157334380Y-81958064D01*
X157191719Y-81838357D01*
X156899738Y-81646319D01*
X156587460Y-81489485D01*
X156587454Y-81489483D01*
X156259069Y-81369961D01*
X156259066Y-81369960D01*
X155919028Y-81289370D01*
X155780356Y-81273162D01*
X155716055Y-81245827D01*
X155676739Y-81188069D01*
X155674892Y-81118223D01*
X155711099Y-81058467D01*
X155773865Y-81027772D01*
X155794751Y-81026000D01*
X158626000Y-81026000D01*
X158693039Y-81045685D01*
X158738794Y-81098489D01*
X158750000Y-81150000D01*
X158750000Y-94874712D01*
X158730315Y-94941751D01*
X158677511Y-94987506D01*
X158639255Y-94998002D01*
X158621516Y-94999909D01*
X158486671Y-95050202D01*
X158486664Y-95050206D01*
X158371455Y-95136452D01*
X158371452Y-95136455D01*
X158285206Y-95251664D01*
X158285202Y-95251671D01*
X158234908Y-95386517D01*
X158228501Y-95446116D01*
X158228500Y-95446135D01*
X158228500Y-95645344D01*
X158208815Y-95712383D01*
X158185711Y-95739049D01*
X156414249Y-97274316D01*
X156350696Y-97303347D01*
X156303363Y-97301008D01*
X156278987Y-97295000D01*
X156269656Y-97292700D01*
X156099544Y-97292700D01*
X155934373Y-97333410D01*
X155783750Y-97412463D01*
X155656416Y-97525272D01*
X155559783Y-97665267D01*
X155527580Y-97750179D01*
X155499319Y-97793888D01*
X155010028Y-98283181D01*
X154948705Y-98316666D01*
X154922347Y-98319500D01*
X154903158Y-98319500D01*
X154836119Y-98299815D01*
X154790364Y-98247011D01*
X154779875Y-98208815D01*
X154779821Y-98208315D01*
X154779815Y-98181742D01*
X154783999Y-98142831D01*
X154784000Y-98142821D01*
X154784000Y-98095000D01*
X154034000Y-98095000D01*
X154034000Y-98170500D01*
X154014315Y-98237539D01*
X153961511Y-98283294D01*
X153910000Y-98294500D01*
X153908499Y-98294500D01*
X153841460Y-98274815D01*
X153795705Y-98222011D01*
X153784499Y-98170500D01*
X153784499Y-97719499D01*
X153804184Y-97652460D01*
X153856988Y-97606705D01*
X153908499Y-97595499D01*
X153910000Y-97595499D01*
X153977039Y-97615184D01*
X154022794Y-97667988D01*
X154034000Y-97719499D01*
X154034000Y-97795000D01*
X154784000Y-97795000D01*
X154784000Y-97747179D01*
X154783999Y-97747168D01*
X154779815Y-97708258D01*
X154779815Y-97681742D01*
X154783999Y-97642831D01*
X154784000Y-97642821D01*
X154784000Y-97595000D01*
X154782627Y-97595000D01*
X154715588Y-97575315D01*
X154669833Y-97522511D01*
X154659889Y-97453353D01*
X154683361Y-97396688D01*
X154722289Y-97344688D01*
X154770105Y-97308894D01*
X154784000Y-97295000D01*
X154784000Y-97247182D01*
X154783999Y-97247164D01*
X154780068Y-97210602D01*
X154780068Y-97184094D01*
X154784500Y-97142873D01*
X154784499Y-96747128D01*
X154778091Y-96687517D01*
X154727796Y-96552669D01*
X154727795Y-96552668D01*
X154727681Y-96552361D01*
X154719968Y-96503961D01*
X154813000Y-94234000D01*
X153746934Y-94234000D01*
X153679895Y-94214315D01*
X153644886Y-94180442D01*
X153639385Y-94172473D01*
X153512049Y-94059663D01*
X153361426Y-93980610D01*
X153196256Y-93939900D01*
X153032000Y-93939900D01*
X152964961Y-93920215D01*
X152919206Y-93867411D01*
X152908000Y-93815900D01*
X152908000Y-93437431D01*
X152927685Y-93370392D01*
X152949773Y-93344615D01*
X152953248Y-93341535D01*
X152953252Y-93341534D01*
X153080583Y-93228729D01*
X153177218Y-93088730D01*
X153237540Y-92929672D01*
X153258045Y-92760800D01*
X153237540Y-92591928D01*
X153177218Y-92432870D01*
X153174333Y-92428691D01*
X153139617Y-92378396D01*
X153080583Y-92292871D01*
X153079765Y-92292146D01*
X152949773Y-92176983D01*
X152912646Y-92117794D01*
X152908000Y-92084168D01*
X152908000Y-90805000D01*
X152638987Y-90805000D01*
X152571948Y-90785315D01*
X152526193Y-90732511D01*
X152517780Y-90674000D01*
X154694000Y-90674000D01*
X154694000Y-93226844D01*
X154700401Y-93286372D01*
X154700403Y-93286379D01*
X154750645Y-93421086D01*
X154750649Y-93421093D01*
X154836809Y-93536187D01*
X154836812Y-93536190D01*
X154951906Y-93622350D01*
X154951913Y-93622354D01*
X155086620Y-93672596D01*
X155086627Y-93672598D01*
X155146155Y-93678999D01*
X155146172Y-93679000D01*
X156139000Y-93679000D01*
X156139000Y-90674000D01*
X156639000Y-90674000D01*
X156639000Y-93679000D01*
X157631828Y-93679000D01*
X157631844Y-93678999D01*
X157691372Y-93672598D01*
X157691379Y-93672596D01*
X157826086Y-93622354D01*
X157826093Y-93622350D01*
X157941187Y-93536190D01*
X157941190Y-93536187D01*
X158027350Y-93421093D01*
X158027354Y-93421086D01*
X158077596Y-93286379D01*
X158077598Y-93286372D01*
X158083999Y-93226844D01*
X158084000Y-93226827D01*
X158084000Y-90674000D01*
X156639000Y-90674000D01*
X156139000Y-90674000D01*
X154694000Y-90674000D01*
X152517780Y-90674000D01*
X152516249Y-90663353D01*
X152519757Y-90649611D01*
X152519413Y-90649530D01*
X152521198Y-90641972D01*
X152527599Y-90582444D01*
X152527600Y-90582427D01*
X152527600Y-90394600D01*
X150547600Y-90394600D01*
X150547600Y-90582444D01*
X150554001Y-90641972D01*
X150555787Y-90649530D01*
X150553283Y-90650121D01*
X150557382Y-90707346D01*
X150523903Y-90768672D01*
X150462584Y-90802163D01*
X150436213Y-90805000D01*
X147190000Y-90805000D01*
X147122961Y-90785315D01*
X147077206Y-90732511D01*
X147066000Y-90681000D01*
X147066000Y-89711800D01*
X147384400Y-89711800D01*
X147384400Y-90019644D01*
X147390801Y-90079172D01*
X147390803Y-90079179D01*
X147441045Y-90213886D01*
X147441049Y-90213893D01*
X147527209Y-90328987D01*
X147527212Y-90328990D01*
X147642306Y-90415150D01*
X147642313Y-90415154D01*
X147777020Y-90465396D01*
X147777027Y-90465398D01*
X147836555Y-90471799D01*
X147836572Y-90471800D01*
X148544400Y-90471800D01*
X148544400Y-89711800D01*
X149044400Y-89711800D01*
X149044400Y-90471800D01*
X149752228Y-90471800D01*
X149752244Y-90471799D01*
X149811772Y-90465398D01*
X149811779Y-90465396D01*
X149946486Y-90415154D01*
X149946493Y-90415150D01*
X150061587Y-90328990D01*
X150061590Y-90328987D01*
X150147750Y-90213893D01*
X150147754Y-90213886D01*
X150197996Y-90079179D01*
X150197998Y-90079172D01*
X150204399Y-90019644D01*
X150204400Y-90019627D01*
X150204400Y-89894600D01*
X150547600Y-89894600D01*
X151287600Y-89894600D01*
X151287600Y-89254600D01*
X151787600Y-89254600D01*
X151787600Y-89894600D01*
X152527600Y-89894600D01*
X152527600Y-89706772D01*
X152527599Y-89706755D01*
X152521198Y-89647227D01*
X152521196Y-89647220D01*
X152470954Y-89512513D01*
X152470950Y-89512506D01*
X152384790Y-89397412D01*
X152384787Y-89397409D01*
X152269693Y-89311249D01*
X152269686Y-89311245D01*
X152134979Y-89261003D01*
X152134972Y-89261001D01*
X152075444Y-89254600D01*
X151787600Y-89254600D01*
X151287600Y-89254600D01*
X150999755Y-89254600D01*
X150940227Y-89261001D01*
X150940220Y-89261003D01*
X150805513Y-89311245D01*
X150805506Y-89311249D01*
X150690412Y-89397409D01*
X150690409Y-89397412D01*
X150604249Y-89512506D01*
X150604245Y-89512513D01*
X150554003Y-89647220D01*
X150554001Y-89647227D01*
X150547600Y-89706755D01*
X150547600Y-89894600D01*
X150204400Y-89894600D01*
X150204400Y-89711800D01*
X149044400Y-89711800D01*
X148544400Y-89711800D01*
X147384400Y-89711800D01*
X147066000Y-89711800D01*
X147066000Y-89211800D01*
X147384400Y-89211800D01*
X148544400Y-89211800D01*
X148544400Y-88451800D01*
X149044400Y-88451800D01*
X149044400Y-89211800D01*
X150204400Y-89211800D01*
X150204400Y-88903972D01*
X150204399Y-88903955D01*
X150197998Y-88844427D01*
X150197996Y-88844420D01*
X150147754Y-88709713D01*
X150147750Y-88709706D01*
X150061590Y-88594612D01*
X150061587Y-88594609D01*
X149946493Y-88508449D01*
X149946486Y-88508445D01*
X149811779Y-88458203D01*
X149811772Y-88458201D01*
X149752244Y-88451800D01*
X149044400Y-88451800D01*
X148544400Y-88451800D01*
X147836555Y-88451800D01*
X147777027Y-88458201D01*
X147777020Y-88458203D01*
X147642313Y-88508445D01*
X147642306Y-88508449D01*
X147527212Y-88594609D01*
X147527209Y-88594612D01*
X147441049Y-88709706D01*
X147441045Y-88709713D01*
X147390803Y-88844420D01*
X147390801Y-88844427D01*
X147384400Y-88903955D01*
X147384400Y-89211800D01*
X147066000Y-89211800D01*
X147066000Y-81150000D01*
X147085685Y-81082961D01*
X147138489Y-81037206D01*
X147190000Y-81026000D01*
X154999649Y-81026000D01*
X155066688Y-81045685D01*
G37*
%TD.AperFunction*%
%TD*%
%TA.AperFunction,Conductor*%
%TO.N,/SW_BK*%
G36*
X155447410Y-101232188D02*
G01*
X155570567Y-101294040D01*
X155741279Y-101334500D01*
X161988295Y-101334500D01*
X162006265Y-101335809D01*
X162030023Y-101339289D01*
X162082068Y-101334735D01*
X162087470Y-101334500D01*
X162095704Y-101334500D01*
X162095709Y-101334500D01*
X162118686Y-101331814D01*
X162128276Y-101330693D01*
X162141028Y-101329577D01*
X162204797Y-101323999D01*
X162204805Y-101323996D01*
X162211866Y-101322539D01*
X162211878Y-101322598D01*
X162219243Y-101320965D01*
X162219229Y-101320906D01*
X162226246Y-101319241D01*
X162226255Y-101319241D01*
X162298423Y-101292974D01*
X162371334Y-101268814D01*
X162371343Y-101268807D01*
X162377882Y-101265760D01*
X162377908Y-101265816D01*
X162384690Y-101262532D01*
X162384663Y-101262478D01*
X162391106Y-101259240D01*
X162391117Y-101259237D01*
X162413289Y-101244653D01*
X162421278Y-101239400D01*
X162488105Y-101219007D01*
X162489417Y-101219000D01*
X163632838Y-101219000D01*
X163699877Y-101238685D01*
X163745632Y-101291489D01*
X163755576Y-101360647D01*
X163726551Y-101424203D01*
X163707149Y-101442266D01*
X163700812Y-101447009D01*
X163700809Y-101447012D01*
X163614649Y-101562106D01*
X163614645Y-101562113D01*
X163564403Y-101696820D01*
X163564401Y-101696827D01*
X163558000Y-101756355D01*
X163558000Y-103079200D01*
X167658000Y-103079200D01*
X167658000Y-101756372D01*
X167657999Y-101756355D01*
X167651598Y-101696827D01*
X167651596Y-101696820D01*
X167601354Y-101562113D01*
X167601350Y-101562106D01*
X167515190Y-101447012D01*
X167515187Y-101447009D01*
X167508851Y-101442266D01*
X167466980Y-101386333D01*
X167461996Y-101316641D01*
X167495482Y-101255318D01*
X167556805Y-101221834D01*
X167583162Y-101219000D01*
X179327000Y-101219000D01*
X179394039Y-101238685D01*
X179439794Y-101291489D01*
X179451000Y-101343000D01*
X179451000Y-105921000D01*
X179431315Y-105988039D01*
X179378511Y-106033794D01*
X179327000Y-106045000D01*
X159938422Y-106045000D01*
X159871383Y-106025315D01*
X159858325Y-106015660D01*
X159746454Y-105921000D01*
X158542214Y-104902027D01*
X156978874Y-103579200D01*
X163558000Y-103579200D01*
X163558000Y-104902044D01*
X163564401Y-104961572D01*
X163564403Y-104961579D01*
X163614645Y-105096286D01*
X163614649Y-105096293D01*
X163700809Y-105211387D01*
X163700812Y-105211390D01*
X163815906Y-105297550D01*
X163815913Y-105297554D01*
X163950620Y-105347796D01*
X163950627Y-105347798D01*
X164010155Y-105354199D01*
X164010172Y-105354200D01*
X165358000Y-105354200D01*
X165358000Y-103579200D01*
X165858000Y-103579200D01*
X165858000Y-105354200D01*
X167205828Y-105354200D01*
X167205844Y-105354199D01*
X167265372Y-105347798D01*
X167265379Y-105347796D01*
X167400086Y-105297554D01*
X167400093Y-105297550D01*
X167515187Y-105211390D01*
X167515190Y-105211387D01*
X167601350Y-105096293D01*
X167601354Y-105096286D01*
X167651596Y-104961579D01*
X167651598Y-104961572D01*
X167657999Y-104902044D01*
X167658000Y-104902027D01*
X167658000Y-104314400D01*
X170227000Y-104314400D01*
X170227000Y-105307244D01*
X170233401Y-105366772D01*
X170233403Y-105366779D01*
X170283645Y-105501486D01*
X170283649Y-105501493D01*
X170369809Y-105616587D01*
X170369812Y-105616590D01*
X170484906Y-105702750D01*
X170484913Y-105702754D01*
X170619620Y-105752996D01*
X170619627Y-105752998D01*
X170679155Y-105759399D01*
X170679172Y-105759400D01*
X173232000Y-105759400D01*
X173232000Y-104314400D01*
X173732000Y-104314400D01*
X173732000Y-105759400D01*
X176284828Y-105759400D01*
X176284844Y-105759399D01*
X176344372Y-105752998D01*
X176344379Y-105752996D01*
X176479086Y-105702754D01*
X176479093Y-105702750D01*
X176594187Y-105616590D01*
X176594190Y-105616587D01*
X176680350Y-105501493D01*
X176680354Y-105501486D01*
X176730596Y-105366779D01*
X176730598Y-105366772D01*
X176736999Y-105307244D01*
X176737000Y-105307227D01*
X176737000Y-104314400D01*
X173732000Y-104314400D01*
X173232000Y-104314400D01*
X170227000Y-104314400D01*
X167658000Y-104314400D01*
X167658000Y-103814400D01*
X170227000Y-103814400D01*
X173232000Y-103814400D01*
X173232000Y-102369400D01*
X173732000Y-102369400D01*
X173732000Y-103814400D01*
X176737000Y-103814400D01*
X176737000Y-102821572D01*
X176736999Y-102821555D01*
X176730598Y-102762027D01*
X176730596Y-102762020D01*
X176680354Y-102627313D01*
X176680350Y-102627306D01*
X176594190Y-102512212D01*
X176594187Y-102512209D01*
X176479093Y-102426049D01*
X176479086Y-102426045D01*
X176344379Y-102375803D01*
X176344372Y-102375801D01*
X176284844Y-102369400D01*
X173732000Y-102369400D01*
X173232000Y-102369400D01*
X170679155Y-102369400D01*
X170619627Y-102375801D01*
X170619620Y-102375803D01*
X170484913Y-102426045D01*
X170484906Y-102426049D01*
X170369812Y-102512209D01*
X170369809Y-102512212D01*
X170283649Y-102627306D01*
X170283645Y-102627313D01*
X170233403Y-102762020D01*
X170233401Y-102762027D01*
X170227000Y-102821555D01*
X170227000Y-103814400D01*
X167658000Y-103814400D01*
X167658000Y-103579200D01*
X165858000Y-103579200D01*
X165358000Y-103579200D01*
X163558000Y-103579200D01*
X156978874Y-103579200D01*
X155592982Y-102406522D01*
X155554520Y-102348191D01*
X155552705Y-102339734D01*
X155552603Y-102339761D01*
X155550664Y-102332209D01*
X155550664Y-102332208D01*
X155533507Y-102288875D01*
X155531619Y-102283359D01*
X155518619Y-102238612D01*
X155508418Y-102221363D01*
X155499860Y-102203894D01*
X155492486Y-102185268D01*
X155492483Y-102185264D01*
X155492483Y-102185263D01*
X155465098Y-102147571D01*
X155461890Y-102142687D01*
X155438172Y-102102582D01*
X155438163Y-102102571D01*
X155424005Y-102088413D01*
X155411370Y-102073620D01*
X155399593Y-102057412D01*
X155363693Y-102027713D01*
X155359381Y-102023790D01*
X154976319Y-101640728D01*
X154942834Y-101579405D01*
X154940000Y-101553047D01*
X154940000Y-101343000D01*
X154959685Y-101275961D01*
X155012489Y-101230206D01*
X155064000Y-101219000D01*
X155391760Y-101219000D01*
X155447410Y-101232188D01*
G37*
%TD.AperFunction*%
%TD*%
%TA.AperFunction,Conductor*%
%TO.N,GND*%
G36*
X155529858Y-103016685D02*
G01*
X155542912Y-103026337D01*
X156315903Y-103680406D01*
X156652350Y-103965092D01*
X156793705Y-104084700D01*
X159538128Y-106406905D01*
X159551127Y-106417192D01*
X159570849Y-106431775D01*
X159598085Y-106450567D01*
X159692341Y-106493613D01*
X159728963Y-106510338D01*
X159773779Y-106523497D01*
X159795997Y-106530022D01*
X159796000Y-106530022D01*
X159796002Y-106530023D01*
X159796006Y-106530024D01*
X159927924Y-106548990D01*
X159988372Y-106575410D01*
X160274000Y-106807000D01*
X170298098Y-106807000D01*
X170365137Y-106826685D01*
X170410892Y-106879489D01*
X170420836Y-106948647D01*
X170391811Y-107012203D01*
X170372408Y-107030268D01*
X170369808Y-107032214D01*
X170283649Y-107147306D01*
X170283645Y-107147313D01*
X170233403Y-107282020D01*
X170233401Y-107282027D01*
X170227000Y-107341555D01*
X170227000Y-108334400D01*
X176737000Y-108334400D01*
X176737000Y-107341572D01*
X176736999Y-107341555D01*
X176730598Y-107282027D01*
X176730596Y-107282020D01*
X176680354Y-107147313D01*
X176680350Y-107147306D01*
X176594191Y-107032214D01*
X176591592Y-107030268D01*
X176589644Y-107027666D01*
X176587918Y-107025940D01*
X176588166Y-107025691D01*
X176549720Y-106974334D01*
X176544736Y-106904643D01*
X176578220Y-106843319D01*
X176639543Y-106809834D01*
X176665902Y-106807000D01*
X179733400Y-106807000D01*
X179800439Y-106826685D01*
X179846194Y-106879489D01*
X179857400Y-106931000D01*
X179857400Y-114464500D01*
X179837715Y-114531539D01*
X179784911Y-114577294D01*
X179733400Y-114588500D01*
X141602000Y-114588500D01*
X141534961Y-114568815D01*
X141489206Y-114516011D01*
X141478000Y-114464500D01*
X141478000Y-113176500D01*
X148997000Y-113176500D01*
X148997000Y-113364344D01*
X149003401Y-113423872D01*
X149003403Y-113423879D01*
X149053645Y-113558586D01*
X149053649Y-113558593D01*
X149139809Y-113673687D01*
X149139812Y-113673690D01*
X149254906Y-113759850D01*
X149254913Y-113759854D01*
X149389620Y-113810096D01*
X149389627Y-113810098D01*
X149449155Y-113816499D01*
X149449172Y-113816500D01*
X149737000Y-113816500D01*
X149737000Y-113176500D01*
X148997000Y-113176500D01*
X141478000Y-113176500D01*
X141478000Y-112798170D01*
X141497685Y-112731131D01*
X141550489Y-112685376D01*
X141601766Y-112674170D01*
X148929513Y-112660600D01*
X148984033Y-112676500D01*
X150113000Y-112676500D01*
X150180039Y-112696185D01*
X150225794Y-112748989D01*
X150237000Y-112800500D01*
X150237000Y-113816500D01*
X150524828Y-113816500D01*
X150524839Y-113816499D01*
X150559853Y-113812734D01*
X150628612Y-113825137D01*
X150678649Y-113870925D01*
X150691054Y-113891037D01*
X150812961Y-114012944D01*
X150812965Y-114012947D01*
X150959688Y-114103448D01*
X150959699Y-114103453D01*
X151123347Y-114157680D01*
X151224352Y-114167999D01*
X151261000Y-114167999D01*
X151261000Y-113430500D01*
X151761000Y-113430500D01*
X151761000Y-114167999D01*
X151797640Y-114167999D01*
X151797654Y-114167998D01*
X151898652Y-114157680D01*
X152062300Y-114103453D01*
X152062311Y-114103448D01*
X152209034Y-114012947D01*
X152209038Y-114012944D01*
X152330944Y-113891038D01*
X152330947Y-113891034D01*
X152421448Y-113744311D01*
X152421453Y-113744300D01*
X152475680Y-113580652D01*
X152485999Y-113479654D01*
X152486000Y-113479641D01*
X152486000Y-113430500D01*
X151761000Y-113430500D01*
X151261000Y-113430500D01*
X151261000Y-113054500D01*
X151280685Y-112987461D01*
X151333489Y-112941706D01*
X151385000Y-112930500D01*
X152485999Y-112930500D01*
X152485999Y-112881360D01*
X152485998Y-112881345D01*
X152476708Y-112790405D01*
X152489478Y-112721712D01*
X152537358Y-112670828D01*
X152599832Y-112653804D01*
X155194000Y-112649000D01*
X158294689Y-110025339D01*
X158358581Y-109997063D01*
X158374786Y-109996000D01*
X158933658Y-109996000D01*
X158991281Y-110010202D01*
X159033175Y-110032190D01*
X159198344Y-110072900D01*
X159368456Y-110072900D01*
X159533625Y-110032190D01*
X159613092Y-109990481D01*
X159684249Y-109953136D01*
X159684250Y-109953134D01*
X159684252Y-109953134D01*
X159811583Y-109840329D01*
X159908218Y-109700330D01*
X159968540Y-109541272D01*
X159989045Y-109372400D01*
X159968540Y-109203528D01*
X159908218Y-109044470D01*
X159811583Y-108904471D01*
X159811582Y-108904470D01*
X159807322Y-108898298D01*
X159808971Y-108897159D01*
X159783618Y-108843226D01*
X159784788Y-108834400D01*
X170227000Y-108834400D01*
X170227000Y-109827244D01*
X170233401Y-109886772D01*
X170233403Y-109886779D01*
X170283645Y-110021486D01*
X170283649Y-110021493D01*
X170369809Y-110136587D01*
X170369812Y-110136590D01*
X170484906Y-110222750D01*
X170484913Y-110222754D01*
X170619620Y-110272996D01*
X170619627Y-110272998D01*
X170679155Y-110279399D01*
X170679172Y-110279400D01*
X173232000Y-110279400D01*
X173232000Y-108834400D01*
X173732000Y-108834400D01*
X173732000Y-110279400D01*
X176284828Y-110279400D01*
X176284844Y-110279399D01*
X176344372Y-110272998D01*
X176344379Y-110272996D01*
X176479086Y-110222754D01*
X176479093Y-110222750D01*
X176594187Y-110136590D01*
X176594190Y-110136587D01*
X176680350Y-110021493D01*
X176680354Y-110021486D01*
X176730596Y-109886779D01*
X176730598Y-109886772D01*
X176736999Y-109827244D01*
X176737000Y-109827227D01*
X176737000Y-108834400D01*
X173732000Y-108834400D01*
X173232000Y-108834400D01*
X170227000Y-108834400D01*
X159784788Y-108834400D01*
X159792798Y-108773962D01*
X159826054Y-108729569D01*
X160147000Y-108458000D01*
X154376443Y-103288543D01*
X154339645Y-103229150D01*
X154340799Y-103159290D01*
X154379538Y-103101143D01*
X154415849Y-103080002D01*
X154526331Y-103038796D01*
X154549124Y-103021732D01*
X154614588Y-102997316D01*
X154623435Y-102997000D01*
X155462819Y-102997000D01*
X155529858Y-103016685D01*
G37*
%TD.AperFunction*%
%TD*%
M02*
