%TF.GenerationSoftware,KiCad,Pcbnew,7.0.9-7.0.9~ubuntu22.04.1*%
%TF.CreationDate,2024-01-17T18:17:55+01:00*%
%TF.ProjectId,driver_seperate,64726976-6572-45f7-9365-706572617465,rev?*%
%TF.SameCoordinates,Original*%
%TF.FileFunction,Copper,L2,Inr*%
%TF.FilePolarity,Positive*%
%FSLAX46Y46*%
G04 Gerber Fmt 4.6, Leading zero omitted, Abs format (unit mm)*
G04 Created by KiCad (PCBNEW 7.0.9-7.0.9~ubuntu22.04.1) date 2024-01-17 18:17:55*
%MOMM*%
%LPD*%
G01*
G04 APERTURE LIST*
%TA.AperFunction,ComponentPad*%
%ADD10C,5.000000*%
%TD*%
%TA.AperFunction,ComponentPad*%
%ADD11R,1.000000X1.000000*%
%TD*%
%TA.AperFunction,ComponentPad*%
%ADD12O,1.000000X1.000000*%
%TD*%
%TA.AperFunction,ViaPad*%
%ADD13C,0.400000*%
%TD*%
%TA.AperFunction,ViaPad*%
%ADD14C,0.600000*%
%TD*%
%TA.AperFunction,Conductor*%
%ADD15C,0.500000*%
%TD*%
G04 APERTURE END LIST*
D10*
%TO.N,GND*%
%TO.C,IN-1*%
X162052000Y-84074000D03*
%TD*%
D11*
%TO.N,/U*%
%TO.C,J1*%
X138785600Y-95300800D03*
D12*
%TO.N,/V*%
X138785600Y-96570800D03*
%TO.N,/W*%
X138785600Y-97840800D03*
%TO.N,GND*%
X138785600Y-99110800D03*
%TO.N,/H2*%
X138785600Y-100380800D03*
%TO.N,/H1*%
X138785600Y-101650800D03*
%TO.N,/H3*%
X138785600Y-102920800D03*
%TO.N,/SW_BK*%
X138785600Y-104190800D03*
%TD*%
D10*
%TO.N,/VM*%
%TO.C,IN+1*%
X155397200Y-84248800D03*
%TD*%
D11*
%TO.N,/FGOUT*%
%TO.C,J2*%
X147066000Y-111633000D03*
D12*
%TO.N,/PWM*%
X145796000Y-111633000D03*
%TO.N,/BRAKE*%
X144526000Y-111633000D03*
%TO.N,/DIR*%
X143256000Y-111633000D03*
%TO.N,/nFAULT*%
X141986000Y-111633000D03*
%TD*%
D13*
%TO.N,Net-(IC1-ILIM)*%
X151714200Y-107924600D03*
X153263600Y-111353600D03*
D14*
%TO.N,GND*%
X151841200Y-97282000D03*
D13*
X144932400Y-87630000D03*
D14*
X150164800Y-99669600D03*
D13*
X163449000Y-92456000D03*
D14*
X151282400Y-100888800D03*
D13*
X175666400Y-111302800D03*
X173939200Y-111277400D03*
X148361400Y-114046000D03*
X163449000Y-89662000D03*
D14*
X150672800Y-101904800D03*
X151942800Y-101904800D03*
D13*
X163449000Y-91059000D03*
D14*
X152450800Y-99669600D03*
D13*
X163449000Y-88392000D03*
X153466800Y-113182400D03*
D14*
X150114000Y-100888800D03*
X152501600Y-100888800D03*
D13*
X170484800Y-111302800D03*
X152552400Y-92760800D03*
D14*
X150723600Y-97282000D03*
X152501600Y-98348800D03*
X151282400Y-99669600D03*
X150164800Y-98348800D03*
D13*
X172212000Y-111277400D03*
D14*
X151282400Y-98348800D03*
D13*
%TO.N,/AVDD*%
X142036800Y-92405200D03*
X155092400Y-107848400D03*
X159283400Y-109372400D03*
X147269200Y-99568000D03*
X147320000Y-97790000D03*
X141986000Y-96774000D03*
X141630400Y-99060000D03*
X147574000Y-103615500D03*
%TO.N,/SW_BK*%
X141681200Y-104140000D03*
X159664400Y-103251000D03*
%TO.N,Net-(IC1-CP)*%
X146913600Y-94030800D03*
X156184600Y-97993200D03*
%TO.N,/VM*%
X154178000Y-91059000D03*
X154178000Y-92456000D03*
X154178000Y-88392000D03*
X154178000Y-89662000D03*
%TO.N,/W*%
X149809200Y-94488000D03*
%TO.N,/V*%
X151384000Y-94488000D03*
%TO.N,/U*%
X153111200Y-94640400D03*
%TO.N,/H3*%
X147320000Y-101981000D03*
%TO.N,/H1*%
X145618200Y-100253800D03*
%TO.N,/nFAULT*%
X145948400Y-94792800D03*
%TD*%
D15*
%TO.N,/W*%
X149809200Y-94488000D02*
X149376750Y-94488000D01*
X146023950Y-97840800D02*
X138785600Y-97840800D01*
X149376750Y-94488000D02*
X146023950Y-97840800D01*
%TO.N,/V*%
X150469600Y-93573600D02*
X149301200Y-93573600D01*
X143560800Y-96621600D02*
X142646400Y-95707200D01*
X151384000Y-94488000D02*
X150469600Y-93573600D01*
X140258800Y-96570800D02*
X138785600Y-96570800D01*
X146253200Y-96621600D02*
X143560800Y-96621600D01*
X142646400Y-95707200D02*
X141122400Y-95707200D01*
X141122400Y-95707200D02*
X140258800Y-96570800D01*
X149301200Y-93573600D02*
X146253200Y-96621600D01*
%TO.N,/U*%
X151114881Y-92852120D02*
X146319119Y-92852120D01*
X146319119Y-92852120D02*
X145176239Y-93995000D01*
X152903161Y-94640400D02*
X151114881Y-92852120D01*
X153111200Y-94640400D02*
X152903161Y-94640400D01*
X140091400Y-93995000D02*
X138785600Y-95300800D01*
X145176239Y-93995000D02*
X140091400Y-93995000D01*
%TD*%
%TA.AperFunction,Conductor*%
%TO.N,/VM*%
G36*
X180612980Y-78581885D02*
G01*
X180658735Y-78634689D01*
X180669941Y-78686458D01*
X180594257Y-115065258D01*
X180574433Y-115132256D01*
X180521534Y-115177901D01*
X180470257Y-115189000D01*
X134744259Y-115189000D01*
X134677220Y-115169315D01*
X134631465Y-115116511D01*
X134620259Y-115064742D01*
X134622379Y-114046000D01*
X147655755Y-114046000D01*
X147676259Y-114214869D01*
X147676260Y-114214874D01*
X147736582Y-114373931D01*
X147798875Y-114464177D01*
X147833217Y-114513929D01*
X147938905Y-114607560D01*
X147960550Y-114626736D01*
X148111173Y-114705789D01*
X148111175Y-114705790D01*
X148276344Y-114746500D01*
X148446456Y-114746500D01*
X148611625Y-114705790D01*
X148691092Y-114664081D01*
X148762249Y-114626736D01*
X148762250Y-114626734D01*
X148762252Y-114626734D01*
X148889583Y-114513929D01*
X148986218Y-114373930D01*
X149046540Y-114214872D01*
X149067045Y-114046000D01*
X149046540Y-113877128D01*
X148986218Y-113718070D01*
X148889583Y-113578071D01*
X148762252Y-113465266D01*
X148762249Y-113465263D01*
X148611626Y-113386210D01*
X148446456Y-113345500D01*
X148276344Y-113345500D01*
X148111173Y-113386210D01*
X147960550Y-113465263D01*
X147833216Y-113578072D01*
X147736582Y-113718068D01*
X147676260Y-113877125D01*
X147676259Y-113877130D01*
X147655755Y-114046000D01*
X134622379Y-114046000D01*
X134624176Y-113182400D01*
X152761155Y-113182400D01*
X152781659Y-113351269D01*
X152781660Y-113351274D01*
X152841982Y-113510331D01*
X152888741Y-113578072D01*
X152938617Y-113650329D01*
X153015079Y-113718068D01*
X153065950Y-113763136D01*
X153216573Y-113842189D01*
X153216575Y-113842190D01*
X153381744Y-113882900D01*
X153551856Y-113882900D01*
X153717025Y-113842190D01*
X153796492Y-113800481D01*
X153867649Y-113763136D01*
X153867650Y-113763134D01*
X153867652Y-113763134D01*
X153994983Y-113650329D01*
X154091618Y-113510330D01*
X154151940Y-113351272D01*
X154172445Y-113182400D01*
X154151940Y-113013528D01*
X154091618Y-112854470D01*
X153994983Y-112714471D01*
X153867652Y-112601666D01*
X153867649Y-112601663D01*
X153717026Y-112522610D01*
X153551856Y-112481900D01*
X153381744Y-112481900D01*
X153216573Y-112522610D01*
X153065950Y-112601663D01*
X152938616Y-112714472D01*
X152841982Y-112854468D01*
X152781660Y-113013525D01*
X152781659Y-113013530D01*
X152761155Y-113182400D01*
X134624176Y-113182400D01*
X134627399Y-111633000D01*
X140980659Y-111633000D01*
X140999975Y-111829129D01*
X140999976Y-111829132D01*
X141055870Y-112013390D01*
X141057188Y-112017733D01*
X141150086Y-112191532D01*
X141150090Y-112191539D01*
X141275116Y-112343883D01*
X141427460Y-112468909D01*
X141427467Y-112468913D01*
X141601266Y-112561811D01*
X141601269Y-112561811D01*
X141601273Y-112561814D01*
X141789868Y-112619024D01*
X141986000Y-112638341D01*
X142182132Y-112619024D01*
X142370727Y-112561814D01*
X142544538Y-112468910D01*
X142544544Y-112468904D01*
X142549607Y-112465523D01*
X142550703Y-112467164D01*
X142606639Y-112443405D01*
X142675507Y-112455194D01*
X142692148Y-112465888D01*
X142692393Y-112465523D01*
X142697458Y-112468907D01*
X142697462Y-112468910D01*
X142842501Y-112546435D01*
X142869147Y-112560678D01*
X142871273Y-112561814D01*
X143059868Y-112619024D01*
X143256000Y-112638341D01*
X143452132Y-112619024D01*
X143640727Y-112561814D01*
X143814538Y-112468910D01*
X143814544Y-112468904D01*
X143819607Y-112465523D01*
X143820703Y-112467164D01*
X143876639Y-112443405D01*
X143945507Y-112455194D01*
X143962148Y-112465888D01*
X143962393Y-112465523D01*
X143967458Y-112468907D01*
X143967462Y-112468910D01*
X144112501Y-112546435D01*
X144139147Y-112560678D01*
X144141273Y-112561814D01*
X144329868Y-112619024D01*
X144526000Y-112638341D01*
X144722132Y-112619024D01*
X144910727Y-112561814D01*
X145084538Y-112468910D01*
X145084544Y-112468904D01*
X145089607Y-112465523D01*
X145090703Y-112467164D01*
X145146639Y-112443405D01*
X145215507Y-112455194D01*
X145232148Y-112465888D01*
X145232393Y-112465523D01*
X145237458Y-112468907D01*
X145237462Y-112468910D01*
X145382501Y-112546435D01*
X145409147Y-112560678D01*
X145411273Y-112561814D01*
X145599868Y-112619024D01*
X145796000Y-112638341D01*
X145992132Y-112619024D01*
X146180727Y-112561814D01*
X146182853Y-112560677D01*
X146184095Y-112560418D01*
X146186355Y-112559483D01*
X146186532Y-112559911D01*
X146251254Y-112546435D01*
X146315615Y-112570767D01*
X146323669Y-112576796D01*
X146323672Y-112576797D01*
X146458517Y-112627091D01*
X146458516Y-112627091D01*
X146465444Y-112627835D01*
X146518127Y-112633500D01*
X147613872Y-112633499D01*
X147673483Y-112627091D01*
X147808331Y-112576796D01*
X147923546Y-112490546D01*
X148009796Y-112375331D01*
X148060091Y-112240483D01*
X148066500Y-112180873D01*
X148066499Y-111353600D01*
X152557955Y-111353600D01*
X152578459Y-111522469D01*
X152578460Y-111522474D01*
X152638782Y-111681531D01*
X152700351Y-111770727D01*
X152735417Y-111821529D01*
X152805409Y-111883536D01*
X152862750Y-111934336D01*
X152994150Y-112003300D01*
X153013375Y-112013390D01*
X153178544Y-112054100D01*
X153348656Y-112054100D01*
X153513825Y-112013390D01*
X153610617Y-111962589D01*
X153664449Y-111934336D01*
X153664450Y-111934334D01*
X153664452Y-111934334D01*
X153791783Y-111821529D01*
X153888418Y-111681530D01*
X153948740Y-111522472D01*
X153969245Y-111353600D01*
X153963077Y-111302800D01*
X169779155Y-111302800D01*
X169799659Y-111471669D01*
X169799660Y-111471674D01*
X169859982Y-111630731D01*
X169922275Y-111720977D01*
X169956617Y-111770729D01*
X170062305Y-111864360D01*
X170083950Y-111883536D01*
X170234573Y-111962589D01*
X170234575Y-111962590D01*
X170399744Y-112003300D01*
X170569856Y-112003300D01*
X170735025Y-111962590D01*
X170814492Y-111920881D01*
X170885649Y-111883536D01*
X170885650Y-111883534D01*
X170885652Y-111883534D01*
X171012983Y-111770729D01*
X171109618Y-111630730D01*
X171169940Y-111471672D01*
X171190445Y-111302800D01*
X171187361Y-111277400D01*
X171506355Y-111277400D01*
X171526859Y-111446269D01*
X171526860Y-111446274D01*
X171587182Y-111605331D01*
X171604714Y-111630730D01*
X171683817Y-111745329D01*
X171789505Y-111838960D01*
X171811150Y-111858136D01*
X171956333Y-111934334D01*
X171961775Y-111937190D01*
X172126944Y-111977900D01*
X172297056Y-111977900D01*
X172462225Y-111937190D01*
X172564457Y-111883534D01*
X172612849Y-111858136D01*
X172612850Y-111858134D01*
X172612852Y-111858134D01*
X172740183Y-111745329D01*
X172836818Y-111605330D01*
X172897140Y-111446272D01*
X172917645Y-111277400D01*
X173233555Y-111277400D01*
X173254059Y-111446269D01*
X173254060Y-111446274D01*
X173314382Y-111605331D01*
X173331914Y-111630730D01*
X173411017Y-111745329D01*
X173516705Y-111838960D01*
X173538350Y-111858136D01*
X173683533Y-111934334D01*
X173688975Y-111937190D01*
X173854144Y-111977900D01*
X174024256Y-111977900D01*
X174189425Y-111937190D01*
X174291657Y-111883534D01*
X174340049Y-111858136D01*
X174340050Y-111858134D01*
X174340052Y-111858134D01*
X174467383Y-111745329D01*
X174564018Y-111605330D01*
X174624340Y-111446272D01*
X174641761Y-111302800D01*
X174960755Y-111302800D01*
X174981259Y-111471669D01*
X174981260Y-111471674D01*
X175041582Y-111630731D01*
X175103875Y-111720977D01*
X175138217Y-111770729D01*
X175243905Y-111864360D01*
X175265550Y-111883536D01*
X175416173Y-111962589D01*
X175416175Y-111962590D01*
X175581344Y-112003300D01*
X175751456Y-112003300D01*
X175916625Y-111962590D01*
X175996092Y-111920881D01*
X176067249Y-111883536D01*
X176067250Y-111883534D01*
X176067252Y-111883534D01*
X176194583Y-111770729D01*
X176291218Y-111630730D01*
X176351540Y-111471672D01*
X176372045Y-111302800D01*
X176351540Y-111133928D01*
X176291218Y-110974870D01*
X176194583Y-110834871D01*
X176067252Y-110722066D01*
X176067249Y-110722063D01*
X175916626Y-110643010D01*
X175751456Y-110602300D01*
X175581344Y-110602300D01*
X175416173Y-110643010D01*
X175265550Y-110722063D01*
X175138216Y-110834872D01*
X175041582Y-110974868D01*
X174981260Y-111133925D01*
X174981259Y-111133930D01*
X174960755Y-111302800D01*
X174641761Y-111302800D01*
X174644845Y-111277400D01*
X174624340Y-111108528D01*
X174564018Y-110949470D01*
X174545137Y-110922117D01*
X174484915Y-110834871D01*
X174467383Y-110809471D01*
X174351173Y-110706518D01*
X174340049Y-110696663D01*
X174189426Y-110617610D01*
X174024256Y-110576900D01*
X173854144Y-110576900D01*
X173688973Y-110617610D01*
X173538350Y-110696663D01*
X173411016Y-110809472D01*
X173314382Y-110949468D01*
X173254060Y-111108525D01*
X173254059Y-111108530D01*
X173233555Y-111277400D01*
X172917645Y-111277400D01*
X172897140Y-111108528D01*
X172836818Y-110949470D01*
X172817937Y-110922117D01*
X172757715Y-110834871D01*
X172740183Y-110809471D01*
X172623973Y-110706518D01*
X172612849Y-110696663D01*
X172462226Y-110617610D01*
X172297056Y-110576900D01*
X172126944Y-110576900D01*
X171961773Y-110617610D01*
X171811150Y-110696663D01*
X171683816Y-110809472D01*
X171587182Y-110949468D01*
X171526860Y-111108525D01*
X171526859Y-111108530D01*
X171506355Y-111277400D01*
X171187361Y-111277400D01*
X171169940Y-111133928D01*
X171109618Y-110974870D01*
X171012983Y-110834871D01*
X170885652Y-110722066D01*
X170885649Y-110722063D01*
X170735026Y-110643010D01*
X170569856Y-110602300D01*
X170399744Y-110602300D01*
X170234573Y-110643010D01*
X170083950Y-110722063D01*
X169956616Y-110834872D01*
X169859982Y-110974868D01*
X169799660Y-111133925D01*
X169799659Y-111133930D01*
X169779155Y-111302800D01*
X153963077Y-111302800D01*
X153948740Y-111184728D01*
X153888418Y-111025670D01*
X153888312Y-111025517D01*
X153853352Y-110974868D01*
X153791783Y-110885671D01*
X153691791Y-110797086D01*
X153664449Y-110772863D01*
X153513826Y-110693810D01*
X153348656Y-110653100D01*
X153178544Y-110653100D01*
X153013373Y-110693810D01*
X152862750Y-110772863D01*
X152735416Y-110885672D01*
X152638782Y-111025668D01*
X152578460Y-111184725D01*
X152578459Y-111184730D01*
X152557955Y-111353600D01*
X148066499Y-111353600D01*
X148066499Y-111085128D01*
X148061299Y-111036757D01*
X148060091Y-111025516D01*
X148009797Y-110890671D01*
X148009793Y-110890664D01*
X147923547Y-110775455D01*
X147923544Y-110775452D01*
X147808335Y-110689206D01*
X147808328Y-110689202D01*
X147673482Y-110638908D01*
X147673483Y-110638908D01*
X147613883Y-110632501D01*
X147613881Y-110632500D01*
X147613873Y-110632500D01*
X147613864Y-110632500D01*
X146518129Y-110632500D01*
X146518123Y-110632501D01*
X146458516Y-110638908D01*
X146323671Y-110689202D01*
X146323666Y-110689205D01*
X146315614Y-110695233D01*
X146250149Y-110719648D01*
X146186530Y-110706104D01*
X146186359Y-110706518D01*
X146184123Y-110705592D01*
X146182850Y-110705321D01*
X146180729Y-110704187D01*
X146180728Y-110704186D01*
X146180727Y-110704186D01*
X145992132Y-110646976D01*
X145992129Y-110646975D01*
X145796000Y-110627659D01*
X145599870Y-110646975D01*
X145411266Y-110704188D01*
X145237467Y-110797086D01*
X145232399Y-110800473D01*
X145231305Y-110798836D01*
X145175337Y-110822596D01*
X145106471Y-110810795D01*
X145089843Y-110800109D01*
X145089601Y-110800473D01*
X145084532Y-110797086D01*
X144910733Y-110704188D01*
X144910727Y-110704186D01*
X144722132Y-110646976D01*
X144722129Y-110646975D01*
X144526000Y-110627659D01*
X144329870Y-110646975D01*
X144141266Y-110704188D01*
X143967467Y-110797086D01*
X143962399Y-110800473D01*
X143961305Y-110798836D01*
X143905337Y-110822596D01*
X143836471Y-110810795D01*
X143819843Y-110800109D01*
X143819601Y-110800473D01*
X143814532Y-110797086D01*
X143640733Y-110704188D01*
X143640727Y-110704186D01*
X143452132Y-110646976D01*
X143452129Y-110646975D01*
X143256000Y-110627659D01*
X143059870Y-110646975D01*
X142871266Y-110704188D01*
X142697467Y-110797086D01*
X142692399Y-110800473D01*
X142691305Y-110798836D01*
X142635337Y-110822596D01*
X142566471Y-110810795D01*
X142549843Y-110800109D01*
X142549601Y-110800473D01*
X142544532Y-110797086D01*
X142370733Y-110704188D01*
X142370727Y-110704186D01*
X142182132Y-110646976D01*
X142182129Y-110646975D01*
X141986000Y-110627659D01*
X141789870Y-110646975D01*
X141601266Y-110704188D01*
X141427467Y-110797086D01*
X141427460Y-110797090D01*
X141275116Y-110922116D01*
X141150090Y-111074460D01*
X141150086Y-111074467D01*
X141057188Y-111248266D01*
X140999975Y-111436870D01*
X140980659Y-111633000D01*
X134627399Y-111633000D01*
X134632102Y-109372400D01*
X158577755Y-109372400D01*
X158598259Y-109541269D01*
X158598260Y-109541274D01*
X158658582Y-109700331D01*
X158720875Y-109790577D01*
X158755217Y-109840329D01*
X158860905Y-109933960D01*
X158882550Y-109953136D01*
X159033173Y-110032189D01*
X159033175Y-110032190D01*
X159198344Y-110072900D01*
X159368456Y-110072900D01*
X159533625Y-110032190D01*
X159613092Y-109990481D01*
X159684249Y-109953136D01*
X159684250Y-109953134D01*
X159684252Y-109953134D01*
X159811583Y-109840329D01*
X159908218Y-109700330D01*
X159968540Y-109541272D01*
X159989045Y-109372400D01*
X159968540Y-109203528D01*
X159908218Y-109044470D01*
X159811583Y-108904471D01*
X159684252Y-108791666D01*
X159684249Y-108791663D01*
X159533626Y-108712610D01*
X159368456Y-108671900D01*
X159198344Y-108671900D01*
X159033173Y-108712610D01*
X158882550Y-108791663D01*
X158755216Y-108904472D01*
X158658582Y-109044468D01*
X158598260Y-109203525D01*
X158598259Y-109203530D01*
X158577755Y-109372400D01*
X134632102Y-109372400D01*
X134635114Y-107924600D01*
X151008555Y-107924600D01*
X151029059Y-108093469D01*
X151029060Y-108093474D01*
X151089382Y-108252531D01*
X151151675Y-108342777D01*
X151186017Y-108392529D01*
X151291705Y-108486160D01*
X151313350Y-108505336D01*
X151463973Y-108584389D01*
X151463975Y-108584390D01*
X151629144Y-108625100D01*
X151799256Y-108625100D01*
X151964425Y-108584390D01*
X152043892Y-108542681D01*
X152115049Y-108505336D01*
X152115050Y-108505334D01*
X152115052Y-108505334D01*
X152242383Y-108392529D01*
X152339018Y-108252530D01*
X152399340Y-108093472D01*
X152419845Y-107924600D01*
X152410593Y-107848400D01*
X154386755Y-107848400D01*
X154407259Y-108017269D01*
X154407260Y-108017274D01*
X154467582Y-108176331D01*
X154520179Y-108252530D01*
X154564217Y-108316329D01*
X154669905Y-108409960D01*
X154691550Y-108429136D01*
X154836733Y-108505334D01*
X154842175Y-108508190D01*
X155007344Y-108548900D01*
X155177456Y-108548900D01*
X155342625Y-108508190D01*
X155422092Y-108466481D01*
X155493249Y-108429136D01*
X155493250Y-108429134D01*
X155493252Y-108429134D01*
X155620583Y-108316329D01*
X155717218Y-108176330D01*
X155777540Y-108017272D01*
X155798045Y-107848400D01*
X155777540Y-107679528D01*
X155717218Y-107520470D01*
X155620583Y-107380471D01*
X155493252Y-107267666D01*
X155493249Y-107267663D01*
X155342626Y-107188610D01*
X155177456Y-107147900D01*
X155007344Y-107147900D01*
X154842173Y-107188610D01*
X154691550Y-107267663D01*
X154564216Y-107380472D01*
X154467582Y-107520468D01*
X154407260Y-107679525D01*
X154407259Y-107679530D01*
X154386755Y-107848400D01*
X152410593Y-107848400D01*
X152399340Y-107755728D01*
X152339018Y-107596670D01*
X152242383Y-107456671D01*
X152115052Y-107343866D01*
X152115049Y-107343863D01*
X151964426Y-107264810D01*
X151799256Y-107224100D01*
X151629144Y-107224100D01*
X151463973Y-107264810D01*
X151313350Y-107343863D01*
X151186016Y-107456672D01*
X151089382Y-107596668D01*
X151029060Y-107755725D01*
X151029059Y-107755730D01*
X151008555Y-107924600D01*
X134635114Y-107924600D01*
X134642882Y-104190800D01*
X137780259Y-104190800D01*
X137799575Y-104386929D01*
X137856788Y-104575533D01*
X137949686Y-104749332D01*
X137949690Y-104749339D01*
X138074716Y-104901683D01*
X138227060Y-105026709D01*
X138227067Y-105026713D01*
X138400866Y-105119611D01*
X138400869Y-105119611D01*
X138400873Y-105119614D01*
X138589468Y-105176824D01*
X138785600Y-105196141D01*
X138981732Y-105176824D01*
X139170327Y-105119614D01*
X139344138Y-105026710D01*
X139496483Y-104901683D01*
X139621510Y-104749338D01*
X139714414Y-104575527D01*
X139771624Y-104386932D01*
X139790941Y-104190800D01*
X139785938Y-104140000D01*
X140975555Y-104140000D01*
X140996059Y-104308869D01*
X140996060Y-104308874D01*
X141056382Y-104467931D01*
X141118675Y-104558177D01*
X141153017Y-104607929D01*
X141258705Y-104701560D01*
X141280350Y-104720736D01*
X141430973Y-104799789D01*
X141430975Y-104799790D01*
X141596144Y-104840500D01*
X141766256Y-104840500D01*
X141931425Y-104799790D01*
X142010892Y-104758081D01*
X142082049Y-104720736D01*
X142082050Y-104720734D01*
X142082052Y-104720734D01*
X142209383Y-104607929D01*
X142306018Y-104467930D01*
X142366340Y-104308872D01*
X142386845Y-104140000D01*
X142366340Y-103971128D01*
X142306018Y-103812070D01*
X142209383Y-103672071D01*
X142145527Y-103615500D01*
X146868355Y-103615500D01*
X146888859Y-103784369D01*
X146888860Y-103784374D01*
X146949182Y-103943431D01*
X147011475Y-104033677D01*
X147045817Y-104083429D01*
X147109673Y-104140000D01*
X147173150Y-104196236D01*
X147323773Y-104275289D01*
X147323775Y-104275290D01*
X147488944Y-104316000D01*
X147659056Y-104316000D01*
X147824225Y-104275290D01*
X147903692Y-104233581D01*
X147974849Y-104196236D01*
X147974850Y-104196234D01*
X147974852Y-104196234D01*
X148102183Y-104083429D01*
X148198818Y-103943430D01*
X148259140Y-103784372D01*
X148279645Y-103615500D01*
X148259140Y-103446628D01*
X148198818Y-103287570D01*
X148173575Y-103251000D01*
X158958755Y-103251000D01*
X158979259Y-103419869D01*
X158979260Y-103419874D01*
X159039582Y-103578931D01*
X159076398Y-103632267D01*
X159136217Y-103718929D01*
X159234575Y-103806066D01*
X159263550Y-103831736D01*
X159414173Y-103910789D01*
X159414175Y-103910790D01*
X159579344Y-103951500D01*
X159749456Y-103951500D01*
X159914625Y-103910790D01*
X159994092Y-103869081D01*
X160065249Y-103831736D01*
X160065250Y-103831734D01*
X160065252Y-103831734D01*
X160192583Y-103718929D01*
X160289218Y-103578930D01*
X160349540Y-103419872D01*
X160370045Y-103251000D01*
X160349540Y-103082128D01*
X160289218Y-102923070D01*
X160286266Y-102918794D01*
X160254876Y-102873318D01*
X160192583Y-102783071D01*
X160073637Y-102677694D01*
X160065249Y-102670263D01*
X159914626Y-102591210D01*
X159749456Y-102550500D01*
X159579344Y-102550500D01*
X159414173Y-102591210D01*
X159263550Y-102670263D01*
X159136216Y-102783072D01*
X159039582Y-102923068D01*
X158979260Y-103082125D01*
X158979259Y-103082130D01*
X158958755Y-103251000D01*
X148173575Y-103251000D01*
X148102183Y-103147571D01*
X147974852Y-103034766D01*
X147974849Y-103034763D01*
X147824226Y-102955710D01*
X147659056Y-102915000D01*
X147488944Y-102915000D01*
X147481443Y-102915000D01*
X147481443Y-102913030D01*
X147474805Y-102911926D01*
X147466521Y-102918794D01*
X147447160Y-102925298D01*
X147323773Y-102955710D01*
X147173150Y-103034763D01*
X147045816Y-103147572D01*
X146949182Y-103287568D01*
X146888860Y-103446625D01*
X146888859Y-103446630D01*
X146868355Y-103615500D01*
X142145527Y-103615500D01*
X142082052Y-103559266D01*
X142082049Y-103559263D01*
X141931426Y-103480210D01*
X141766256Y-103439500D01*
X141596144Y-103439500D01*
X141430973Y-103480210D01*
X141280350Y-103559263D01*
X141153016Y-103672072D01*
X141056382Y-103812068D01*
X140996060Y-103971125D01*
X140996059Y-103971130D01*
X140975555Y-104140000D01*
X139785938Y-104140000D01*
X139771624Y-103994668D01*
X139714414Y-103806073D01*
X139621510Y-103632262D01*
X139621507Y-103632258D01*
X139618123Y-103627193D01*
X139619764Y-103626096D01*
X139596005Y-103570161D01*
X139607794Y-103501293D01*
X139618488Y-103484651D01*
X139618123Y-103484407D01*
X139621504Y-103479344D01*
X139621510Y-103479338D01*
X139714414Y-103305527D01*
X139771624Y-103116932D01*
X139790941Y-102920800D01*
X139771624Y-102724668D01*
X139714414Y-102536073D01*
X139621510Y-102362262D01*
X139621507Y-102362258D01*
X139618123Y-102357193D01*
X139619764Y-102356096D01*
X139596005Y-102300161D01*
X139607794Y-102231293D01*
X139618488Y-102214651D01*
X139618123Y-102214407D01*
X139621504Y-102209344D01*
X139621510Y-102209338D01*
X139714414Y-102035527D01*
X139730955Y-101981000D01*
X146614355Y-101981000D01*
X146634859Y-102149869D01*
X146634860Y-102149874D01*
X146695182Y-102308931D01*
X146731998Y-102362267D01*
X146791817Y-102448929D01*
X146888537Y-102534615D01*
X146919150Y-102561736D01*
X147050337Y-102630588D01*
X147069775Y-102640790D01*
X147234944Y-102681500D01*
X147412557Y-102681500D01*
X147412557Y-102683474D01*
X147419196Y-102684577D01*
X147427504Y-102677694D01*
X147446836Y-102671202D01*
X147570225Y-102640790D01*
X147664691Y-102591210D01*
X147720849Y-102561736D01*
X147720850Y-102561734D01*
X147720852Y-102561734D01*
X147848183Y-102448929D01*
X147944818Y-102308930D01*
X148005140Y-102149872D01*
X148025645Y-101981000D01*
X148005140Y-101812128D01*
X147944818Y-101653070D01*
X147848183Y-101513071D01*
X147720852Y-101400266D01*
X147720849Y-101400263D01*
X147570226Y-101321210D01*
X147405056Y-101280500D01*
X147234944Y-101280500D01*
X147069773Y-101321210D01*
X146919150Y-101400263D01*
X146791816Y-101513072D01*
X146695182Y-101653068D01*
X146634860Y-101812125D01*
X146634859Y-101812130D01*
X146614355Y-101981000D01*
X139730955Y-101981000D01*
X139771624Y-101846932D01*
X139790941Y-101650800D01*
X139771624Y-101454668D01*
X139714414Y-101266073D01*
X139621510Y-101092262D01*
X139621507Y-101092258D01*
X139618123Y-101087193D01*
X139619764Y-101086096D01*
X139596005Y-101030161D01*
X139607794Y-100961293D01*
X139618488Y-100944651D01*
X139618123Y-100944407D01*
X139621504Y-100939344D01*
X139621510Y-100939338D01*
X139714414Y-100765527D01*
X139771624Y-100576932D01*
X139790941Y-100380800D01*
X139778433Y-100253800D01*
X144912555Y-100253800D01*
X144933059Y-100422669D01*
X144933060Y-100422674D01*
X144993382Y-100581731D01*
X145055675Y-100671977D01*
X145090017Y-100721729D01*
X145139462Y-100765533D01*
X145217350Y-100834536D01*
X145367973Y-100913589D01*
X145367975Y-100913590D01*
X145533144Y-100954300D01*
X145703256Y-100954300D01*
X145868425Y-100913590D01*
X145915651Y-100888803D01*
X149308435Y-100888803D01*
X149328630Y-101068049D01*
X149328631Y-101068054D01*
X149388211Y-101238323D01*
X149405648Y-101266073D01*
X149484184Y-101391062D01*
X149611738Y-101518616D01*
X149668504Y-101554284D01*
X149764477Y-101614589D01*
X149801456Y-101627528D01*
X149858233Y-101668249D01*
X149883981Y-101733202D01*
X149883723Y-101758453D01*
X149867235Y-101904795D01*
X149867235Y-101904803D01*
X149887430Y-102084049D01*
X149887431Y-102084054D01*
X149947011Y-102254323D01*
X149981324Y-102308931D01*
X150042984Y-102407062D01*
X150170538Y-102534616D01*
X150323278Y-102630589D01*
X150468773Y-102681500D01*
X150493545Y-102690168D01*
X150493550Y-102690169D01*
X150672796Y-102710365D01*
X150672800Y-102710365D01*
X150672804Y-102710365D01*
X150852049Y-102690169D01*
X150852052Y-102690168D01*
X150852055Y-102690168D01*
X151022322Y-102630589D01*
X151175062Y-102534616D01*
X151220119Y-102489559D01*
X151281442Y-102456074D01*
X151351134Y-102461058D01*
X151395481Y-102489559D01*
X151440538Y-102534616D01*
X151593278Y-102630589D01*
X151738773Y-102681500D01*
X151763545Y-102690168D01*
X151763550Y-102690169D01*
X151942796Y-102710365D01*
X151942800Y-102710365D01*
X151942804Y-102710365D01*
X152122049Y-102690169D01*
X152122052Y-102690168D01*
X152122055Y-102690168D01*
X152292322Y-102630589D01*
X152445062Y-102534616D01*
X152572616Y-102407062D01*
X152668589Y-102254322D01*
X152728168Y-102084055D01*
X152733635Y-102035533D01*
X152748365Y-101904803D01*
X152748365Y-101904797D01*
X152731876Y-101758454D01*
X152743930Y-101689632D01*
X152791279Y-101638252D01*
X152814140Y-101627529D01*
X152851122Y-101614589D01*
X153003862Y-101518616D01*
X153131416Y-101391062D01*
X153227389Y-101238322D01*
X153286968Y-101068055D01*
X153299785Y-100954300D01*
X153307165Y-100888803D01*
X153307165Y-100888796D01*
X153286969Y-100709550D01*
X153286968Y-100709545D01*
X153242244Y-100581731D01*
X153227389Y-100539278D01*
X153131416Y-100386538D01*
X153086267Y-100341389D01*
X153052782Y-100280066D01*
X153057766Y-100210374D01*
X153077000Y-100176396D01*
X153080607Y-100171870D01*
X153080616Y-100171862D01*
X153176589Y-100019122D01*
X153236168Y-99848855D01*
X153239164Y-99822267D01*
X153256365Y-99669603D01*
X153256365Y-99669596D01*
X153236169Y-99490350D01*
X153236168Y-99490345D01*
X153176588Y-99320076D01*
X153119280Y-99228872D01*
X153080616Y-99167338D01*
X153035559Y-99122281D01*
X153002074Y-99060958D01*
X153007058Y-98991266D01*
X153035559Y-98946919D01*
X153074268Y-98908210D01*
X153131416Y-98851062D01*
X153227389Y-98698322D01*
X153286968Y-98528055D01*
X153287587Y-98522560D01*
X153307165Y-98348803D01*
X153307165Y-98348796D01*
X153286969Y-98169550D01*
X153286968Y-98169545D01*
X153268907Y-98117930D01*
X153227389Y-97999278D01*
X153223570Y-97993200D01*
X155478955Y-97993200D01*
X155499459Y-98162069D01*
X155499460Y-98162074D01*
X155559782Y-98321131D01*
X155613761Y-98399332D01*
X155656417Y-98461129D01*
X155731960Y-98528054D01*
X155783750Y-98573936D01*
X155886953Y-98628101D01*
X155934375Y-98652990D01*
X156099544Y-98693700D01*
X156269656Y-98693700D01*
X156434825Y-98652990D01*
X156543242Y-98596088D01*
X156585449Y-98573936D01*
X156585450Y-98573934D01*
X156585452Y-98573934D01*
X156712783Y-98461129D01*
X156809418Y-98321130D01*
X156869740Y-98162072D01*
X156890245Y-97993200D01*
X156869740Y-97824328D01*
X156809418Y-97665270D01*
X156795197Y-97644668D01*
X156775076Y-97615518D01*
X156712783Y-97525271D01*
X156585452Y-97412466D01*
X156585449Y-97412463D01*
X156434826Y-97333410D01*
X156269656Y-97292700D01*
X156099544Y-97292700D01*
X155934373Y-97333410D01*
X155783750Y-97412463D01*
X155656416Y-97525272D01*
X155559782Y-97665268D01*
X155499460Y-97824325D01*
X155499459Y-97824330D01*
X155478955Y-97993200D01*
X153223570Y-97993200D01*
X153202001Y-97958874D01*
X153131415Y-97846537D01*
X153003862Y-97718984D01*
X152851121Y-97623010D01*
X152780940Y-97598453D01*
X152710887Y-97573940D01*
X152654113Y-97533220D01*
X152628365Y-97468268D01*
X152628623Y-97443016D01*
X152646765Y-97282002D01*
X152646765Y-97281996D01*
X152626569Y-97102750D01*
X152626568Y-97102745D01*
X152566988Y-96932476D01*
X152471015Y-96779737D01*
X152343462Y-96652184D01*
X152190723Y-96556211D01*
X152020454Y-96496631D01*
X152020449Y-96496630D01*
X151841204Y-96476435D01*
X151841196Y-96476435D01*
X151661950Y-96496630D01*
X151661945Y-96496631D01*
X151491676Y-96556211D01*
X151348372Y-96646256D01*
X151281135Y-96665256D01*
X151216428Y-96646256D01*
X151073123Y-96556211D01*
X150902854Y-96496631D01*
X150902849Y-96496630D01*
X150723604Y-96476435D01*
X150723596Y-96476435D01*
X150544350Y-96496630D01*
X150544345Y-96496631D01*
X150374076Y-96556211D01*
X150221337Y-96652184D01*
X150093784Y-96779737D01*
X149997811Y-96932476D01*
X149938231Y-97102745D01*
X149938230Y-97102750D01*
X149918035Y-97281996D01*
X149918035Y-97282003D01*
X149938232Y-97461262D01*
X149938671Y-97463186D01*
X149938592Y-97464462D01*
X149939011Y-97468175D01*
X149938360Y-97468248D01*
X149934390Y-97532924D01*
X149893084Y-97589277D01*
X149858733Y-97607805D01*
X149815276Y-97623011D01*
X149815275Y-97623012D01*
X149662537Y-97718984D01*
X149534984Y-97846537D01*
X149439011Y-97999276D01*
X149379431Y-98169545D01*
X149379430Y-98169550D01*
X149359235Y-98348796D01*
X149359235Y-98348803D01*
X149379430Y-98528049D01*
X149379431Y-98528054D01*
X149439011Y-98698323D01*
X149534984Y-98851062D01*
X149605441Y-98921519D01*
X149638926Y-98982842D01*
X149633942Y-99052534D01*
X149605441Y-99096881D01*
X149534984Y-99167337D01*
X149439011Y-99320076D01*
X149379431Y-99490345D01*
X149379430Y-99490350D01*
X149359235Y-99669596D01*
X149359235Y-99669603D01*
X149379430Y-99848849D01*
X149379431Y-99848854D01*
X149439011Y-100019123D01*
X149480361Y-100084930D01*
X149534983Y-100171861D01*
X149534985Y-100171863D01*
X149538596Y-100176391D01*
X149565007Y-100241076D01*
X149552254Y-100309772D01*
X149529334Y-100341387D01*
X149484184Y-100386537D01*
X149388211Y-100539276D01*
X149328631Y-100709545D01*
X149328630Y-100709550D01*
X149308435Y-100888796D01*
X149308435Y-100888803D01*
X145915651Y-100888803D01*
X145947892Y-100871881D01*
X146019049Y-100834536D01*
X146019050Y-100834534D01*
X146019052Y-100834534D01*
X146146383Y-100721729D01*
X146243018Y-100581730D01*
X146303340Y-100422672D01*
X146323845Y-100253800D01*
X146303340Y-100084928D01*
X146243018Y-99925870D01*
X146222352Y-99895931D01*
X146189854Y-99848849D01*
X146146383Y-99785871D01*
X146019052Y-99673066D01*
X146019049Y-99673063D01*
X145868426Y-99594010D01*
X145762897Y-99568000D01*
X146563555Y-99568000D01*
X146584059Y-99736869D01*
X146584060Y-99736874D01*
X146644382Y-99895931D01*
X146665048Y-99925870D01*
X146741017Y-100035929D01*
X146846705Y-100129560D01*
X146868350Y-100148736D01*
X146999327Y-100217478D01*
X147018975Y-100227790D01*
X147184144Y-100268500D01*
X147354256Y-100268500D01*
X147519425Y-100227790D01*
X147625988Y-100171861D01*
X147670049Y-100148736D01*
X147670050Y-100148734D01*
X147670052Y-100148734D01*
X147797383Y-100035929D01*
X147894018Y-99895930D01*
X147954340Y-99736872D01*
X147974845Y-99568000D01*
X147954340Y-99399128D01*
X147894018Y-99240070D01*
X147886286Y-99228869D01*
X147843814Y-99167337D01*
X147797383Y-99100071D01*
X147702516Y-99016026D01*
X147670049Y-98987263D01*
X147519426Y-98908210D01*
X147354256Y-98867500D01*
X147184144Y-98867500D01*
X147018973Y-98908210D01*
X146868350Y-98987263D01*
X146741016Y-99100072D01*
X146644382Y-99240068D01*
X146584060Y-99399125D01*
X146584059Y-99399130D01*
X146563555Y-99568000D01*
X145762897Y-99568000D01*
X145703256Y-99553300D01*
X145533144Y-99553300D01*
X145367973Y-99594010D01*
X145217350Y-99673063D01*
X145090016Y-99785872D01*
X144993382Y-99925868D01*
X144933060Y-100084925D01*
X144933059Y-100084930D01*
X144912555Y-100253800D01*
X139778433Y-100253800D01*
X139771624Y-100184668D01*
X139714414Y-99996073D01*
X139621510Y-99822262D01*
X139621507Y-99822258D01*
X139618123Y-99817193D01*
X139619764Y-99816096D01*
X139596005Y-99760161D01*
X139607794Y-99691293D01*
X139618488Y-99674651D01*
X139618123Y-99674407D01*
X139621504Y-99669344D01*
X139621510Y-99669338D01*
X139714414Y-99495527D01*
X139771624Y-99306932D01*
X139790941Y-99110800D01*
X139771624Y-98914668D01*
X139722064Y-98751294D01*
X139721442Y-98681428D01*
X139758690Y-98622316D01*
X139821984Y-98592725D01*
X139840726Y-98591300D01*
X140879324Y-98591300D01*
X140946363Y-98610985D01*
X140992118Y-98663789D01*
X141002062Y-98732947D01*
X140995266Y-98759270D01*
X140945261Y-98891122D01*
X140945259Y-98891130D01*
X140924755Y-99060000D01*
X140945259Y-99228869D01*
X140945260Y-99228874D01*
X141005582Y-99387931D01*
X141067875Y-99478177D01*
X141102217Y-99527929D01*
X141207905Y-99621560D01*
X141229550Y-99640736D01*
X141380173Y-99719789D01*
X141380175Y-99719790D01*
X141545344Y-99760500D01*
X141715456Y-99760500D01*
X141880625Y-99719790D01*
X141976764Y-99669332D01*
X142031249Y-99640736D01*
X142031250Y-99640734D01*
X142031252Y-99640734D01*
X142158583Y-99527929D01*
X142255218Y-99387930D01*
X142315540Y-99228872D01*
X142336045Y-99060000D01*
X142315540Y-98891128D01*
X142308012Y-98871278D01*
X142265534Y-98759270D01*
X142260167Y-98689607D01*
X142293315Y-98628101D01*
X142354453Y-98594280D01*
X142381476Y-98591300D01*
X145960245Y-98591300D01*
X145978215Y-98592609D01*
X146001973Y-98596089D01*
X146054018Y-98591535D01*
X146059420Y-98591300D01*
X146067654Y-98591300D01*
X146067659Y-98591300D01*
X146079277Y-98589941D01*
X146100226Y-98587493D01*
X146112978Y-98586377D01*
X146176747Y-98580799D01*
X146176755Y-98580796D01*
X146183816Y-98579339D01*
X146183828Y-98579398D01*
X146191193Y-98577765D01*
X146191179Y-98577706D01*
X146198196Y-98576041D01*
X146198205Y-98576041D01*
X146270373Y-98549774D01*
X146343284Y-98525614D01*
X146343293Y-98525607D01*
X146349832Y-98522560D01*
X146349858Y-98522616D01*
X146356640Y-98519332D01*
X146356613Y-98519278D01*
X146363056Y-98516040D01*
X146363067Y-98516037D01*
X146427233Y-98473834D01*
X146492606Y-98433512D01*
X146492612Y-98433505D01*
X146498275Y-98429029D01*
X146498312Y-98429077D01*
X146504154Y-98424318D01*
X146504114Y-98424271D01*
X146509636Y-98419636D01*
X146509646Y-98419630D01*
X146531348Y-98396625D01*
X146562336Y-98363782D01*
X146604987Y-98321130D01*
X146643726Y-98282390D01*
X146705046Y-98248906D01*
X146774738Y-98253890D01*
X146813633Y-98277256D01*
X146919150Y-98370736D01*
X147030310Y-98429077D01*
X147069775Y-98449790D01*
X147234944Y-98490500D01*
X147405056Y-98490500D01*
X147570225Y-98449790D01*
X147666364Y-98399332D01*
X147720849Y-98370736D01*
X147720850Y-98370734D01*
X147720852Y-98370734D01*
X147848183Y-98257929D01*
X147944818Y-98117930D01*
X148005140Y-97958872D01*
X148025645Y-97790000D01*
X148005140Y-97621128D01*
X147944818Y-97462070D01*
X147944260Y-97461262D01*
X147848182Y-97322070D01*
X147817330Y-97294738D01*
X147780203Y-97235549D01*
X147780969Y-97165684D01*
X147811873Y-97114243D01*
X149651298Y-95274819D01*
X149712621Y-95241334D01*
X149738979Y-95238500D01*
X149852901Y-95238500D01*
X149852909Y-95238500D01*
X149983455Y-95223241D01*
X150148317Y-95163237D01*
X150294896Y-95066830D01*
X150415292Y-94939218D01*
X150465735Y-94851847D01*
X150516297Y-94803635D01*
X150584904Y-94790411D01*
X150649769Y-94816378D01*
X150660800Y-94826169D01*
X150884216Y-95049585D01*
X150884220Y-95049588D01*
X150884223Y-95049591D01*
X150987323Y-95131111D01*
X151146327Y-95205257D01*
X151318144Y-95240734D01*
X151493513Y-95235631D01*
X151662976Y-95190223D01*
X151817400Y-95106959D01*
X151948459Y-94990326D01*
X151963879Y-94968302D01*
X152018453Y-94924677D01*
X152087951Y-94917482D01*
X152150307Y-94949002D01*
X152153136Y-94951743D01*
X152327431Y-95126038D01*
X152339212Y-95139670D01*
X152353549Y-95158928D01*
X152393570Y-95192511D01*
X152397558Y-95196166D01*
X152403377Y-95201985D01*
X152403381Y-95201988D01*
X152403384Y-95201991D01*
X152429120Y-95222340D01*
X152487947Y-95271702D01*
X152487948Y-95271702D01*
X152487950Y-95271704D01*
X152493979Y-95275670D01*
X152493946Y-95275719D01*
X152500308Y-95279772D01*
X152500340Y-95279721D01*
X152506480Y-95283508D01*
X152506484Y-95283511D01*
X152541293Y-95299743D01*
X152576102Y-95315975D01*
X152635867Y-95345990D01*
X152644728Y-95350440D01*
X152644730Y-95350440D01*
X152651518Y-95352911D01*
X152651497Y-95352967D01*
X152658618Y-95355443D01*
X152658637Y-95355386D01*
X152665483Y-95357654D01*
X152665488Y-95357657D01*
X152665493Y-95357658D01*
X152665496Y-95357659D01*
X152740726Y-95373192D01*
X152815440Y-95390900D01*
X152815443Y-95390900D01*
X152815447Y-95390901D01*
X152822614Y-95391739D01*
X152822607Y-95391798D01*
X152830105Y-95392564D01*
X152830111Y-95392505D01*
X152837300Y-95393134D01*
X152837304Y-95393133D01*
X152837305Y-95393134D01*
X152914078Y-95390900D01*
X153154909Y-95390900D01*
X153285455Y-95375641D01*
X153450317Y-95315637D01*
X153591359Y-95222871D01*
X153596893Y-95219232D01*
X153596894Y-95219231D01*
X153596893Y-95219231D01*
X153596896Y-95219230D01*
X153717292Y-95091618D01*
X153805012Y-94939681D01*
X153855330Y-94771610D01*
X153865531Y-94596465D01*
X153835065Y-94423689D01*
X153765577Y-94262596D01*
X153660810Y-94121870D01*
X153526414Y-94009098D01*
X153501164Y-93996417D01*
X153369633Y-93930359D01*
X153252937Y-93902701D01*
X153193853Y-93869725D01*
X152883810Y-93559682D01*
X152850325Y-93498359D01*
X152855309Y-93428667D01*
X152897181Y-93372734D01*
X152913853Y-93362212D01*
X152953252Y-93341534D01*
X153080583Y-93228729D01*
X153177218Y-93088730D01*
X153237540Y-92929672D01*
X153258045Y-92760800D01*
X153237540Y-92591928D01*
X153185990Y-92456000D01*
X162743355Y-92456000D01*
X162763859Y-92624869D01*
X162763860Y-92624874D01*
X162824182Y-92783931D01*
X162885751Y-92873127D01*
X162920817Y-92923929D01*
X162990809Y-92985936D01*
X163048150Y-93036736D01*
X163179550Y-93105700D01*
X163198775Y-93115790D01*
X163363944Y-93156500D01*
X163534056Y-93156500D01*
X163699225Y-93115790D01*
X163796015Y-93064990D01*
X163849849Y-93036736D01*
X163849850Y-93036734D01*
X163849852Y-93036734D01*
X163977183Y-92923929D01*
X164073818Y-92783930D01*
X164134140Y-92624872D01*
X164154645Y-92456000D01*
X164134140Y-92287128D01*
X164073818Y-92128070D01*
X164066093Y-92116879D01*
X164027039Y-92060300D01*
X163977183Y-91988071D01*
X163849852Y-91875266D01*
X163834667Y-91867296D01*
X163784455Y-91818713D01*
X163768480Y-91750694D01*
X163791815Y-91684836D01*
X163834667Y-91647703D01*
X163849852Y-91639734D01*
X163977183Y-91526929D01*
X164073818Y-91386930D01*
X164134140Y-91227872D01*
X164154645Y-91059000D01*
X164134140Y-90890128D01*
X164073818Y-90731070D01*
X163977183Y-90591071D01*
X163849852Y-90478266D01*
X163834667Y-90470296D01*
X163784455Y-90421713D01*
X163768480Y-90353694D01*
X163791815Y-90287836D01*
X163834667Y-90250703D01*
X163849852Y-90242734D01*
X163977183Y-90129929D01*
X164073818Y-89989930D01*
X164134140Y-89830872D01*
X164154645Y-89662000D01*
X164134140Y-89493128D01*
X164073818Y-89334070D01*
X163977183Y-89194071D01*
X163893363Y-89119813D01*
X163856238Y-89060626D01*
X163857006Y-88990761D01*
X163893363Y-88934186D01*
X163977183Y-88859929D01*
X164073818Y-88719930D01*
X164134140Y-88560872D01*
X164154645Y-88392000D01*
X164134140Y-88223128D01*
X164129440Y-88210736D01*
X164073817Y-88064068D01*
X164000554Y-87957930D01*
X163977183Y-87924071D01*
X163849852Y-87811266D01*
X163849849Y-87811263D01*
X163699226Y-87732210D01*
X163534056Y-87691500D01*
X163363944Y-87691500D01*
X163198773Y-87732210D01*
X163048150Y-87811263D01*
X162920816Y-87924072D01*
X162824182Y-88064068D01*
X162763860Y-88223125D01*
X162763859Y-88223130D01*
X162743355Y-88392000D01*
X162763859Y-88560869D01*
X162763860Y-88560874D01*
X162824182Y-88719931D01*
X162920818Y-88859930D01*
X163004634Y-88934185D01*
X163041761Y-88993374D01*
X163040993Y-89063240D01*
X163004634Y-89119815D01*
X162920818Y-89194069D01*
X162824182Y-89334068D01*
X162763860Y-89493125D01*
X162763859Y-89493130D01*
X162743355Y-89662000D01*
X162763859Y-89830869D01*
X162763860Y-89830874D01*
X162824182Y-89989931D01*
X162886475Y-90080177D01*
X162920817Y-90129929D01*
X163048148Y-90242734D01*
X163058974Y-90248416D01*
X163063333Y-90250704D01*
X163113545Y-90299289D01*
X163129519Y-90367309D01*
X163106183Y-90433166D01*
X163063333Y-90470296D01*
X163048149Y-90478265D01*
X162920816Y-90591072D01*
X162824182Y-90731068D01*
X162763860Y-90890125D01*
X162763859Y-90890130D01*
X162743355Y-91059000D01*
X162763859Y-91227869D01*
X162763860Y-91227874D01*
X162824182Y-91386931D01*
X162886475Y-91477177D01*
X162920817Y-91526929D01*
X163048148Y-91639734D01*
X163058974Y-91645416D01*
X163063333Y-91647704D01*
X163113545Y-91696289D01*
X163129519Y-91764309D01*
X163106183Y-91830166D01*
X163063333Y-91867296D01*
X163048149Y-91875265D01*
X162920816Y-91988072D01*
X162824182Y-92128068D01*
X162763860Y-92287125D01*
X162763859Y-92287130D01*
X162743355Y-92456000D01*
X153185990Y-92456000D01*
X153177218Y-92432870D01*
X153176539Y-92431887D01*
X153131393Y-92366481D01*
X153080583Y-92292871D01*
X152953252Y-92180066D01*
X152953249Y-92180063D01*
X152802626Y-92101010D01*
X152637456Y-92060300D01*
X152467344Y-92060300D01*
X152302173Y-92101010D01*
X152151550Y-92180063D01*
X152026858Y-92290531D01*
X152024217Y-92292871D01*
X151942442Y-92411342D01*
X151888158Y-92455332D01*
X151818710Y-92462991D01*
X151756145Y-92431887D01*
X151752711Y-92428582D01*
X151690610Y-92366481D01*
X151678830Y-92352850D01*
X151671363Y-92342821D01*
X151664493Y-92333592D01*
X151659204Y-92329154D01*
X151624468Y-92300006D01*
X151620493Y-92296364D01*
X151616999Y-92292870D01*
X151614661Y-92290531D01*
X151588921Y-92270179D01*
X151530090Y-92220814D01*
X151524061Y-92216849D01*
X151524093Y-92216800D01*
X151517734Y-92212748D01*
X151517703Y-92212799D01*
X151511561Y-92209011D01*
X151511559Y-92209010D01*
X151511558Y-92209009D01*
X151472355Y-92190728D01*
X151441939Y-92176544D01*
X151407775Y-92159387D01*
X151373314Y-92142080D01*
X151373312Y-92142079D01*
X151373311Y-92142079D01*
X151366526Y-92139609D01*
X151366546Y-92139553D01*
X151359430Y-92137079D01*
X151359412Y-92137135D01*
X151352552Y-92134862D01*
X151319656Y-92128070D01*
X151277315Y-92119327D01*
X151228353Y-92107723D01*
X151202600Y-92101619D01*
X151195428Y-92100781D01*
X151195434Y-92100721D01*
X151187936Y-92099955D01*
X151187931Y-92100015D01*
X151180741Y-92099385D01*
X151103964Y-92101620D01*
X146382824Y-92101620D01*
X146364854Y-92100311D01*
X146341091Y-92096830D01*
X146296009Y-92100775D01*
X146289052Y-92101384D01*
X146283651Y-92101620D01*
X146275407Y-92101620D01*
X146242826Y-92105428D01*
X146166318Y-92112121D01*
X146159252Y-92113581D01*
X146159240Y-92113524D01*
X146151873Y-92115158D01*
X146151887Y-92115214D01*
X146144870Y-92116876D01*
X146072692Y-92143146D01*
X145999781Y-92167307D01*
X145993238Y-92170358D01*
X145993213Y-92170306D01*
X145986433Y-92173588D01*
X145986459Y-92173640D01*
X145980000Y-92176884D01*
X145915828Y-92219090D01*
X145850464Y-92259408D01*
X145844796Y-92263890D01*
X145844760Y-92263844D01*
X145838917Y-92268604D01*
X145838954Y-92268648D01*
X145833429Y-92273284D01*
X145833423Y-92273289D01*
X145833423Y-92273290D01*
X145817159Y-92290529D01*
X145780717Y-92329154D01*
X144901690Y-93208181D01*
X144840367Y-93241666D01*
X144814009Y-93244500D01*
X142448084Y-93244500D01*
X142381045Y-93224815D01*
X142335290Y-93172011D01*
X142325346Y-93102853D01*
X142354371Y-93039297D01*
X142390458Y-93010704D01*
X142437649Y-92985936D01*
X142437650Y-92985934D01*
X142437652Y-92985934D01*
X142564983Y-92873129D01*
X142661618Y-92733130D01*
X142721940Y-92574072D01*
X142742445Y-92405200D01*
X142721940Y-92236328D01*
X142661618Y-92077270D01*
X142649904Y-92060300D01*
X142627276Y-92027518D01*
X142564983Y-91937271D01*
X142437652Y-91824466D01*
X142437649Y-91824463D01*
X142287026Y-91745410D01*
X142121856Y-91704700D01*
X141951744Y-91704700D01*
X141786573Y-91745410D01*
X141635950Y-91824463D01*
X141508616Y-91937272D01*
X141411982Y-92077268D01*
X141351660Y-92236325D01*
X141351659Y-92236330D01*
X141331155Y-92405200D01*
X141351659Y-92574069D01*
X141351660Y-92574074D01*
X141411982Y-92733131D01*
X141474275Y-92823377D01*
X141508617Y-92873129D01*
X141614305Y-92966760D01*
X141635950Y-92985936D01*
X141683142Y-93010704D01*
X141733354Y-93059288D01*
X141749329Y-93127307D01*
X141725994Y-93193165D01*
X141670758Y-93235952D01*
X141625516Y-93244500D01*
X140155105Y-93244500D01*
X140137135Y-93243191D01*
X140113372Y-93239710D01*
X140067933Y-93243686D01*
X140061331Y-93244264D01*
X140055930Y-93244500D01*
X140047689Y-93244500D01*
X140025979Y-93247037D01*
X140015124Y-93248306D01*
X139999819Y-93249645D01*
X139938599Y-93255001D01*
X139931532Y-93256460D01*
X139931520Y-93256404D01*
X139924163Y-93258035D01*
X139924177Y-93258092D01*
X139917143Y-93259759D01*
X139844975Y-93286025D01*
X139772065Y-93310185D01*
X139765526Y-93313235D01*
X139765501Y-93313183D01*
X139758708Y-93316471D01*
X139758734Y-93316522D01*
X139752284Y-93319761D01*
X139688116Y-93361964D01*
X139622747Y-93402285D01*
X139617077Y-93406769D01*
X139617041Y-93406723D01*
X139611198Y-93411484D01*
X139611235Y-93411528D01*
X139605710Y-93416164D01*
X139605704Y-93416169D01*
X139605704Y-93416170D01*
X139590731Y-93432040D01*
X139553014Y-93472017D01*
X138761049Y-94263981D01*
X138699726Y-94297466D01*
X138673368Y-94300300D01*
X138237729Y-94300300D01*
X138237723Y-94300301D01*
X138178116Y-94306708D01*
X138043271Y-94357002D01*
X138043264Y-94357006D01*
X137928055Y-94443252D01*
X137928052Y-94443255D01*
X137841806Y-94558464D01*
X137841802Y-94558471D01*
X137791508Y-94693317D01*
X137785101Y-94752916D01*
X137785100Y-94752935D01*
X137785100Y-95848670D01*
X137785101Y-95848676D01*
X137791508Y-95908283D01*
X137841802Y-96043128D01*
X137841804Y-96043131D01*
X137847831Y-96051182D01*
X137872248Y-96116646D01*
X137858705Y-96180270D01*
X137859118Y-96180441D01*
X137858195Y-96182669D01*
X137857924Y-96183943D01*
X137856788Y-96186067D01*
X137799575Y-96374670D01*
X137780259Y-96570800D01*
X137799575Y-96766929D01*
X137856788Y-96955533D01*
X137949686Y-97129332D01*
X137953073Y-97134401D01*
X137951436Y-97135494D01*
X137975196Y-97191463D01*
X137963395Y-97260329D01*
X137952709Y-97276956D01*
X137953073Y-97277199D01*
X137949686Y-97282267D01*
X137856788Y-97456066D01*
X137799575Y-97644670D01*
X137780259Y-97840800D01*
X137799575Y-98036929D01*
X137799576Y-98036932D01*
X137839805Y-98169550D01*
X137856788Y-98225533D01*
X137949686Y-98399332D01*
X137953073Y-98404401D01*
X137951436Y-98405494D01*
X137975196Y-98461463D01*
X137963395Y-98530329D01*
X137952709Y-98546956D01*
X137953073Y-98547199D01*
X137949686Y-98552267D01*
X137856788Y-98726066D01*
X137799575Y-98914670D01*
X137780259Y-99110800D01*
X137799575Y-99306929D01*
X137856788Y-99495533D01*
X137949686Y-99669332D01*
X137953073Y-99674401D01*
X137951436Y-99675494D01*
X137975196Y-99731463D01*
X137963395Y-99800329D01*
X137952709Y-99816956D01*
X137953073Y-99817199D01*
X137949686Y-99822267D01*
X137856788Y-99996066D01*
X137799575Y-100184670D01*
X137780259Y-100380800D01*
X137799575Y-100576929D01*
X137799576Y-100576932D01*
X137839805Y-100709550D01*
X137856788Y-100765533D01*
X137949686Y-100939332D01*
X137953073Y-100944401D01*
X137951436Y-100945494D01*
X137975196Y-101001463D01*
X137963395Y-101070329D01*
X137952709Y-101086956D01*
X137953073Y-101087199D01*
X137949686Y-101092267D01*
X137856788Y-101266066D01*
X137799575Y-101454670D01*
X137780259Y-101650800D01*
X137799575Y-101846929D01*
X137856788Y-102035533D01*
X137949686Y-102209332D01*
X137953073Y-102214401D01*
X137951436Y-102215494D01*
X137975196Y-102271463D01*
X137963395Y-102340329D01*
X137952709Y-102356956D01*
X137953073Y-102357199D01*
X137949686Y-102362267D01*
X137856788Y-102536066D01*
X137799575Y-102724670D01*
X137780259Y-102920800D01*
X137799575Y-103116929D01*
X137856788Y-103305533D01*
X137949686Y-103479332D01*
X137953073Y-103484401D01*
X137951436Y-103485494D01*
X137975196Y-103541463D01*
X137963395Y-103610329D01*
X137952709Y-103626956D01*
X137953073Y-103627199D01*
X137949686Y-103632267D01*
X137856788Y-103806066D01*
X137799575Y-103994670D01*
X137780259Y-104190800D01*
X134642882Y-104190800D01*
X134677336Y-87630000D01*
X144226755Y-87630000D01*
X144247259Y-87798869D01*
X144247260Y-87798874D01*
X144307582Y-87957931D01*
X144369875Y-88048177D01*
X144404217Y-88097929D01*
X144509905Y-88191560D01*
X144531550Y-88210736D01*
X144682173Y-88289789D01*
X144682175Y-88289790D01*
X144847344Y-88330500D01*
X145017456Y-88330500D01*
X145182625Y-88289790D01*
X145309634Y-88223130D01*
X145333249Y-88210736D01*
X145333250Y-88210734D01*
X145333252Y-88210734D01*
X145460583Y-88097929D01*
X145557218Y-87957930D01*
X145617540Y-87798872D01*
X145638045Y-87630000D01*
X145617540Y-87461128D01*
X145557218Y-87302070D01*
X145460583Y-87162071D01*
X145333252Y-87049266D01*
X145333249Y-87049263D01*
X145182626Y-86970210D01*
X145017456Y-86929500D01*
X144847344Y-86929500D01*
X144682173Y-86970210D01*
X144531550Y-87049263D01*
X144404216Y-87162072D01*
X144307582Y-87302068D01*
X144247260Y-87461125D01*
X144247259Y-87461130D01*
X144226755Y-87630000D01*
X134677336Y-87630000D01*
X134684370Y-84248803D01*
X152392116Y-84248803D01*
X152412435Y-84597669D01*
X152412436Y-84597680D01*
X152473114Y-84941802D01*
X152473116Y-84941811D01*
X152573345Y-85276600D01*
X152711755Y-85597470D01*
X152711761Y-85597483D01*
X152886489Y-85900122D01*
X153095172Y-86180431D01*
X153095176Y-86180436D01*
X153103347Y-86189097D01*
X153103348Y-86189098D01*
X154350865Y-84941581D01*
X154490055Y-85116120D01*
X154659499Y-85264158D01*
X154707008Y-85292543D01*
X153460017Y-86539533D01*
X153460018Y-86539534D01*
X153602680Y-86659242D01*
X153894661Y-86851280D01*
X154206939Y-87008114D01*
X154206945Y-87008116D01*
X154535330Y-87127638D01*
X154535333Y-87127639D01*
X154875371Y-87208229D01*
X155222476Y-87248799D01*
X155222477Y-87248800D01*
X155571923Y-87248800D01*
X155571923Y-87248799D01*
X155919027Y-87208229D01*
X155919029Y-87208229D01*
X156259066Y-87127639D01*
X156259069Y-87127638D01*
X156587454Y-87008116D01*
X156587460Y-87008114D01*
X156899738Y-86851280D01*
X157191715Y-86659245D01*
X157334380Y-86539534D01*
X157334381Y-86539533D01*
X156087325Y-85292478D01*
X156222947Y-85193944D01*
X156378439Y-85031312D01*
X156440001Y-84938048D01*
X157691050Y-86189097D01*
X157699232Y-86180425D01*
X157907910Y-85900122D01*
X158082638Y-85597483D01*
X158082644Y-85597470D01*
X158221054Y-85276600D01*
X158321283Y-84941811D01*
X158321285Y-84941802D01*
X158381963Y-84597680D01*
X158381964Y-84597669D01*
X158402284Y-84248803D01*
X158402284Y-84248796D01*
X158392103Y-84074003D01*
X159046415Y-84074003D01*
X159066738Y-84422927D01*
X159066739Y-84422938D01*
X159127428Y-84767127D01*
X159127430Y-84767134D01*
X159227674Y-85101972D01*
X159366107Y-85422895D01*
X159366113Y-85422908D01*
X159540870Y-85725597D01*
X159749584Y-86005949D01*
X159749589Y-86005955D01*
X159873463Y-86137253D01*
X159989442Y-86260183D01*
X160165903Y-86408251D01*
X160257186Y-86484847D01*
X160257194Y-86484853D01*
X160549203Y-86676911D01*
X160549207Y-86676913D01*
X160861549Y-86833777D01*
X161189989Y-86953319D01*
X161530086Y-87033923D01*
X161877241Y-87074500D01*
X161877248Y-87074500D01*
X162226752Y-87074500D01*
X162226759Y-87074500D01*
X162573914Y-87033923D01*
X162914011Y-86953319D01*
X163242451Y-86833777D01*
X163554793Y-86676913D01*
X163846811Y-86484849D01*
X164114558Y-86260183D01*
X164354412Y-86005953D01*
X164563130Y-85725596D01*
X164737889Y-85422904D01*
X164876326Y-85101971D01*
X164976569Y-84767136D01*
X164980990Y-84742067D01*
X165037260Y-84422938D01*
X165037259Y-84422938D01*
X165037262Y-84422927D01*
X165057585Y-84074000D01*
X165037262Y-83725073D01*
X165037260Y-83725061D01*
X164976571Y-83380872D01*
X164976569Y-83380865D01*
X164953454Y-83303656D01*
X164876326Y-83046029D01*
X164737889Y-82725096D01*
X164563130Y-82422404D01*
X164563129Y-82422402D01*
X164354415Y-82142050D01*
X164354410Y-82142044D01*
X164238433Y-82019117D01*
X164114558Y-81887817D01*
X163966488Y-81763572D01*
X163846813Y-81663152D01*
X163846805Y-81663146D01*
X163554796Y-81471088D01*
X163242458Y-81314226D01*
X163242452Y-81314223D01*
X162914012Y-81194681D01*
X162914009Y-81194680D01*
X162573915Y-81114077D01*
X162530519Y-81109004D01*
X162226759Y-81073500D01*
X161877241Y-81073500D01*
X161573480Y-81109004D01*
X161530085Y-81114077D01*
X161530083Y-81114077D01*
X161189990Y-81194680D01*
X161189987Y-81194681D01*
X160861547Y-81314223D01*
X160861541Y-81314226D01*
X160549203Y-81471088D01*
X160257194Y-81663146D01*
X160257186Y-81663152D01*
X159989442Y-81887817D01*
X159989440Y-81887819D01*
X159749589Y-82142044D01*
X159749584Y-82142050D01*
X159540870Y-82422402D01*
X159366113Y-82725091D01*
X159366107Y-82725104D01*
X159227674Y-83046027D01*
X159127430Y-83380865D01*
X159127428Y-83380872D01*
X159066739Y-83725061D01*
X159066738Y-83725072D01*
X159046415Y-84073996D01*
X159046415Y-84074003D01*
X158392103Y-84074003D01*
X158381964Y-83899930D01*
X158381963Y-83899919D01*
X158321285Y-83555797D01*
X158321283Y-83555788D01*
X158221054Y-83220999D01*
X158082644Y-82900129D01*
X158082638Y-82900116D01*
X157907910Y-82597477D01*
X157699229Y-82317171D01*
X157691050Y-82308501D01*
X157691050Y-82308500D01*
X156443533Y-83556017D01*
X156304345Y-83381480D01*
X156134901Y-83233442D01*
X156087391Y-83205056D01*
X157334381Y-81958065D01*
X157334380Y-81958064D01*
X157191719Y-81838357D01*
X156899738Y-81646319D01*
X156587460Y-81489485D01*
X156587454Y-81489483D01*
X156259069Y-81369961D01*
X156259066Y-81369960D01*
X155919028Y-81289370D01*
X155571923Y-81248800D01*
X155222477Y-81248800D01*
X154875372Y-81289370D01*
X154875370Y-81289370D01*
X154535333Y-81369960D01*
X154535330Y-81369961D01*
X154206945Y-81489483D01*
X154206939Y-81489485D01*
X153894661Y-81646319D01*
X153602685Y-81838354D01*
X153460017Y-81958064D01*
X154707074Y-83205121D01*
X154571453Y-83303656D01*
X154415961Y-83466288D01*
X154354398Y-83559551D01*
X153103348Y-82308501D01*
X153103346Y-82308501D01*
X153095173Y-82317166D01*
X152886489Y-82597477D01*
X152711761Y-82900116D01*
X152711755Y-82900129D01*
X152573345Y-83220999D01*
X152473116Y-83555788D01*
X152473114Y-83555797D01*
X152412436Y-83899919D01*
X152412435Y-83899930D01*
X152392116Y-84248796D01*
X152392116Y-84248803D01*
X134684370Y-84248803D01*
X134695943Y-78685942D01*
X134715767Y-78618944D01*
X134768666Y-78573299D01*
X134819943Y-78562200D01*
X180545941Y-78562200D01*
X180612980Y-78581885D01*
G37*
%TD.AperFunction*%
%TD*%
M02*
