%TF.GenerationSoftware,KiCad,Pcbnew,7.0.9-7.0.9~ubuntu22.04.1*%
%TF.CreationDate,2024-01-17T18:17:55+01:00*%
%TF.ProjectId,driver_seperate,64726976-6572-45f7-9365-706572617465,rev?*%
%TF.SameCoordinates,Original*%
%TF.FileFunction,Soldermask,Top*%
%TF.FilePolarity,Negative*%
%FSLAX46Y46*%
G04 Gerber Fmt 4.6, Leading zero omitted, Abs format (unit mm)*
G04 Created by KiCad (PCBNEW 7.0.9-7.0.9~ubuntu22.04.1) date 2024-01-17 18:17:55*
%MOMM*%
%LPD*%
G01*
G04 APERTURE LIST*
G04 Aperture macros list*
%AMRoundRect*
0 Rectangle with rounded corners*
0 $1 Rounding radius*
0 $2 $3 $4 $5 $6 $7 $8 $9 X,Y pos of 4 corners*
0 Add a 4 corners polygon primitive as box body*
4,1,4,$2,$3,$4,$5,$6,$7,$8,$9,$2,$3,0*
0 Add four circle primitives for the rounded corners*
1,1,$1+$1,$2,$3*
1,1,$1+$1,$4,$5*
1,1,$1+$1,$6,$7*
1,1,$1+$1,$8,$9*
0 Add four rect primitives between the rounded corners*
20,1,$1+$1,$2,$3,$4,$5,0*
20,1,$1+$1,$4,$5,$6,$7,0*
20,1,$1+$1,$6,$7,$8,$9,0*
20,1,$1+$1,$8,$9,$2,$3,0*%
G04 Aperture macros list end*
%ADD10RoundRect,0.250000X-0.650000X0.325000X-0.650000X-0.325000X0.650000X-0.325000X0.650000X0.325000X0*%
%ADD11R,1.860000X5.520000*%
%ADD12R,1.820000X1.020000*%
%ADD13RoundRect,0.237500X-0.237500X0.250000X-0.237500X-0.250000X0.237500X-0.250000X0.237500X0.250000X0*%
%ADD14RoundRect,0.237500X-0.250000X-0.237500X0.250000X-0.237500X0.250000X0.237500X-0.250000X0.237500X0*%
%ADD15R,3.100000X3.050000*%
%ADD16C,5.000000*%
%ADD17R,0.980000X0.780000*%
%ADD18RoundRect,0.250000X0.350000X0.450000X-0.350000X0.450000X-0.350000X-0.450000X0.350000X-0.450000X0*%
%ADD19R,1.000000X1.000000*%
%ADD20O,1.000000X1.000000*%
%ADD21RoundRect,0.160000X-0.160000X0.197500X-0.160000X-0.197500X0.160000X-0.197500X0.160000X0.197500X0*%
%ADD22R,1.820000X1.070000*%
%ADD23RoundRect,0.237500X0.237500X-0.250000X0.237500X0.250000X-0.237500X0.250000X-0.237500X-0.250000X0*%
%ADD24R,0.800000X0.300000*%
%ADD25R,0.300000X0.800000*%
%ADD26R,3.800000X5.800000*%
G04 APERTURE END LIST*
D10*
%TO.C,C6*%
X173482000Y-104849400D03*
X173482000Y-107799400D03*
%TD*%
D11*
%TO.C,C4*%
X156119000Y-90424000D03*
X161179000Y-90424000D03*
%TD*%
D12*
%TO.C,C2*%
X148794400Y-92261800D03*
X148794400Y-89461800D03*
%TD*%
D13*
%TO.C,R2*%
X151511000Y-111355500D03*
X151511000Y-113180500D03*
%TD*%
D14*
%TO.C,R4*%
X143510000Y-96647000D03*
X145335000Y-96647000D03*
%TD*%
D15*
%TO.C,L1*%
X165608000Y-97229200D03*
X165608000Y-103329200D03*
%TD*%
D16*
%TO.C,IN-1*%
X162052000Y-84074000D03*
%TD*%
D17*
%TO.C,C7*%
X149987000Y-111526500D03*
X149987000Y-112926500D03*
%TD*%
D18*
%TO.C,R5*%
X145510000Y-98552000D03*
X143510000Y-98552000D03*
%TD*%
D12*
%TO.C,C5*%
X144933600Y-92306600D03*
X144933600Y-89506600D03*
%TD*%
D19*
%TO.C,J1*%
X138785600Y-95300800D03*
D20*
X138785600Y-96570800D03*
X138785600Y-97840800D03*
X138785600Y-99110800D03*
X138785600Y-100380800D03*
X138785600Y-101650800D03*
X138785600Y-102920800D03*
X138785600Y-104190800D03*
%TD*%
D21*
%TO.C,R6*%
X149225000Y-105193500D03*
X149225000Y-106388500D03*
%TD*%
D22*
%TO.C,C1*%
X159639000Y-96029000D03*
X159639000Y-98789000D03*
%TD*%
D23*
%TO.C,R3*%
X157226000Y-109370500D03*
X157226000Y-107545500D03*
%TD*%
%TO.C,R1*%
X153543000Y-108608500D03*
X153543000Y-106783500D03*
%TD*%
D16*
%TO.C,IN+1*%
X155397200Y-84248800D03*
%TD*%
D21*
%TO.C,R7*%
X150622000Y-105320500D03*
X150622000Y-106515500D03*
%TD*%
D19*
%TO.C,J2*%
X147066000Y-111633000D03*
D20*
X145796000Y-111633000D03*
X144526000Y-111633000D03*
X143256000Y-111633000D03*
X141986000Y-111633000D03*
%TD*%
D17*
%TO.C,C3*%
X151537600Y-90144600D03*
X151537600Y-91544600D03*
%TD*%
D24*
%TO.C,IC1*%
X153884000Y-102445000D03*
X153884000Y-101945000D03*
X153884000Y-101445000D03*
X153884000Y-100945000D03*
X153884000Y-100445000D03*
X153884000Y-99945000D03*
X153884000Y-99445000D03*
X153884000Y-98945000D03*
X153884000Y-98445000D03*
X153884000Y-97945000D03*
X153884000Y-97445000D03*
X153884000Y-96945000D03*
D25*
X153134000Y-96195000D03*
X152634000Y-96195000D03*
X152134000Y-96195000D03*
X151634000Y-96195000D03*
X151134000Y-96195000D03*
X150634000Y-96195000D03*
X150134000Y-96195000D03*
X149634000Y-96195000D03*
D24*
X148884000Y-96945000D03*
X148884000Y-97445000D03*
X148884000Y-97945000D03*
X148884000Y-98445000D03*
X148884000Y-98945000D03*
X148884000Y-99445000D03*
X148884000Y-99945000D03*
X148884000Y-100445000D03*
X148884000Y-100945000D03*
X148884000Y-101445000D03*
X148884000Y-101945000D03*
X148884000Y-102445000D03*
D25*
X149634000Y-103195000D03*
X150134000Y-103195000D03*
X150634000Y-103195000D03*
X151134000Y-103195000D03*
X151634000Y-103195000D03*
X152134000Y-103195000D03*
X152634000Y-103195000D03*
X153134000Y-103195000D03*
D26*
X151384000Y-99695000D03*
%TD*%
M02*
